<?xml version="1.0" encoding="utf-8" ?><svg xmlns="http://www.w3.org/2000/svg" xmlns:xlink="http://www.w3.org/1999/xlink" width="332" height="408" viewBox="0 0 332 408"><path fill="white" transform="scale(0.32457 0.324499)" d="M0 0L1024 0L1024 1257L0 1257L0 0Z"/><path fill="#19100F" transform="scale(0.32457 0.324499)" d="M492.769 327.316C503.123 312.521 535.652 271.886 554.729 261.506C562.142 261.506 562.355 268.408 558.171 272.348C539.683 289.754 522.632 309.091 507.333 329.347C496.535 346.245 498.753 342.784 483.973 335.389C443.184 314.979 392.83 300.415 347.402 298.149C333.764 297.468 278.345 331.888 268.416 341.275C336.217 341.802 421.411 362.18 481.686 392.812C488.89 396.473 503.269 403.383 509.158 408.254C535.209 361.696 567.656 318.362 609.497 284.572C617.436 278.16 628.679 270.137 637.968 266.094C720.604 284.151 799.061 336.961 845.062 408.335C864.919 439.145 873.24 459.663 883.496 493.832C890.341 490.808 896.289 488.343 903.312 485.75C905.08 497.966 907.989 510.204 909.853 522.725C914.878 554.355 915.809 586.501 912.62 618.369C911.998 625.049 910.122 643.448 908.481 649.569C903.363 654.994 890.363 664.179 887.556 667.966C881.046 697.533 871.177 715.913 844.247 731.706C777.08 771.096 686.051 784.538 609.267 789.262C580.08 791.058 553.144 790.24 524.779 790.583C527.618 791.732 531.296 792.348 534.268 793.399C558.604 802.008 592.536 808.9 591.035 840.758C574.368 837.538 557.853 831.073 541.529 826.384C510.774 817.55 479.805 809.355 449.164 800.148C444.492 798.744 413.442 790.691 411.793 789.41C410.84 787.567 411.409 786.095 411.791 783.951C400.149 782.618 386.818 780.191 375.041 778.403C315.216 769.32 255.728 754.318 201.484 726.911C185.7 718.936 158.312 702.695 149.583 687.272C146.418 681.679 143.195 669.369 141.082 662.71C116.422 640.876 117.923 651.631 113.604 617.894C106.9 565.511 114.396 522.685 125.636 472.086C133.97 475.623 142.099 479.626 149.983 484.075C179.125 401.467 239.563 333.613 318.274 295.136C337.622 285.844 340.676 284.487 361.609 286.85C390.552 289.994 419.017 296.573 446.403 306.448C458.246 310.634 481.928 321.312 492.769 327.316Z"/><path fill="#351E1D" transform="scale(0.32457 0.324499)" d="M125.636 472.086C133.97 475.623 142.099 479.626 149.983 484.075C134.675 521.207 130.372 580.374 134.857 620.163C136.499 634.723 139.646 649.015 141.082 662.71C116.422 640.876 117.923 651.631 113.604 617.894C106.9 565.511 114.396 522.685 125.636 472.086Z"/><path fill="#5B1D1E" transform="scale(0.32457 0.324499)" d="M411.791 783.951C451.236 787.383 485.209 790.074 524.779 790.583C527.618 791.732 531.296 792.348 534.268 793.399C558.604 802.008 592.536 808.9 591.035 840.758C574.368 837.538 557.853 831.073 541.529 826.384C510.774 817.55 479.805 809.355 449.164 800.148C444.492 798.744 413.442 790.691 411.793 789.41C410.84 787.567 411.409 786.095 411.791 783.951Z"/><path fill="#351E1D" transform="scale(0.32457 0.324499)" d="M883.496 493.832C890.341 490.808 896.289 488.343 903.312 485.75C905.08 497.966 907.989 510.204 909.853 522.725C914.878 554.355 915.809 586.501 912.62 618.369C911.998 625.049 910.122 643.448 908.481 649.569C903.363 654.994 890.363 664.179 887.556 667.966C887.271 661.762 892.403 636.737 893.39 627.865C898.196 587.639 895.879 546.881 886.545 507.458C885.745 504.158 884.559 496.433 883.496 493.832Z"/><path fill="white" transform="scale(0.32457 0.324499)" d="M639.827 279.368C713.833 297.371 784.365 343.553 827.963 406.402C876.398 477.207 894.67 564.368 878.748 648.66C876.383 661.541 868.687 693.384 860.641 702.353C837.382 728.278 784.513 746.839 752.605 755.129C622.774 788.862 471.441 784.302 340.77 759.669C292.495 751.061 242.913 735.144 199.772 711.807C187.888 705.378 172.313 695.748 163.69 685.21C159.158 679.67 156.056 668.07 154.229 660.966C145.276 625.277 143.094 588.227 147.794 551.734C156.175 485.14 185.817 423.024 232.317 374.613C239.013 367.689 246.99 359.513 254.565 353.569C319.07 354.125 394.922 367.965 454.482 393.383C471.442 400.432 487.964 408.49 503.959 417.516C514.141 423.166 513.581 423.751 520.477 413.109C523.086 409.083 525.74 404.777 528.3 400.702C557.56 354.122 593.556 309.952 639.827 279.368Z"/><path fill="#19100F" transform="scale(0.32457 0.324499)" d="M676.622 400.444C732.325 398.787 786.263 429.143 813.307 477.948C831.212 510.643 835.364 549.119 824.846 584.88C802.02 661.928 713.806 705.04 638.093 681.984C606.834 672.357 579.631 652.677 560.71 626.002C554.885 617.751 550.702 609.713 545.949 600.79C538.069 600.168 527.682 600.41 519.605 600.411C508.215 600.413 496.304 600.279 484.957 600.634C463.727 656.303 411.232 695.579 351.618 699.255C329.041 701.449 300.537 696.008 279.812 687.143C216.409 660.022 180.745 589.816 196.822 522.687C205.874 486.28 229.006 454.952 261.139 435.581C295.552 414.603 336.922 408.24 376.05 417.906C422.142 429.144 454.137 456.677 478.314 496.485C498.593 496.319 518.874 496.308 539.154 496.452C565.765 439.867 613.426 403.558 676.622 400.444Z"/><path fill="#351E1D" transform="scale(0.32457 0.324499)" d="M673.2 413.941C683.762 412.381 703.597 415.003 714.172 417.645C748.365 426.187 778.632 446.28 797.234 476.414C861.56 580.616 763.428 697.157 650.02 671.6C619.905 664.81 594.711 647.836 575.152 624.225C568.709 616.447 562.878 605.628 557.607 596.843L552.811 594.383C551.864 592.636 550.987 590.312 550.214 588.438C535.392 588.028 520.562 587.908 505.735 588.076C497.321 588.117 486.122 587.898 478.033 588.66C469.007 595.871 469.625 605.169 464.134 614.448C459.654 622.018 453.515 631.118 447.899 637.889C424.745 665.61 391.566 683.052 355.599 686.411C345.684 688.865 318.265 686.062 307.659 683.157C272.48 673.498 240.832 651.278 223.204 618.82C166.491 514.393 263.28 402.34 375.306 431.686C422.615 444.079 445.931 467.553 470.022 508.614C479.079 509.294 490.786 509.003 499.976 508.981L547.444 508.84C549.86 504.856 553.117 497.798 555.523 493.354C561.044 483.188 567.562 473.595 574.98 464.717C601.685 433.144 632.058 417.444 673.2 413.941Z"/><path fill="#19100F" transform="scale(0.32457 0.324499)" d="M645.604 443.11C701.374 437.752 750.947 478.566 756.384 534.317C761.82 590.068 721.065 639.686 665.309 645.198C609.444 650.721 559.696 609.878 554.249 554.018C548.802 498.158 589.723 448.478 645.604 443.11Z"/><path fill="white" transform="scale(0.32457 0.324499)" d="M648.452 455.927C697.267 451.997 739.997 488.44 743.809 537.253C747.621 586.066 711.066 628.698 662.233 632.39C613.568 636.07 571.104 599.676 567.306 551.031C563.507 502.385 599.805 459.843 648.452 455.927Z"/><path fill="#19100F" transform="scale(0.32457 0.324499)" d="M650.748 497.458C677.54 495.122 701.106 515.054 703.243 541.857C705.38 568.659 685.268 592.071 658.444 594.008C631.901 595.924 608.783 576.073 606.668 549.551C604.554 523.029 624.236 499.769 650.748 497.458Z"/><path fill="#351E1D" transform="scale(0.32457 0.324499)" d="M650.228 509.634C669.885 507.058 687.885 520.963 690.354 540.629C692.822 560.295 678.816 578.214 659.132 580.574C639.601 582.916 621.845 569.045 619.396 549.531C616.946 530.016 630.723 512.189 650.228 509.634Z"/><path fill="#19100F" transform="scale(0.32457 0.324499)" d="M367.405 454.864C423.159 453.851 469.183 498.206 470.218 553.947C471.252 609.688 426.906 655.719 371.153 656.775C315.369 657.832 269.296 613.465 268.261 557.693C267.226 501.922 311.621 455.877 367.405 454.864Z"/><path fill="white" transform="scale(0.32457 0.324499)" d="M360.303 468.656C408.662 463.569 451.984 498.65 457.051 547.001C462.119 595.351 427.01 638.648 378.647 643.693C330.314 648.735 287.038 613.661 281.974 565.341C276.91 517.02 311.974 473.74 360.303 468.656Z"/><path fill="#19100F" transform="scale(0.32457 0.324499)" d="M361.623 509.129C387.912 504.723 412.764 522.552 417.009 548.861C421.253 575.171 403.268 599.907 376.927 603.988C350.814 608.034 326.334 590.243 322.126 564.162C317.918 538.08 335.563 513.496 361.623 509.129Z"/><path fill="#351E1D" transform="scale(0.32457 0.324499)" d="M367.078 521.015C386.435 519.878 403.086 534.564 404.371 553.908C405.655 573.251 391.092 590.009 371.755 591.44C352.208 592.887 335.226 578.136 333.928 558.583C332.629 539.031 347.512 522.165 367.078 521.015Z"/><path fill="#5B1D1E" transform="scale(0.32457 0.324499)" d="M273.576 1000.99L421.277 1046.48C466.989 1060.08 517.329 1073.74 560.965 1091.97C557.704 1102.53 553.866 1113.08 550.191 1123.52C545.584 1122.98 530.863 1117.53 525.816 1115.78C513.54 1111.51 501.198 1107.44 488.795 1103.56L409.908 1079.4C395.305 1074.87 380.498 1069.84 365.933 1065.53C344.837 1059.33 323.819 1052.87 302.886 1046.13C291.931 1042.7 273.141 1037.37 263.674 1032.43C265.955 1022.69 270.295 1010.63 273.576 1000.99Z"/><path fill="#19100F" transform="scale(0.32457 0.324499)" d="M398.411 801.984C402.433 802.388 411.364 805.443 415.562 806.773C425.155 809.882 434.782 812.886 444.441 815.785L584.066 857.702C582.879 863.145 581.295 868.622 579.92 874.031C565.222 931.822 546.811 989.141 532.444 1046.98C536.453 1048.09 540.386 1049.45 544.221 1051.05C550.663 1053.74 569.776 1062.23 565.336 1071.95C562.516 1071.48 551.394 1067.31 547.979 1066.1C537.124 1062.23 526.893 1058.66 515.834 1055.32C516.729 1050.44 520.088 1039.91 521.534 1034.7C525.563 1019.83 529.707 1004.98 533.967 990.173L566.076 875.087L568.902 866.377C550.524 860.258 529.932 854.563 511.25 848.961L405.103 817.474C386.178 858.277 363.802 898.07 343.938 938.479C335.104 956.45 325.76 975.144 315.969 992.602C309.069 990.784 281.659 983.811 278.941 977.784L279.884 976.675C287.707 973.461 301.312 975.937 309.47 977.469C325.248 948.038 340.143 917.175 355.522 887.471C364.672 870.095 373.616 852.61 382.35 835.02C387.562 824.702 393.977 812.511 398.411 801.984Z"/><path fill="#19100F" transform="scale(0.32457 0.324499)" d="M592.161 895.285C597.576 898.603 605.747 905.806 610.675 909.998C638.931 934.036 663.126 966.121 676.475 1000.95C650.455 988.112 624.929 987.021 600.623 1004.52C584.243 1017.84 580.995 1032.1 576.039 1051.4C568.749 1044.29 560.185 1034.65 554.367 1026.35C564.466 994.377 572.016 961.558 582.053 929.514C585.588 918.228 587.973 906.512 592.161 895.285Z"/><path fill="white" transform="scale(0.32457 0.324499)" d="M598.343 918.499C617.474 931.236 641.979 958.766 651.566 979.648C629.175 977.202 610.453 981.065 592.222 995.001C579.834 1004.87 575.706 1013.53 569.09 1027.33C571.604 1013.55 577.815 992.531 581.66 978.799L598.343 918.499Z"/><path fill="#19100F" transform="scale(0.32457 0.324499)" d="M335.905 835.601C344.312 834.976 352.851 835.091 361.267 835.371C356.793 846.59 349.281 859.562 343.841 870.578C329.851 898.907 314.258 926.79 300.183 955.054C288.354 955.797 283.213 956.323 271.679 958.79C275.033 951.232 277.002 944.514 278.566 936.43C280.16 923.405 278.022 913.064 271.921 901.536C261.977 882.748 243.799 876.523 224.594 870.92C258.485 846.427 294.92 838.211 335.905 835.601Z"/><path fill="white" transform="scale(0.32457 0.324499)" d="M331.251 848.479C333.273 848.182 338.73 848.039 341.016 847.913C329.374 869.409 318.552 892.393 306.605 913.874C301.004 923.946 295.423 935.513 289.12 945.079C291.367 935.266 292.825 929.941 291.879 919.887C289.388 895.562 276.698 877.276 253.711 868.183C277.828 856.538 304.71 850.804 331.251 848.479Z"/><path fill="#351E1D" transform="scale(0.32457 0.324499)" d="M496.293 186.059C522.717 181.487 547.826 199.256 552.297 225.693C556.768 252.129 538.898 277.163 512.439 281.531C486.124 285.876 461.249 268.128 456.803 241.836C452.356 215.543 470.012 190.606 496.293 186.059Z"/><path fill="white" transform="scale(0.32457 0.324499)" d="M498.941 209.79C512.279 206.705 525.593 215.013 528.681 228.348C531.768 241.683 523.459 254.995 510.122 258.084C496.782 261.172 483.464 252.864 480.377 239.527C477.289 226.19 485.6 212.876 498.941 209.79Z"/><path fill="#19100F" transform="scale(0.32457 0.324499)" d="M639.539 1005.63C652.357 1006.24 662.606 1008.82 672.288 1017.96C680.389 1025.55 685.139 1036.05 685.492 1047.15C686.206 1072.4 664.787 1090.75 640.365 1091.31C580.193 1089.12 577.052 1008.83 639.539 1005.63Z"/><path fill="#351E1D" transform="scale(0.32457 0.324499)" d="M636.328 1017.8C678.512 1013.89 687.765 1072.37 643.519 1079.46C602.297 1082.93 589.343 1025.81 636.328 1017.8Z"/><path fill="#19100F" transform="scale(0.32457 0.324499)" d="M216.583 886.469C240.456 883.358 262.345 900.147 265.523 924.006C268.7 947.864 251.968 969.795 228.112 973.037C204.164 976.292 182.125 959.484 178.935 935.532C175.745 911.58 192.618 889.592 216.583 886.469Z"/><path fill="#351E1D" transform="scale(0.32457 0.324499)" d="M215.036 899.467C232.062 895.522 249.041 906.203 252.852 923.255C256.663 940.307 245.846 957.198 228.761 960.873C211.865 964.508 195.199 953.84 191.43 936.977C187.661 920.114 198.2 903.369 215.036 899.467Z"/><path fill="#5B1D1E" transform="scale(0.32457 0.324499)" d="M466.05 871.226C486.312 868.705 504.836 882.937 507.615 903.161C510.394 923.385 496.394 942.085 476.203 945.12C462.911 947.117 449.573 941.812 441.286 931.233C432.999 920.653 431.045 906.434 436.171 894.012C441.298 881.59 452.712 872.885 466.05 871.226Z"/><path fill="white" transform="scale(0.32457 0.324499)" d="M468.584 893.172C477.07 891.87 485.049 897.564 486.577 906.01C488.105 914.457 482.625 922.583 474.22 924.335C468.58 925.511 462.746 923.533 458.985 919.17C455.224 914.807 454.128 908.747 456.123 903.344C458.118 897.941 462.889 894.046 468.584 893.172Z"/><defs><linearGradient id="gradient_0" gradientUnits="userSpaceOnUse" x1="395.70151" y1="1120.9089" x2="402.89658" y2="1076.4814"><stop offset="0" stop-color="#120B09"/><stop offset="1" stop-color="#23110F"/></linearGradient></defs><path fill="url(#gradient_0)" transform="scale(0.32457 0.324499)" d="M271.711 1053.81C290.998 1060.66 310.059 1066.53 329.472 1072.92C363.47 1084.13 397.561 1095.05 431.738 1105.7C442.893 1109.09 525.331 1132.02 528.281 1137.3L527.229 1138.45C526.173 1138.8 525.103 1139.11 524.022 1139.37C506.518 1143.57 486.279 1134.54 469.338 1129.26L403.078 1108.55C384.691 1102.82 366.264 1097.36 347.832 1091.5C328.586 1085.38 307.788 1080.61 289.311 1072.35C282.422 1069.26 273.598 1061.4 271.711 1053.81Z"/></svg>