<?xml version="1.0" encoding="UTF-8"?>
<svg xmlns="http://www.w3.org/2000/svg" width="256" height="256" viewBox="0 0 256 256"><style>polyline{fill:none;stroke:#000;stroke-width:2;stroke-linecap:round;stroke-linejoin:round;stroke-dasharray:1000;stroke-dashoffset:1000}@keyframes draw{to{stroke-dashoffset:0;}}</style><polyline points="205.1,32.8 201.1,32.0 196.3,32.0 190.6,32.0 186.2,33.2 181.0,38.1 175.4,44.5 169.4,52.1 164.5,58.9 160.9,66.2 158.5,73.4 157.3,80.2 157.3,87.0 157.3,93.1 158.1,98.7 159.7,103.9 161.7,107.5 163.3,109.9 165.7,110.7 167.7,110.7 170.2,110.7 173.0,110.7 177.4,110.7 185.8,108.7 193.8,105.9 203.5,102.3 210.3,97.9 217.1,93.1 221.9,89.1 226.0,84.6 229.2,79.0 230.0,72.6 230.0,65.8 228.8,58.5 226.4,51.7 224.0,46.5 221.5,41.3 219.1,36.9 216.7,33.7 215.1,30.8 213.9,28.8 211.9,27.2 209.9,27.2 206.3,27.6 206.3,27.6" style="animation:draw 0.29s linear 0.00s forwards;" /><polyline points="163.3,61.4 161.7,59.3 158.1,49.7 155.3,44.9 153.7,41.7 150.5,37.3 147.3,32.4 143.3,29.2 139.2,26.4 135.2,24.0 131.2,22.8 127.2,21.6 123.2,20.4 118.8,20.0 113.5,20.0 107.1,20.0 99.5,20.4 91.1,22.4 83.0,24.4 74.6,27.2 67.0,30.0 59.3,33.2 52.5,36.9 46.1,40.5 40.9,44.5 36.1,49.3 31.2,55.3 26.4,61.8 22.8,67.8 20.8,73.8 20.0,79.4 20.0,84.2 20.0,88.3 21.2,91.9 23.6,95.1 26.8,97.9 29.6,100.7 32.4,102.7 35.7,104.7 39.7,107.1 43.7,109.9 47.7,112.7 52.1,115.2 56.5,117.6 61.4,119.6 66.6,121.6 72.2,124.0 77.4,126.4 82.2,128.4 87.0,130.4 91.9,132.4 96.3,134.8 100.7,137.2 104.7,138.4 108.3,138.8 111.9,139.2 115.2,139.2 118.8,139.6 122.8,139.6 126.8,139.6 131.2,139.6 135.6,139.6 140.0,139.6 143.7,138.8 147.3,137.6 150.1,136.0 152.9,134.4 156.5,131.6 164.1,123.2 171.8,113.9 179.8,105.5 186.2,99.5 190.6,95.9 193.0,93.9 188.2,93.1 188.2,93.1" style="animation:draw 0.29s linear 0.29s forwards;" /><polyline points="57.3,119.2 56.9,124.8 56.9,130.0 56.5,135.2 56.5,141.2 56.1,146.9 56.1,152.5 55.7,158.1 55.7,162.9 55.7,167.3 55.7,171.8 55.7,176.2 55.7,180.2 55.7,183.8 55.7,186.6 56.5,189.0 58.1,192.6 60.6,195.9 62.6,197.5 64.6,199.1 67.0,200.7 69.4,201.5 71.8,201.9 74.6,202.3 77.4,202.7 80.2,203.1 83.0,203.1 85.4,202.7 87.9,200.7 87.9,197.5 88.3,194.2 89.1,189.8 93.1,172.6 93.9,166.1 94.3,160.1 94.3,155.7 94.3,151.7 94.3,147.3 93.1,142.1 91.9,137.6 91.1,134.4 90.7,132.4 89.5,128.4 89.1,126.4 88.3,124.4 86.2,121.6 83.8,120.0 81.0,118.4 77.4,116.8 75.4,116.0 73.4,115.2 71.0,114.8 68.2,114.3 66.2,114.3 64.2,114.3 63.4,115.2" style="animation:draw 0.29s linear 0.57s forwards;" /><polyline points="57.3,182.6 60.1,183.8 62.6,183.8 64.6,183.8 67.0,183.8 70.6,183.8 73.4,183.8 76.2,183.8 78.2,184.6 81.4,185.8 83.4,186.6 87.9,185.4 87.9,185.4" style="animation:draw 0.29s linear 0.86s forwards;" /><polyline points="116.4,134.0 118.0,137.2 118.0,141.2 118.0,145.3 118.0,148.9 118.0,152.5 118.0,156.1 118.0,159.7 118.0,164.5 118.0,171.0 118.0,176.6 118.0,181.8 118.4,185.8 118.8,189.4 119.6,193.4 120.4,197.9 121.2,203.1 122.0,207.1 122.4,209.1 125.6,209.5 128.4,209.5 131.6,209.5 135.2,209.5 139.6,209.9 143.3,209.9 146.1,209.9 148.1,209.5 148.1,206.7 148.1,204.7 148.1,201.5 148.1,193.4 148.1,185.8 148.1,179.4 148.1,173.8 148.1,169.0 146.5,163.3 144.9,156.9 143.7,150.9 142.9,146.5 142.5,144.1 142.5,141.7 142.5,139.2 142.5,136.0 142.5,133.6 142.5,131.6 142.1,129.6 140.0,128.0 136.8,125.2 134.4,124.0 131.6,122.4 128.8,121.2 126.0,120.4 123.2,120.0 120.4,119.6 119.6,119.6" style="animation:draw 0.29s linear 1.14s forwards;" /><polyline points="111.5,189.0 115.6,189.4 118.0,189.4 121.2,189.4 124.0,189.4 127.6,189.4 130.8,189.4 133.6,188.6 135.6,188.2 138.4,189.0 141.2,189.4 147.3,189.8 158.5,189.8 158.5,189.8" style="animation:draw 0.29s linear 1.43s forwards;" /><polyline points="225.6,80.2 226.4,77.0 226.8,74.6 227.6,72.6 228.8,69.8 230.0,67.4 230.8,65.0 232.0,63.0 233.2,60.6 234.0,58.1 234.8,55.3 236.0,52.9" style="animation:draw 0.29s linear 1.71s forwards;" /><title>elephant #7</title></svg>