<?xml version="1.0" encoding="UTF-8"?>
<svg xmlns="http://www.w3.org/2000/svg" width="256" height="256" viewBox="0 0 256 256"><style>polyline{fill:none;stroke:#000;stroke-width:2;stroke-linecap:round;stroke-linejoin:round;stroke-dasharray:1000;stroke-dashoffset:1000}@keyframes draw{to{stroke-dashoffset:0;}}</style><polyline points="180.8,30.1 177.3,29.4 174.1,29.4 169.8,29.4 165.2,29.4 160.3,29.4 155.7,30.4 150.9,32.2 146.5,34.7 142.6,37.9 140.3,39.8 139.2,41.4 138.5,42.8 138.0,44.2 138.0,46.5 138.0,49.4 139.6,53.1 141.9,56.1 144.4,59.1 147.2,61.9 150.0,64.6 153.4,67.4 156.9,69.0 160.8,69.9 164.7,70.1 169.1,70.1 173.4,69.2 178.0,68.1 182.9,66.0 186.8,64.6 190.9,63.0 194.4,61.9 197.4,60.5 199.2,58.6 200.6,56.8 201.0,55.4 201.3,54.3 201.5,52.7 201.7,50.8 201.7,49.2 202.0,46.5 202.0,45.3 202.0,43.2 201.5,41.2 200.8,40.0 199.9,38.9 199.0,37.5 197.8,36.3 196.2,35.2 194.8,34.3 193.0,33.6 191.4,32.9 188.8,32.2 186.3,32.0 183.8,31.3 182.4,30.8 181.0,30.4 179.4,29.7 178.0,29.4 178.0,29.4" style="animation:draw 0.29s linear 0.00s forwards;" /><polyline points="177.8,45.5 179.0,46.2 180.3,46.2 182.4,46.2 184.7,46.5 187.9,46.9 190.7,47.4 193.2,48.1 195.7,48.8 198.0,49.4 200.1,50.4 202.2,51.3 203.6,52.4 204.9,53.6 205.9,55.2 206.3,56.3 206.8,58.4 207.0,60.0 207.2,61.2 207.5,62.8 207.9,65.1 207.9,66.9 208.2,68.1 208.2,69.2 208.2,70.8 208.2,72.2 208.2,73.6 208.2,75.2 208.2,77.3 208.6,78.7 209.5,80.7 210.0,82.3 210.5,83.9 210.7,85.8 211.2,87.6 211.4,88.8 212.3,90.8 213.0,92.7 213.7,93.8 214.1,95.2 214.8,96.4 213.0,97.1 210.5,97.3 208.2,97.8 206.3,98.2 204.7,98.4 203.6,98.4 202.0,98.4 200.1,98.4 199.0,98.0 198.5,95.9 198.3,94.3 197.8,92.5 197.6,90.6 197.4,89.0 197.4,87.2 196.9,85.3 196.9,83.0 196.7,80.7 196.7,79.1 196.4,77.3 196.4,75.4 196.2,73.8 196.0,72.0 195.7,69.9 195.1,68.1 194.6,66.0 193.4,63.5 192.1,60.5 190.5,57.7 189.1,56.1 187.9,54.7 185.9,53.1 184.5,52.7 183.1,52.4 181.7,52.2 180.6,52.2 178.7,52.2 177.1,52.4 176.0,52.4 175.5,52.9" style="animation:draw 0.29s linear 0.29s forwards;" /><polyline points="145.8,33.3 144.4,32.4 142.4,31.3 141.0,30.4 139.2,29.0 137.3,27.6 134.1,26.0 129.7,24.8 125.1,23.9 121.9,23.2 119.1,22.5 116.8,22.3 115.2,22.3 113.4,22.1 112.0,22.1 110.6,22.1 109.0,22.1 107.2,22.1 105.8,22.3 104.4,23.0 102.8,24.6 101.0,27.1 99.6,29.4 98.7,32.2 98.2,34.7 97.5,37.3 97.1,40.0 96.8,43.0 96.8,45.5 96.8,48.3 97.5,50.6 98.7,53.1 100.1,55.2 101.7,56.8 102.8,58.0 104.0,59.3 105.1,60.5 106.3,62.1 106.7,63.7 106.7,66.0 106.7,67.6 106.5,69.7 106.0,71.8 105.6,73.6 105.6,75.2 105.6,77.0 105.6,78.4 105.6,79.8 106.5,81.0 107.6,81.9 109.5,82.8 112.0,83.5 115.0,83.7 119.1,83.7 123.3,83.5 127.0,82.6 130.4,81.6 133.9,80.3 138.0,78.0 141.2,76.1 143.5,74.7 145.4,73.6 146.5,72.9 147.7,72.0 148.8,71.3 150.4,69.9 152.0,69.0 153.2,68.3 154.8,67.4 155.7,66.9" style="animation:draw 0.29s linear 0.57s forwards;" /><polyline points="196.4,35.0 198.3,33.8 199.4,32.4 200.6,31.3 202.4,30.1 204.5,28.7 207.5,27.4 209.5,26.4 211.8,25.5 214.4,24.4 216.4,23.5 219.0,22.5 221.3,21.6 224.0,20.7 226.1,20.2 227.3,20.0 228.4,20.0 229.6,20.0 231.4,20.5 233.2,22.5 234.2,23.9 235.1,25.5 235.8,27.4 236.0,29.4 236.0,30.8 236.0,32.4 235.8,33.8 235.1,35.0 234.4,36.1 233.0,37.3 231.4,38.4 229.6,40.5 228.2,42.3 226.6,43.9 225.4,45.1 224.7,46.2 223.8,47.6 223.1,48.8 222.7,51.1 222.7,52.4 222.4,54.0 222.4,55.2 222.4,56.3 222.4,58.0 222.4,59.1 222.4,61.2 222.4,63.0 222.4,64.6 221.3,65.1 220.1,65.3 217.1,65.3 215.5,65.3 214.1,65.3 212.5,65.1 211.2,64.6 210.2,63.9" style="animation:draw 0.29s linear 0.86s forwards;" /><polyline points="214.4,63.0 211.8,63.5 209.3,63.5 207.5,63.5 205.9,63.5 205.4,63.5" style="animation:draw 0.29s linear 1.14s forwards;" /><polyline points="98.0,51.3 96.1,50.4 94.5,49.7 93.4,49.4 91.8,49.0 89.0,48.8 86.7,48.8 83.3,48.5 80.0,48.5 75.9,48.5 72.7,48.5 69.2,48.5 66.0,48.5 62.6,48.5 59.1,48.8 55.7,49.0 52.4,49.4 49.4,50.1 47.1,50.8 45.3,51.7 43.5,53.4 41.6,55.4 40.0,57.5 38.6,60.0 37.7,62.3 37.3,65.1 36.8,67.2 36.8,69.7 36.8,72.9 36.8,75.2 36.8,78.4 36.8,81.4 36.8,84.6 36.8,88.1 36.8,91.3 37.3,94.3 37.7,97.3 37.9,100.1 38.2,102.8 38.6,104.9 38.9,107.2 39.1,109.5 39.3,111.8 39.6,114.5 40.0,116.4 40.7,118.5 41.6,120.3 43.0,121.7 44.8,122.8 46.9,123.7 49.4,124.2 52.4,124.4 55.4,124.4 58.4,124.4 61.2,124.2 63.0,124.0 64.2,123.3 65.3,121.7 65.3,118.9 65.5,115.5 65.5,111.6 65.5,107.2 65.3,103.3 64.9,100.5 64.4,98.7 63.9,97.5 63.9,99.4 64.6,102.1 65.3,104.7 66.0,107.6 66.7,110.4 66.9,113.2 67.6,116.2 68.1,118.9 69.2,121.4 70.6,123.5 72.2,125.4 74.3,126.7 76.1,127.2 78.2,127.2 80.3,127.2 82.6,126.7 84.9,125.8 87.2,124.7 89.5,124.0 91.8,123.1 93.6,122.6 95.0,121.9 96.1,121.2 97.5,119.4 98.0,117.8 98.0,115.7 98.0,112.5 97.3,108.3 96.6,104.2 96.4,100.1 96.4,96.8 96.4,94.8 96.4,93.4 96.4,96.4 96.8,100.7 97.3,105.6 97.8,111.1 98.2,116.4 98.9,121.2 99.8,124.4 100.7,126.0 102.8,126.7 104.2,126.5 105.8,125.6 107.2,124.4 108.3,123.7 109.9,123.3 111.3,123.1 113.4,123.1 115.5,122.8 117.3,122.4 119.1,122.1 121.0,121.7 122.6,121.2 124.0,120.3 125.1,119.1 126.7,116.6 128.1,113.6 129.3,109.9 130.2,106.0 132.3,98.7 132.9,96.1 133.2,94.8 133.4,93.6 133.2,95.7 133.2,97.3 133.2,99.4 133.4,102.4 133.6,105.3 134.1,108.6 134.6,111.8 135.2,114.8 135.9,117.1 136.4,118.9 136.9,120.3 138.0,121.7 139.2,122.1 140.3,122.8 141.5,123.3 142.6,123.5 144.4,123.5 146.5,123.5 148.6,123.5 150.7,123.3 153.0,123.3 155.3,123.3 157.3,123.3 159.4,123.3 161.9,123.3 163.8,122.8 164.9,122.6 166.3,121.7 167.9,120.3 169.3,118.2 170.0,117.1 170.7,115.5 171.6,113.2 172.3,110.6 172.7,107.9 173.2,106.0 173.9,103.7 174.4,101.4 174.6,99.6 174.8,97.1 175.0,94.8 175.5,92.9 175.7,90.8 175.7,88.8 176.0,86.5 176.2,84.4 176.4,82.8 176.4,81.4 176.7,79.8 176.7,78.4 176.7,77.0 176.7,75.2 176.7,73.6 176.7,72.2 176.7,71.1 176.7,69.7 176.9,69.0" style="animation:draw 0.29s linear 1.43s forwards;" /><polyline points="34.7,69.5 35.0,70.6 33.8,72.0 32.7,73.1 31.3,74.7 30.6,75.9 29.9,77.5 29.2,78.9 28.5,80.5 27.8,82.3 26.9,84.2 26.2,85.8 25.5,86.9 24.6,88.1 23.9,89.2 22.3,90.8 21.2,92.0 20.0,92.7 20.0,93.2" style="animation:draw 0.29s linear 1.71s forwards;" /><title>elephant #9</title></svg>