<?xml version="1.0" encoding="UTF-8"?>
<svg xmlns="http://www.w3.org/2000/svg" width="256" height="256" viewBox="0 0 256 256"><style>polyline{fill:none;stroke:#000;stroke-width:2;stroke-linecap:round;stroke-linejoin:round;stroke-dasharray:1000;stroke-dashoffset:1000}@keyframes draw{to{stroke-dashoffset:0;}}</style><polyline points="117.8,48.5 113.8,51.1 110.1,52.9 105.2,54.6 103.5,55.1 100.2,56.0 97.8,56.8 95.7,57.5 93.4,58.3 92.3,58.5 90.6,58.9 89.8,59.0 89.9,59.9 91.0,63.0 91.6,65.0 92.8,68.4 93.5,70.3 93.9,72.1 94.5,73.9 95.0,75.0 95.7,76.1 102.2,75.3 110.5,71.7 115.3,70.2 118.6,69.8 121.7,69.4 123.6,69.3 124.4,68.9 125.4,67.8 126.1,67.2 127.0,66.1 128.1,65.3 128.9,64.6 129.0,63.1 129.0,61.9 128.8,60.7 124.3,53.8 122.6,51.4 121.2,49.3 120.4,48.3 119.5,47.4 119.5,47.4" style="animation:draw 0.15s linear 0.00s forwards;" /><polyline points="145.5,75.3 142.2,73.9 137.5,72.3 132.5,70.8 128.5,68.3 124.4,65.9 121.4,62.6 118.1,58.4 117.6,53.6 117.4,45.4 119.6,38.9 122.8,34.4 128.0,30.0 132.2,28.8 140.0,27.4 146.8,28.0 152.7,29.0 158.9,31.5 162.3,34.7 165.4,40.0 165.8,45.5 164.9,50.8 162.6,56.8 159.2,60.6 153.9,65.6 149.1,68.8 145.3,70.4 145.3,70.4" style="animation:draw 0.15s linear 0.15s forwards;" /><polyline points="137.8,37.7 138.8,37.0 148.7,29.1 155.5,24.5 158.5,23.0 162.5,20.7 163.8,20.0 164.1,22.4 164.8,25.5 165.5,29.1 166.1,33.7 166.3,36.7 165.4,41.1 163.0,44.4 159.1,47.4 153.3,50.2 149.2,50.9 144.9,51.5 144.9,51.5" style="animation:draw 0.15s linear 0.31s forwards;" /><polyline points="132.4,41.2 131.8,42.8 131.4,41.7 131.5,39.9 132.5,38.9 134.1,38.3 135.2,39.4 134.9,40.7 133.7,42.9 131.9,44.0 129.2,44.6 127.9,43.5 127.8,41.4 127.8,41.4" style="animation:draw 0.15s linear 0.46s forwards;" /><polyline points="142.7,74.0 150.2,75.3 158.7,76.6 167.9,77.4 179.1,78.1 189.5,78.4 203.5,76.6 212.2,72.7 216.6,68.2 218.5,62.9 217.9,59.9 214.5,56.0 209.5,53.6 203.5,51.5 197.5,49.9 192.3,49.3 185.3,49.0 180.3,49.1 172.4,49.8 166.9,50.6 164.5,51.1 164.5,51.1" style="animation:draw 0.15s linear 0.62s forwards;" /><polyline points="209.1,57.7 210.7,57.0 215.9,53.6 224.6,47.9 231.6,42.5 231.6,42.5" style="animation:draw 0.15s linear 0.77s forwards;" /><polyline points="163.5,78.1 163.5,79.2 163.3,84.8 162.6,92.1 161.6,99.2 160.6,103.7 160.6,103.7" style="animation:draw 0.15s linear 0.92s forwards;" /><polyline points="192.0,77.2 192.7,78.6 193.8,84.1 195.8,94.1 197.2,101.7 197.2,101.7" style="animation:draw 0.15s linear 1.08s forwards;" /><polyline points="217.9,72.7 218.6,73.7 222.5,77.3 227.7,82.8 233.8,90.3 236.0,95.4 236.0,95.4" style="animation:draw 0.15s linear 1.23s forwards;" /><polyline points="204.9,70.1 205.7,71.3 206.4,75.8 207.1,82.8 207.5,91.5 207.6,96.5 208.0,103.0 208.4,107.3 208.5,111.7 208.3,115.7 208.1,117.6 208.1,117.6" style="animation:draw 0.15s linear 1.38s forwards;" /><polyline points="76.6,72.1 72.9,69.9 68.4,68.1 59.6,66.1 50.9,64.9 41.8,64.3 31.4,64.0 25.7,66.2 25.7,66.2" style="animation:draw 0.15s linear 1.54s forwards;" /><polyline points="72.3,76.3 68.7,77.2 62.8,79.2 55.0,82.6 46.2,88.3 39.1,95.4 29.3,107.7 23.2,119.2 20.0,128.6 20.0,128.6" style="animation:draw 0.15s linear 1.69s forwards;" /><polyline points="88.0,83.6 87.1,84.8 83.0,88.6 75.9,95.7 70.0,101.9 62.1,111.8 56.4,121.7 56.4,121.7" style="animation:draw 0.15s linear 1.85s forwards;" /><title>elephant #3</title></svg>