<?xml version="1.0" encoding="UTF-8"?>
<svg xmlns="http://www.w3.org/2000/svg" width="256" height="256" viewBox="0 0 256 256"><style>polyline{fill:none;stroke:#000;stroke-width:2;stroke-linecap:round;stroke-linejoin:round;stroke-dasharray:1000;stroke-dashoffset:1000}@keyframes draw{to{stroke-dashoffset:0;}}</style><polyline points="211.8,31.1 211.8,31.1" style="animation:draw 0.25s linear 0.00s forwards;" /><polyline points="209.5,33.5 212.3,35.3 214.6,38.1 217.4,41.4 219.7,43.7 222.5,46.5 224.4,48.8 226.2,51.6 227.6,53.9 227.6,56.2 227.6,59.9 227.6,62.3 227.6,64.6 227.6,66.9 227.6,70.6 227.6,73.9 228.1,76.7 228.1,79.5 228.6,82.7 229.5,86.0 230.0,88.7 230.9,91.1 232.3,93.9 233.2,96.6 234.6,99.0 236.0,101.3 233.7,102.2 231.4,103.1 229.0,104.1 226.2,104.5 223.5,105.0 222.1,102.7 222.1,100.4 221.1,98.0 219.7,94.8 218.8,92.5 217.9,89.2 217.4,86.9 216.5,84.6 216.5,81.3 215.1,78.5 214.2,76.2 212.8,73.9 211.4,71.6 209.1,70.6 206.7,72.5 204.4,74.3 202.1,76.7 199.8,78.1 197.4,79.5 195.1,80.9 192.8,81.8 190.5,82.2 188.2,82.7 185.8,82.7 183.5,82.7 181.2,82.2 179.3,79.9 178.4,77.6 178.4,77.6" style="animation:draw 0.25s linear 0.25s forwards;" /><polyline points="211.4,32.5 208.6,28.8 206.3,28.8 203.5,27.4 201.2,26.0 198.8,26.0 196.5,26.0 194.2,25.6 191.9,25.1 189.5,25.1 187.2,24.6 184.9,23.3 182.6,21.4 180.3,20.0 177.5,20.0 174.7,20.0 171.9,20.0 169.1,21.4 166.3,23.7 163.5,27.4 160.7,32.1 159.4,34.9 158.0,38.6 157.0,40.9 156.1,43.2 155.2,46.9 154.7,49.3 157.0,50.7 159.4,50.7 162.1,50.7 165.9,51.1 168.6,51.6 171.4,51.6 174.2,51.6 176.5,51.6 177.0,51.6" style="animation:draw 0.25s linear 0.50s forwards;" /><polyline points="164.9,29.3 162.1,27.9 159.4,27.4 156.6,26.5 154.2,26.0 151.5,25.1 148.7,24.6 145.4,24.2 143.1,23.7 140.8,23.7 138.0,23.7 134.7,23.7 131.9,23.7 128.2,23.7 125.0,24.6 121.7,25.1 118.9,26.5 115.7,27.4 112.9,28.4 110.6,29.3 108.3,30.2 105.9,31.1 103.1,32.1 100.8,33.0 98.0,33.9 95.7,34.4 93.4,34.9 91.1,35.8 88.7,36.3 86.4,36.3 83.6,36.3 80.9,36.3 77.6,36.3 75.3,36.3 72.5,36.3 69.7,36.3 67.4,36.3 64.6,36.3 61.8,36.3 59.5,37.2 57.2,38.1 54.4,39.5 52.1,40.9 50.2,43.2 49.3,46.0 48.3,48.3 47.4,50.7 46.9,53.4 46.5,56.7 46.5,59.0 46.5,61.3 46.5,64.1 46.5,66.5 46.5,69.2 46.9,72.5 46.9,75.7 47.9,78.5 48.3,81.3 48.3,85.0 48.3,87.8 48.8,90.6 49.3,93.9 49.3,97.1 49.3,100.4 49.3,103.6 50.2,107.3 50.2,111.0 50.7,115.2 51.1,118.0 51.1,120.8 51.6,124.1 51.6,126.8 52.5,129.6 53.4,132.4 56.2,133.3 58.6,133.8 60.9,134.3 63.7,134.3 66.0,134.3 68.3,132.9 68.8,129.6 68.8,126.8 68.8,123.6 68.8,119.4 68.8,117.1 68.8,114.8 68.8,112.4 68.8,108.7 68.8,105.5 68.8,102.2 68.8,98.5 68.8,95.7 68.8,92.5 68.8,89.7 68.8,87.4 68.8,86.9" style="animation:draw 0.25s linear 0.75s forwards;" /><polyline points="68.3,119.9 71.6,119.9 75.3,119.9 78.1,119.4 80.4,117.5 80.9,115.2 81.3,112.9 81.3,109.2 81.8,105.0 81.8,102.7 81.8,100.4 81.8,96.2 81.8,93.9 81.8,90.6 81.8,87.8 81.8,85.5 82.2,84.6" style="animation:draw 0.25s linear 1.00s forwards;" /><polyline points="80.9,83.6 83.6,83.6 87.8,84.1 90.1,84.6 92.5,85.0 94.8,85.0 98.0,85.5 101.3,85.5 105.0,85.5 108.3,85.5 111.5,85.5 114.8,85.5 118.0,84.6 120.8,84.1 123.6,83.6 125.9,83.2 128.7,82.7 131.5,81.8 134.3,80.9 136.1,84.6 136.1,88.3 136.1,90.6 136.6,95.3 136.6,98.5 136.6,101.3 136.6,105.0 137.1,108.3 137.1,111.5 137.1,114.3 137.1,117.1 137.1,119.4 137.1,122.2 140.8,123.1 144.0,123.6 146.3,123.6 149.6,123.6 151.5,120.8 151.9,116.2 151.9,108.7 151.9,102.7 151.9,99.0 151.5,96.6 151.5,93.4 151.0,90.6 151.0,88.3 151.0,85.5 150.1,82.7 150.1,80.4 150.1,78.1 150.1,78.1" style="animation:draw 0.25s linear 1.25s forwards;" /><polyline points="157.0,105.9 159.4,106.4 163.5,106.4 167.7,106.4 171.4,106.4 174.7,105.9 177.0,105.5 179.3,104.5 179.8,101.8 177.5,97.1 176.1,93.4 174.7,89.2 174.7,86.0 174.7,83.2 174.7,80.9 174.7,77.1 175.1,74.8 175.1,74.8" style="animation:draw 0.25s linear 1.50s forwards;" /><polyline points="40.9,46.9 34.4,45.1 29.8,45.1 24.6,47.9 21.4,51.6 20.5,53.9 20.0,58.1 21.4,62.3 23.7,63.7 27.0,64.6 31.1,64.6 35.3,64.6 38.6,64.6 41.4,62.7 45.1,59.5 47.9,58.1 49.3,57.6" style="animation:draw 0.25s linear 1.75s forwards;" /><title>elephant #6</title></svg>