<?xml version="1.0" encoding="UTF-8"?>
<svg xmlns="http://www.w3.org/2000/svg" width="256" height="256" viewBox="0 0 256 256"><style>polyline{fill:none;stroke:#000;stroke-width:2;stroke-linecap:round;stroke-linejoin:round;stroke-dasharray:1000;stroke-dashoffset:1000}@keyframes draw{to{stroke-dashoffset:0;}}</style><polyline points="137.7,22.6 135.2,21.0 132.1,21.0 129.0,20.5 126.0,20.0 121.9,20.0 118.8,20.0 116.2,20.0 113.2,20.0 110.1,20.0 107.0,20.0 103.4,20.0 100.4,20.0 97.3,20.0 93.2,20.5 90.1,21.5 86.5,22.0 83.5,23.1 80.4,24.1 77.8,25.1 74.8,26.7 70.2,30.2 66.1,33.8 63.5,35.4 58.9,38.9 54.8,42.5 52.8,45.1 49.2,48.7 46.1,52.8 43.5,57.4 40.5,62.5 39.5,65.0 38.4,68.1 37.4,71.2 36.9,75.3 35.9,79.4 35.4,83.5 34.8,87.6 34.3,90.6 34.3,94.7 34.3,98.8 34.3,102.9 34.3,107.0 34.3,110.6 34.3,114.2 34.8,117.3 35.9,120.3 36.9,123.4 37.9,126.0 38.9,129.5 39.5,132.6 41.0,137.2 43.5,140.8 46.6,145.4 48.7,148.0 53.3,152.1 56.3,154.1 59.4,156.2 63.0,158.7 66.6,160.2 70.2,162.3 73.2,163.8 77.3,164.9 80.4,165.9 84.5,167.4 86.0,167.9" style="animation:draw 0.50s linear 0.00s forwards;" /><polyline points="135.7,27.7 139.3,26.1 142.3,26.1 145.4,26.1 148.5,26.7 151.5,27.2 154.1,28.2 157.2,29.2 160.2,30.2 163.3,31.8 165.9,32.8 170.0,35.4 172.5,36.4 175.1,37.9 179.7,42.5 182.3,45.1 184.3,48.2 186.4,51.2 187.9,53.8 189.4,56.3 191.0,59.4 192.0,62.0 193.0,66.1 194.0,69.1 195.1,72.2 196.1,76.3 196.6,79.4 197.1,82.4 197.6,85.5 197.6,89.1 198.1,92.2 198.6,96.3 198.6,99.8 198.6,102.9 198.6,106.0 198.6,109.1 198.6,112.1 198.6,115.2 198.6,119.3 196.6,122.9 194.0,127.0 192.5,129.5 188.4,133.6 184.8,137.7 181.2,141.3 178.2,145.9 174.1,150.0 170.0,153.6 165.9,156.7 161.8,159.2 159.2,160.2 154.6,162.3 152.1,162.8 149.5,163.3 146.9,164.3 143.9,164.9 140.8,165.4 138.2,166.4 137.7,166.9" style="animation:draw 0.50s linear 0.50s forwards;" /><polyline points="89.6,164.3 90.1,167.4 90.1,171.5 90.1,174.1 90.1,176.6 90.1,180.7 89.6,183.3 89.6,185.8 89.6,189.4 89.6,192.0 89.6,195.1 89.1,197.6 89.1,201.2 89.1,204.3 89.1,207.3 89.1,210.4 89.1,213.0 89.1,215.5 89.1,218.1 86.5,219.6 84.0,220.1 81.4,221.2 78.4,221.2 75.8,221.2 72.2,221.2 69.6,221.2 67.1,221.2 64.0,221.2 61.5,220.1 58.4,218.6 55.3,217.1 52.2,214.5 48.7,211.9 45.6,208.9 42.5,206.3 39.5,203.8 36.4,200.7 34.3,198.1 32.3,195.1 31.3,197.6 28.7,200.7 26.7,203.2 25.6,206.3 25.1,208.9 24.6,211.4 24.6,214.0 24.6,217.1 25.1,219.6 27.7,221.2 30.7,223.2 33.8,224.2 36.9,225.8 40.0,227.3 42.5,228.3 45.1,228.8 47.6,228.8 51.2,230.4 53.8,230.9 56.3,231.4 59.4,231.9 63.5,231.9 67.6,232.9 71.7,233.4 75.8,234.0 79.4,234.5 83.0,235.0 86.0,235.5 89.6,236.0 92.7,236.0 95.8,236.0 98.3,236.0 100.9,236.0 103.9,236.0 107.0,235.5 110.1,233.4 113.2,230.9 115.7,228.3 118.3,225.3 120.8,222.2 122.4,219.1 123.9,215.0 124.4,212.5 125.4,209.9 125.4,207.3 126.0,204.3 126.0,199.7 126.5,195.1 127.0,190.4 127.0,184.8 127.0,180.2 127.0,176.1 127.0,172.5 126.5,167.9 124.9,164.9 123.4,162.3 121.9,161.8" style="animation:draw 0.50s linear 1.00s forwards;" /><polyline points="25.1,200.7 27.2,194.5 23.6,194.5 20.5,196.6 20.0,200.7 20.0,204.3 23.1,205.8 22.6,203.2 22.0,200.2 26.1,197.1 28.7,196.6 31.8,196.1 33.8,196.1" style="animation:draw 0.50s linear 1.50s forwards;" /><title>elephant #5</title></svg>