<?xml version="1.0" encoding="UTF-8"?>
<svg xmlns="http://www.w3.org/2000/svg" width="256" height="256" viewBox="0 0 256 256"><style>polyline{fill:none;stroke:#000;stroke-width:2;stroke-linecap:round;stroke-linejoin:round;stroke-dasharray:1000;stroke-dashoffset:1000}@keyframes draw{to{stroke-dashoffset:0;}}</style><polyline points="102.1,79.6 100.8,82.1 99.8,84.2 98.1,87.5 95.0,91.7 91.0,97.1 86.4,101.6 82.1,105.4 78.9,108.2 75.6,110.4 72.8,111.7 69.8,113.2 66.5,114.5 62.4,115.2 58.1,115.7 53.6,115.7 49.3,115.7 44.5,115.2 40.7,114.0 36.9,112.2 33.1,109.9 29.3,106.4 26.8,103.6 24.5,100.1 22.8,96.5 21.8,93.8 21.3,89.2 21.3,84.7 21.3,80.4 22.0,76.1 23.3,72.5 24.5,70.0 26.1,68.0 27.6,66.2 29.6,64.7 31.6,62.9 33.6,61.4 35.9,60.4 37.9,59.9 40.0,59.4 41.7,59.2 43.2,59.2 44.5,59.2 46.0,59.9 47.3,60.7 48.5,62.2 50.3,64.5 51.1,66.0 51.6,67.2 51.8,68.5 52.1,69.8 52.1,71.0 52.1,73.3 52.1,74.8 51.3,76.6 50.6,78.4 49.6,79.9 49.1,81.9 48.3,83.4 47.8,85.4 47.5,86.9 47.3,89.0 47.3,90.5 47.5,92.5 48.8,93.8 50.8,94.3 52.1,94.5 54.9,94.5 56.9,94.3 58.9,93.5 60.9,92.3 62.9,91.0 64.7,89.7 66.7,88.2 68.0,87.2 69.3,86.2 70.3,84.9 71.5,83.4 71.3,82.1 71.3,83.9 71.3,85.2 71.3,86.9 71.0,89.2 70.3,91.0 69.5,92.5 67.5,95.0 66.2,95.8 61.4,98.8 59.2,99.8 56.6,100.8 51.1,102.6 48.3,103.1 45.8,103.4 43.2,103.6 41.0,103.6 36.9,103.4 35.2,102.4 33.6,101.1 32.4,99.1 31.1,96.8 30.1,94.3 29.9,91.0 29.9,87.5 30.1,81.1 30.9,78.4 31.4,75.8 31.9,72.8 32.4,70.8 31.1,70.8 29.9,72.0 28.3,74.3 26.1,77.1 22.5,81.9 21.3,84.4 20.0,89.0 20.0,90.7 20.0,93.8 20.0,95.0 21.8,97.6 23.0,98.8 26.1,100.8 27.8,101.9 29.9,102.9 34.1,104.9 36.4,105.6 42.0,106.7 44.5,106.9 50.8,107.2 53.6,106.9 56.9,106.4 62.9,103.6 65.7,101.9 71.0,97.8 73.6,95.5 77.9,91.0 80.1,88.0 81.9,85.4 86.9,76.6 88.7,73.6 90.0,71.0 94.8,64.2 96.0,62.4 97.1,60.9 98.3,58.9 99.3,57.6 98.8,56.1 98.6,54.9 98.3,52.3 98.3,49.6 97.6,46.0 97.3,43.7 97.3,40.7 97.3,39.5 97.6,37.9 101.1,32.1 103.4,30.1 109.4,25.6 112.7,23.8 119.0,21.8 122.3,21.0 129.1,20.3 132.4,20.0 141.3,20.8 145.6,22.3 148.1,23.5 151.6,25.8 153.1,26.8 155.2,29.9 155.9,31.4 156.7,33.9 156.9,35.4 156.9,37.7 156.9,38.9 155.4,41.5 153.9,43.7 153.4,45.0 153.1,47.3 152.9,49.3 152.6,50.6 152.6,52.1 152.4,53.6 152.4,54.9 152.9,56.1 154.4,57.4 155.7,58.1 160.7,58.7 162.5,58.7 168.3,58.9 173.3,58.9 176.1,58.9 185.0,58.9 188.3,58.7 198.6,57.9 201.9,57.6 210.2,57.6 212.3,58.1 214.8,58.9 221.3,62.4 222.6,63.5 225.6,66.2 227.2,67.7 231.2,72.0 232.2,73.8 234.2,79.4 235.0,81.1 235.7,86.9 236.0,88.7 235.0,94.3 234.2,96.0 233.7,97.6 230.9,102.4 229.9,103.6 225.1,108.2 223.9,109.4 221.9,110.4 216.5,113.2 213.3,113.2 211.7,113.2 205.7,112.7 204.4,112.7 201.9,111.7 200.9,114.2 200.9,115.5 200.9,120.8 200.9,123.6 201.1,125.3 201.4,127.1 202.1,132.7 202.9,135.2 202.9,137.0 202.9,138.5 201.1,139.2 198.9,139.7 187.5,140.8 185.7,140.8 183.5,140.5 183.7,138.7 183.7,132.2 183.5,129.9 182.9,121.6 182.9,120.3 182.7,116.5 182.7,114.7 180.7,114.5 179.2,114.5 170.8,114.7 169.3,115.0 167.8,115.2 169.3,126.4 169.3,128.6 169.3,137.2 169.3,138.5 169.3,141.3 168.0,141.3 165.3,141.3 160.0,141.3 155.9,141.3 153.9,141.3 153.6,138.0 153.6,135.7 155.2,124.1 155.7,121.8 155.9,114.0 154.4,113.0 146.1,113.0 143.0,113.0 130.9,112.7 125.9,112.0 124.3,111.5 119.3,110.2 118.0,109.7 118.0,111.2 114.5,134.7 113.7,137.0 113.5,138.5 112.5,143.8 109.7,143.8 108.4,143.8 106.4,143.8 92.0,144.0 90.2,144.0 90.5,139.7 91.0,137.2 93.8,128.1 94.3,126.9 96.3,116.8 97.3,113.0 95.8,112.5 88.7,113.7 87.5,114.0 84.2,129.6 83.9,131.9 82.7,139.7 81.4,139.7 72.8,136.7 68.0,135.7 66.7,134.9 72.3,121.6 74.1,117.8 78.9,100.3 78.9,99.1 78.9,99.1" style="animation:draw 2.00s linear 0.00s forwards;" /><title>elephant #8</title></svg>