<?xml version="1.0" encoding="UTF-8"?>
<svg xmlns="http://www.w3.org/2000/svg" width="256" height="256" viewBox="0 0 256 256"><style>polyline{fill:none;stroke:#000;stroke-width:2;stroke-linecap:round;stroke-linejoin:round;stroke-dasharray:1000;stroke-dashoffset:1000}@keyframes draw{to{stroke-dashoffset:0;}}</style><polyline points="180.2,51.1 180.2,52.7 180.8,54.5 181.2,56.1 181.5,57.9 182.4,61.3 183.3,63.8 184.5,67.1 185.5,69.0 186.1,71.1 187.0,73.0 187.6,74.5 188.9,77.6 191.0,81.0 192.9,82.9 194.7,84.4 196.3,85.6 199.9,87.2 202.4,87.8 204.0,88.4 205.8,88.4 207.3,88.7 209.5,88.7 212.3,87.8 214.7,86.9 216.3,85.9 217.8,85.3 219.4,83.8 220.9,82.6 222.8,81.0 224.3,79.5 225.8,78.2 227.4,76.7 229.2,75.8 230.8,75.8 232.3,77.3 233.8,78.9 235.1,80.7 235.7,82.2 236.0,84.1 236.0,85.6 236.0,87.2 234.5,88.1 233.5,89.6 231.7,92.4 230.5,94.6 229.5,96.1 228.0,98.0 226.4,99.5 224.3,101.3 222.8,102.9 221.2,103.8 219.7,104.7 215.7,105.7 214.1,106.0 212.0,106.3 209.8,106.3 206.4,105.7 204.9,104.7 202.7,104.1 201.2,103.8 199.3,103.5 196.9,102.6 195.3,101.3 193.5,100.1 189.8,97.6 188.5,95.5 186.1,91.8 184.5,89.9 183.6,88.4 182.1,86.6 180.8,84.4 178.1,79.8 177.1,78.2 176.5,76.4 175.9,74.8 175.3,72.1 174.1,68.7 173.1,65.6 171.6,62.2 170.7,60.1 170.1,57.9 169.4,56.4 168.8,53.6 168.5,53.0" style="animation:draw 0.67s linear 0.00s forwards;" /><polyline points="178.4,47.4 180.5,46.2 181.8,44.7 182.1,42.8 182.1,40.6 181.2,39.1 180.2,37.3 179.6,35.7 179.0,34.2 178.1,32.6 176.5,31.4 174.7,29.6 171.9,27.1 170.4,25.9 168.5,24.3 166.7,23.4 164.2,22.2 162.4,21.5 160.5,20.9 159.0,20.6 157.1,20.6 155.0,20.0 152.8,20.0 151.0,20.0 149.1,20.6 147.3,20.6 145.4,20.9 142.6,21.8 140.2,22.8 138.6,23.7 137.1,24.9 135.2,26.5 134.0,28.0 132.8,29.6 131.9,31.4 131.2,32.9 130.9,34.5 130.3,36.3 129.7,38.5 128.8,43.1 128.5,44.7 128.2,46.5 127.8,48.3 127.5,50.2 127.2,52.0 126.6,53.6 126.3,53.6" style="animation:draw 0.67s linear 0.67s forwards;" /><polyline points="170.4,58.8 168.2,57.6 166.4,57.3 163.6,57.6 162.0,58.2 160.5,59.1 157.7,62.5 157.1,64.4 156.5,66.5 156.2,70.5 156.2,72.1 155.9,74.8 155.9,76.7 155.9,78.5 155.9,81.0 155.9,82.9 155.9,84.4 156.8,89.3 157.1,91.2 157.4,93.3 157.7,95.5 158.4,97.3 159.6,102.9 160.5,105.4 162.0,110.0 163.0,112.4 163.9,114.6 164.8,117.7 165.1,119.8 165.1,121.4 165.1,122.9 165.1,124.5 164.2,126.3 163.3,128.2 160.2,130.6 158.4,131.2 156.8,131.5 155.3,131.9 153.7,131.9 152.2,130.6 152.2,132.2 150.3,132.8 148.5,130.9 148.2,129.4 147.9,127.5 147.6,125.4 147.3,123.8 146.6,122.0 145.7,120.1 145.4,118.6 144.8,117.1 143.6,115.2 142.6,113.7 135.5,104.4 131.2,100.1 128.5,98.3 126.9,97.6 125.7,99.2 125.1,100.7 124.5,102.6 124.5,104.1 123.8,112.1 123.5,114.0 122.9,116.8 122.3,119.5 121.4,121.1 120.5,123.5 118.9,126.0 118.0,127.5 116.1,129.7 114.6,131.9 112.4,134.3 106.6,135.2 104.7,133.1 103.8,131.5 103.5,130.0 103.5,127.5 103.5,125.1 104.4,122.9 104.4,119.8 104.4,116.4 104.4,112.4 103.8,107.5 104.1,99.5 103.5,101.0 102.9,103.5 101.7,105.7 99.5,108.4 97.6,110.9 96.4,112.4 94.0,114.9 92.1,116.1 89.9,118.3 87.5,121.1 80.7,126.9 75.8,129.7 73.0,130.9 69.9,131.2 68.1,131.2 66.5,131.2 65.0,130.0 63.4,129.1 62.2,127.5 61.6,125.4 59.4,111.2 59.1,108.4 58.8,106.3 58.8,104.1 60.7,102.9 61.9,101.0 63.4,100.1 65.3,98.9 67.5,97.0 65.9,98.0 64.4,99.5 62.5,101.3 61.0,102.9 58.8,104.4 52.0,110.0 49.9,111.2 47.1,113.4 45.3,114.3 41.3,115.5 38.8,116.1 33.6,116.1 30.5,114.6 27.4,112.7 23.4,109.4 21.5,107.5 20.6,104.7 20.0,102.3 24.6,94.0 27.1,92.4 28.6,92.1 30.8,91.5 32.3,91.2 35.7,90.6 37.3,89.9 39.1,89.6 42.8,88.1 45.3,86.6 46.8,85.0 48.7,81.9 49.3,77.9 49.3,74.2 47.7,70.2 46.5,67.8 45.0,65.0 38.5,58.5 38.2,57.0 39.1,54.2 43.1,50.2 45.3,49.0 48.0,47.7 52.4,46.5 55.1,45.9 60.1,45.6 64.1,45.6 70.8,46.8 93.0,54.2 96.4,55.1 100.7,56.4 103.8,57.3 106.6,57.9 109.4,58.2 112.1,58.5 115.5,58.5 118.6,57.9 120.1,57.9" style="animation:draw 0.67s linear 1.33s forwards;" /><title>elephant #10</title></svg>