<?xml version="1.0" encoding="UTF-8"?>
<svg xmlns="http://www.w3.org/2000/svg" width="256" height="256" viewBox="0 0 256 256"><style>polyline{fill:none;stroke:#000;stroke-width:2;stroke-linecap:round;stroke-linejoin:round;stroke-dasharray:1000;stroke-dashoffset:1000}@keyframes draw{to{stroke-dashoffset:0;}}</style><polyline points="81.7,28.6 77.4,27.9 73.8,27.2 68.8,27.2 64.5,27.2 59.5,27.2 55.9,27.2 50.1,27.2 45.1,30.0 40.8,32.9 37.2,36.5 35.1,40.1 32.9,43.7 31.5,47.3 30.0,53.7 28.6,58.8 26.5,68.1 25.0,73.1 24.3,77.4 22.9,83.1 21.4,93.2 21.4,101.1 21.4,108.3 20.7,112.6 20.0,116.9 24.3,114.7 28.6,111.9 32.9,110.4 36.5,109.7 40.1,109.7 44.4,109.7 52.3,112.6 56.6,116.9 60.2,118.3 65.9,118.3 70.2,118.3 73.8,117.6 75.3,117.6" style="animation:draw 0.25s linear 0.00s forwards;" /><polyline points="101.1,81.7 96.8,81.0 91.8,81.0 88.2,81.0 84.6,81.7 81.0,86.0 78.1,93.9 76.7,97.5 74.5,104.0 73.1,109.7 72.4,114.7 71.0,119.0 70.2,122.6 68.8,127.6 65.9,137.7 63.8,145.6 62.3,149.9 60.2,153.5 56.6,158.5 54.4,162.1 50.9,166.4 55.2,167.8 63.8,165.0 68.1,162.8 72.4,159.9 76.7,155.6 80.3,149.9 82.4,144.9 83.9,140.6 86.7,136.3 87.5,132.7 89.6,126.9 91.0,123.3 91.8,117.6 91.8,113.3 92.5,109.7 93.2,105.4 95.3,101.8 98.2,98.2 101.8,96.1 101.8,96.1" style="animation:draw 0.25s linear 0.25s forwards;" /><polyline points="91.0,27.9 94.6,25.0 98.2,24.3 105.4,21.4 111.9,20.7 117.6,20.0 121.2,20.0 125.5,20.0 129.1,21.4 131.9,25.7 134.1,29.3 135.5,33.6 136.3,37.2 136.3,40.8 136.3,41.5" style="animation:draw 0.25s linear 0.50s forwards;" /><polyline points="137.0,37.2 139.1,32.9 142.7,30.0 146.3,27.2 155.6,24.3 160.7,24.3 165.0,24.3 168.5,25.7 172.9,30.8 177.2,37.2 180.7,45.1 184.3,52.3 185.8,57.3 186.5,62.3 187.2,67.4 187.2,72.4 186.5,77.4 185.0,81.7 182.9,86.0 182.2,90.3 180.7,94.6 180.0,98.9 180.0,102.5 178.6,106.8 178.6,110.4 178.6,114.0 178.6,117.6 170.7,119.0 160.7,116.9 152.8,114.0 144.9,111.1 137.0,108.3 129.1,107.5 125.5,107.5 121.9,107.5 113.3,114.7 110.4,118.3 108.3,119.0" style="animation:draw 0.25s linear 0.75s forwards;" /><polyline points="108.3,65.2 108.3,65.2" style="animation:draw 0.25s linear 1.00s forwards;" /><polyline points="89.6,62.3 89.6,61.6" style="animation:draw 0.25s linear 1.25s forwards;" /><polyline points="110.4,63.1 111.1,63.1" style="animation:draw 0.25s linear 1.50s forwards;" /><polyline points="185.8,58.0 190.8,58.0 196.5,58.8 200.8,59.5 205.1,59.5 209.4,60.2 213.8,61.6 218.8,63.1 222.4,65.2 226.0,69.5 228.1,73.1 230.3,76.7 231.7,82.4 233.1,86.7 234.6,91.0 235.3,98.2 236.0,102.5 236.0,106.1 236.0,110.4 236.0,116.2 236.0,120.5 235.3,124.1 233.8,131.9 233.8,137.0 233.8,142.0 233.8,145.6 233.8,149.9 233.8,157.1 233.8,160.7 233.1,164.2 228.8,165.0 221.6,167.1 216.6,167.1 211.6,167.8 207.3,168.5 203.0,169.3 199.4,169.3 199.4,164.2 199.4,158.5 198.7,153.5 198.0,149.2 196.5,145.6 192.9,143.4 189.4,142.7 185.8,142.0 182.2,142.0 177.2,142.0 172.1,141.3 167.8,141.3 161.4,140.6 157.1,140.6 153.5,140.6 149.9,140.6 145.6,140.6 141.3,140.6 137.7,141.3 133.4,144.9 131.2,149.2 128.4,154.2 127.6,158.5 126.2,163.5 124.1,167.1 121.2,170.7 118.3,174.3 114.7,175.0 109.7,173.6 105.4,172.9 101.1,171.4 97.5,170.7 93.2,169.3 88.2,167.1 83.1,165.7 79.6,163.5 78.1,159.9 76.7,158.5" style="animation:draw 0.25s linear 1.75s forwards;" /><title>elephant #4</title></svg>