<?xml version="1.0" encoding="UTF-8"?>
<svg xmlns="http://www.w3.org/2000/svg" width="256" height="256" viewBox="0 0 256 256"><style>polyline{fill:none;stroke:#000;stroke-width:2;stroke-linecap:round;stroke-linejoin:round;stroke-dasharray:1000;stroke-dashoffset:1000}@keyframes draw{to{stroke-dashoffset:0;}}</style><polyline points="117.2,75.6 113.6,72.1 106.2,70.3 99.2,69.8 92.0,70.5 85.3,72.7 79.6,77.8 74.5,83.0 69.7,90.8 66.9,100.0 66.1,109.3 67.9,115.5 74.3,120.7 82.0,123.7 92.4,125.6 102.6,125.4 110.5,120.7 116.6,113.0 121.7,105.1 124.4,97.1 125.6,90.4 124.2,85.3 119.5,81.8 113.8,78.3 106.5,76.4 103.0,75.1 103.0,75.1" style="animation:draw 0.20s linear 0.00s forwards;" /><polyline points="105.6,82.9 107.9,79.6 111.3,76.8 116.6,73.3 124.6,69.9 132.9,69.3 139.6,70.2 143.4,71.3 146.8,74.2 149.6,78.4 152.0,85.8 153.2,95.0 152.6,103.6 149.9,111.5 145.2,118.3 139.3,121.6 134.1,123.8 128.6,123.9 125.5,124.5 119.8,124.5 117.0,124.5" style="animation:draw 0.20s linear 0.20s forwards;" /><polyline points="90.6,72.2 88.8,68.2 85.6,64.8 81.6,62.0 78.1,60.8 72.5,59.7 65.5,59.3 58.7,59.6 51.8,62.1 45.7,67.2 40.0,73.1 36.0,77.7 34.9,82.8 33.7,88.1 34.0,93.6 35.9,97.2 40.3,100.5 43.9,103.2 43.9,103.2" style="animation:draw 0.20s linear 0.40s forwards;" /><polyline points="88.2,110.4 83.2,110.9 79.5,110.4 75.1,110.4 71.1,110.9 66.5,113.7 62.1,117.0 57.4,121.9 55.7,125.1 52.7,131.8 50.5,138.1 48.5,144.3 46.9,150.4 45.1,157.9 42.9,164.5 39.9,168.9 35.2,172.9 29.5,175.3 24.4,175.7 20.0,175.7 23.1,182.1 26.8,184.7 34.3,188.1 41.2,190.1 47.3,191.3 53.2,191.8 56.3,191.7 60.2,188.0 62.2,184.2 63.5,181.2 64.1,176.6 64.0,170.5 64.0,163.9 63.3,159.3 62.6,156.3 62.1,152.0 61.5,147.3 60.9,142.8 62.7,136.0 65.3,132.4 70.3,128.5 76.0,124.5 82.0,122.1 85.1,120.8 90.6,119.6 91.8,119.2" style="animation:draw 0.20s linear 0.60s forwards;" /><polyline points="144.8,81.4 150.9,78.4 155.4,76.5 163.4,74.4 176.7,73.0 191.0,72.6 199.9,72.7 209.3,77.0 216.2,81.8 221.4,87.9 224.7,95.4 226.1,101.4 227.0,109.5 225.8,115.9 224.7,122.1 224.1,125.2 224.1,125.2" style="animation:draw 0.20s linear 0.80s forwards;" /><polyline points="97.9,132.7 97.9,141.0 99.2,150.4 103.0,163.0 110.8,182.0 115.3,188.9 122.0,193.8 130.7,197.3 143.6,199.4 158.3,200.5 176.3,199.1 191.3,188.5 201.3,174.8 209.1,164.2 219.1,146.7 225.2,134.4 230.0,117.5 230.6,111.7 230.9,100.5 230.9,93.6 228.8,88.3 226.0,85.2 220.9,81.5 216.6,78.5 216.6,78.5" style="animation:draw 0.20s linear 1.00s forwards;" /><polyline points="107.1,159.1 102.6,163.4 95.4,174.2 86.7,187.5 80.2,196.8 75.2,201.3 70.0,206.1 64.8,210.6 62.1,213.5 70.3,215.0 78.7,216.3 87.0,218.1 91.8,218.7 94.7,218.8 98.8,218.8 101.1,214.6 103.1,209.3 107.1,200.3 122.1,171.8 124.3,169.7" style="animation:draw 0.20s linear 1.20s forwards;" /><polyline points="186.9,185.2 187.7,189.9 193.4,198.6 195.4,202.2 197.5,205.3 199.9,209.5 204.7,205.3 210.3,203.0 218.1,200.7 225.3,199.7 229.2,199.1 233.3,198.0 235.6,194.1 236.0,188.1 235.8,183.0 233.5,179.3 229.6,175.4 223.1,170.1 216.8,165.7 212.0,162.5 207.3,159.1 207.3,159.1" style="animation:draw 0.20s linear 1.40s forwards;" /><polyline points="224.6,87.2 229.2,84.6 231.0,81.2 232.7,76.0 233.7,68.1 232.1,59.7 227.9,51.4 222.8,45.3 218.2,42.4 213.7,39.6 213.7,39.6" style="animation:draw 0.20s linear 1.60s forwards;" /><polyline points="214.4,43.7 212.3,40.1 207.5,37.8 199.5,34.6 190.4,32.1 182.4,31.0 178.4,31.1 184.7,33.4 195.1,35.6 208.3,36.7 218.0,37.1 226.0,37.2 230.8,36.5 227.8,29.7 215.6,24.2 202.1,21.2 190.5,20.6 180.6,20.0 180.6,20.0" style="animation:draw 0.20s linear 1.80s forwards;" /><title>elephant #1</title></svg>