<?xml version="1.0" encoding="UTF-8"?>
<svg xmlns="http://www.w3.org/2000/svg" width="256" height="256" viewBox="0 0 256 256"><style>polyline{fill:none;stroke:#000;stroke-width:2;stroke-linecap:round;stroke-linejoin:round;stroke-dasharray:1000;stroke-dashoffset:1000}@keyframes draw{to{stroke-dashoffset:0;}}</style><polyline points="28.2,82.2 26.6,84.7 24.7,89.6 22.5,97.3 20.5,106.3 20.0,115.4 20.0,123.6 20.5,130.2 22.5,135.9 24.1,138.7 25.8,139.8 27.4,140.3 30.4,140.3 34.0,139.8 39.2,136.5 43.3,131.3 47.1,125.3 49.9,118.4 52.3,110.7 54.0,103.6 54.3,98.4 54.8,92.4 54.8,88.8 54.8,86.6 54.0,85.2 52.6,84.1 52.6,85.5 55.4,86.3 57.6,86.3 61.1,86.6 65.2,86.9 69.3,87.2 74.5,87.2 79.2,87.7 84.7,88.0 89.9,88.0 95.7,88.0 101.1,88.0 105.8,88.3 109.9,88.3 113.5,88.5 115.7,89.1 117.3,89.6 116.2,92.6 114.0,96.5 111.8,101.4 110.2,106.6 108.8,112.4 108.0,118.4 107.4,124.4 107.4,130.2 107.4,134.0 108.0,137.3 110.7,140.1 112.9,140.3 116.8,140.3 120.6,140.3 125.3,138.7 129.9,135.1 134.0,130.7 137.6,125.3 139.8,118.4 140.6,112.9 140.9,106.9 140.9,101.4 140.6,98.1 139.2,94.6 138.7,92.9 138.1,92.9" style="animation:draw 0.40s linear 0.00s forwards;" /><polyline points="23.6,82.2 23.6,80.6 23.8,78.4 24.7,76.2 25.2,74.0 26.0,72.1 26.3,70.2 27.1,68.2 27.7,65.8 30.7,57.6 33.4,53.2 34.8,51.5 36.7,50.2 38.6,48.8 43.6,45.5 46.6,44.1 49.6,42.8 52.1,42.2 57.6,41.1 60.6,40.6 67.4,39.5 71.0,39.2 74.3,38.9 77.3,38.9 80.6,38.9 83.6,38.9 86.9,39.7 89.6,40.6 91.5,41.4 93.7,42.5 95.1,42.8 96.8,42.8 99.8,42.8 102.8,41.4 111.8,37.5 114.0,36.7 118.7,34.5 120.9,33.2 125.8,29.3 128.0,27.9 131.6,25.5 134.0,24.1 136.5,23.0 142.0,21.1 144.4,20.5 146.9,20.0 149.4,20.0 151.8,20.0 156.8,21.6 159.2,23.6 162.5,27.9 163.6,30.7 165.3,36.7 165.8,40.3 166.9,46.9 166.9,49.3 166.6,57.0 165.6,61.4 163.1,68.0 161.7,70.7 159.5,73.2 150.8,80.6 147.2,82.2 139.5,85.2 135.1,86.6 125.5,89.9 121.4,90.7 114.0,91.5 111.8,91.5 109.4,91.0 109.4,91.0" style="animation:draw 0.40s linear 0.40s forwards;" /><polyline points="119.8,33.7 117.9,34.8 114.3,37.0 110.2,39.2 106.3,41.4 103.3,42.8 100.0,44.1 96.5,46.0 84.7,64.4 84.7,68.0 84.7,74.8 86.1,78.1 91.5,84.1 95.4,86.9 105.5,89.4 109.1,89.4 116.2,89.4 119.5,89.4 125.5,88.5 126.1,88.3" style="animation:draw 0.40s linear 0.80s forwards;" /><polyline points="142.5,29.9 138.4,31.8 135.9,34.0 131.3,40.0 130.7,43.0 131.0,48.2 133.2,49.6 141.2,50.7 147.7,49.1 159.8,39.2 160.1,37.5 156.5,34.3 152.9,32.3 149.9,31.5 142.8,31.2 142.5,32.1" style="animation:draw 0.40s linear 1.20s forwards;" /><polyline points="167.2,47.4 171.0,47.4 175.1,47.4 180.1,48.2 189.1,51.2 190.5,52.3 191.3,53.7 191.6,56.2 191.9,58.6 189.7,74.8 189.1,78.7 188.6,88.8 188.6,90.4 188.9,92.1 189.9,94.3 205.0,107.4 209.4,107.7 219.8,106.3 221.2,105.8 222.8,105.2 226.1,105.5 228.1,106.3 230.2,108.0 235.2,115.7 235.7,117.9 236.0,119.8 235.2,126.4 234.9,127.7 234.4,129.4 233.0,131.0 231.6,132.4 225.6,134.9 223.9,134.9 217.9,134.3 215.2,133.5 209.1,130.5 207.2,129.4 201.2,123.9 199.3,121.7 194.1,115.4 192.7,113.5 186.7,105.0 183.6,101.4 182.0,99.5 180.6,98.4 174.9,89.1 173.0,86.6 171.3,85.0 160.3,79.8 157.1,79.8 157.1,79.8" style="animation:draw 0.40s linear 1.60s forwards;" /><title>elephant #2</title></svg>