<?xml version="1.0" encoding="UTF-8"?>
<svg xmlns="http://www.w3.org/2000/svg" width="256" height="256" viewBox="0 0 256 256"><style>polyline{fill:none;stroke:#000;stroke-width:2;stroke-linecap:round;stroke-linejoin:round;stroke-dasharray:1000;stroke-dashoffset:1000}@keyframes draw{to{stroke-dashoffset:0;}}</style><polyline points="114.6,20.3 113.0,20.0 110.8,20.0 108.9,20.0 106.3,20.0 104.1,20.0 102.2,20.0 100.6,20.3 98.7,21.0 95.5,22.2 93.9,22.9 91.4,24.1 88.8,25.1 86.9,26.4 85.3,28.0 83.7,29.6 83.1,31.2 81.8,33.7 80.5,35.6 79.6,37.8 78.6,39.4 78.3,41.0 78.3,42.6 78.0,45.2 77.7,46.8 77.0,48.7 76.7,50.3 76.7,52.2 76.4,54.1 76.1,56.6 75.8,58.5 75.8,61.1 75.1,63.3 74.2,66.5 73.8,68.1 73.5,69.7 73.5,71.3 71.9,74.5 71.3,76.4 71.0,78.3 70.3,80.2 70.0,82.1 69.1,85.3 68.4,86.9 68.1,88.5 67.2,90.4 66.2,92.0 65.6,94.2 64.6,95.8 63.6,97.7 62.1,100.3 60.5,103.2 59.5,105.1 57.3,107.9 55.4,110.8 53.1,112.1 51.5,112.7 49.9,113.0 47.4,111.4 44.5,109.5 41.7,107.6 39.4,105.7 37.2,103.8 34.7,100.9 33.1,98.4 32.1,96.8 30.5,94.9 29.9,93.3 28.0,90.7 27.0,88.8 26.4,87.2 25.7,85.0 24.8,83.1 23.5,80.5 22.9,78.6 21.3,75.1 21.0,73.5 20.0,71.9 20.0,73.5 20.0,75.8 20.0,77.7 20.0,79.6 20.0,81.5 20.0,83.7 20.0,86.3 20.6,89.1 20.6,91.0 21.3,93.6 21.6,96.1 22.2,98.1 22.9,100.0 23.2,101.9 24.1,104.1 25.4,107.3 25.4,108.9 26.7,111.4 28.6,114.3 28.6,115.9 30.8,118.8 32.4,121.0 35.0,123.9 36.6,125.5 39.4,128.0 42.0,129.9 43.6,130.2 45.5,130.9 47.4,131.2 51.2,131.8 54.1,131.8 56.6,131.8 59.2,131.8 62.4,131.8 64.9,131.2 68.4,130.5 72.6,129.3 75.8,128.3 78.0,127.4 80.8,125.8 83.7,124.5 85.3,122.6 86.9,121.3 87.9,119.4 89.1,117.5 90.1,115.6 91.4,114.0 93.0,111.1 93.6,108.6 95.5,106.3 96.8,104.7 99.3,102.5 100.9,100.6 102.2,103.2 102.5,105.7 102.5,107.9 102.5,111.1 101.6,114.6 101.2,118.1 100.6,122.6 100.0,127.0 98.7,131.2 98.1,135.6 96.5,139.8 94.9,144.9 94.2,148.7 93.3,153.2 91.7,157.6 89.8,161.8 88.8,165.3 87.9,168.8 86.6,171.3 85.0,173.6 84.4,176.4 82.8,178.3 81.2,179.9 78.9,181.5 77.0,182.8 74.8,184.4 72.6,185.3 70.0,186.3 67.5,187.3 64.9,187.9 62.7,188.5 60.8,189.2 58.9,189.8 56.0,190.8 53.1,191.4 51.5,191.7 49.9,192.7 51.9,192.0 53.8,191.4 56.6,191.4 59.5,190.8 63.0,190.4 67.8,189.5 73.5,188.8 79.6,187.9 87.2,186.6 91.0,185.3 95.2,184.1 99.6,182.8 103.5,180.9 107.3,179.6 110.8,178.7 112.4,177.4 114.6,176.4 117.5,173.6 119.1,171.6 121.9,168.8 123.5,166.2 125.5,164.0 127.4,161.1 129.6,157.0 132.1,153.2 134.7,149.0 136.3,145.2 138.5,141.4 141.4,137.2 142.7,132.5 144.2,128.0 145.8,124.5 147.1,120.4 148.4,116.8 149.0,113.3 149.7,110.2 149.7,107.0 150.0,104.7 150.0,108.6 149.7,110.5 149.0,113.3 148.7,115.9 148.4,119.4 147.4,122.9 146.5,126.7 145.5,131.8 145.2,136.6 144.2,141.1 143.9,145.8 143.3,150.6 144.2,158.6 145.2,164.3 145.5,169.1 145.5,173.2 145.8,178.3 146.2,182.5 146.2,186.6 147.4,190.1 147.4,193.9 147.8,197.5 148.7,201.0 149.3,203.8 149.3,205.4 149.3,207.0 149.3,209.2 151.6,207.6 152.8,206.1 156.0,203.2 157.3,201.0 158.9,199.0 160.8,196.8 162.4,195.2 163.7,193.0 164.6,190.1 165.6,187.9 166.9,186.0 167.5,183.8 168.8,181.2 169.1,179.6 170.1,176.4 170.7,173.2 171.3,170.4 172.6,167.8 173.9,165.0 176.4,159.5 177.7,156.4 179.0,153.5 179.9,151.3 180.2,148.4 180.9,146.8 181.2,145.2 181.5,143.3 180.9,146.2 179.6,148.7 179.6,150.6 178.7,152.8 178.0,155.7 177.7,158.3 177.4,160.8 177.4,163.7 177.7,166.2 178.0,169.4 178.0,172.0 179.3,174.8 179.9,177.4 181.2,180.2 183.1,182.5 184.4,184.7 185.7,186.6 186.9,188.8 188.2,190.4 189.8,193.0 191.4,194.3 193.0,195.5 195.5,197.1 198.7,198.7 201.3,199.4 203.5,200.3 205.7,201.0 208.3,201.6 210.2,202.2 212.7,202.5 213.4,200.3 212.7,198.4 212.1,196.8 211.5,195.2 209.9,192.7 208.9,190.8 207.3,187.9 205.1,184.7 203.2,181.2 200.0,176.7 198.1,173.2 195.5,168.8 193.6,165.6 192.0,162.4 190.8,159.2 188.8,154.8 187.9,151.3 186.9,148.1 186.0,143.9 184.1,140.4 182.5,136.6 181.5,133.7 180.9,131.2 180.2,128.6 179.6,126.4 179.3,124.5 178.7,122.6 178.0,119.4 178.0,117.5 177.7,115.3 177.7,113.7 177.4,111.4 176.7,108.6 176.7,107.0 176.4,104.1 176.1,101.2 175.8,98.4 175.5,91.7 175.5,89.5 175.5,86.9 175.2,84.4 174.8,82.4 174.8,80.2 176.1,81.8 177.4,84.4 179.0,87.2 180.6,90.4 182.5,93.6 184.4,96.5 185.7,98.7 187.6,101.6 189.8,104.4 192.0,107.0 193.9,108.9 195.9,111.1 197.5,112.7 199.7,114.3 201.9,115.3 203.8,116.5 206.4,117.8 209.2,118.4 211.2,119.4 213.7,120.4 216.9,121.6 218.8,122.6 222.0,123.9 224.5,124.8 227.1,125.8 229.3,126.4 231.2,127.0 234.1,128.0 236.0,128.3 235.7,126.4 233.5,124.2 230.9,122.3 229.0,120.4 226.1,118.1 224.2,116.5 221.3,114.3 218.8,112.1 216.2,109.5 213.4,106.7 210.8,103.8 208.6,100.9 206.4,98.1 203.8,94.9 201.9,91.7 200.0,88.8 198.1,86.6 196.5,83.1 195.5,80.8 190.8,72.6 189.2,69.7 188.2,67.2 186.3,64.6 185.0,61.7 184.1,59.5 182.2,57.0 180.2,54.4 179.3,51.9 177.7,50.3 175.8,48.4 173.9,45.8 172.6,44.2 171.0,43.3 168.5,41.0 166.9,39.8 165.3,38.8 162.7,37.8 161.1,37.2 159.5,36.2 157.9,35.6 155.4,34.7 153.5,34.0 151.6,33.1 149.7,32.7 147.4,32.1 144.9,31.2 142.7,30.8 139.8,30.5 137.2,30.2 135.0,29.9 132.5,29.6 130.9,29.2 128.6,28.9 126.7,28.9 124.2,28.6 122.6,28.3 120.7,28.0 118.8,28.0 117.2,27.6 114.3,27.3 112.1,27.0 110.5,26.7 108.6,26.4 106.0,26.1 103.5,25.7 101.2,25.4 98.1,25.1 96.1,24.8 94.5,24.8" style="animation:draw 2.00s linear 0.00s forwards;" /><title>octopus #2</title></svg>