<?xml version="1.0" encoding="UTF-8"?>
<svg xmlns="http://www.w3.org/2000/svg" width="256" height="256" viewBox="0 0 256 256"><style>polyline{fill:none;stroke:#000;stroke-width:2;stroke-linecap:round;stroke-linejoin:round;stroke-dasharray:1000;stroke-dashoffset:1000}@keyframes draw{to{stroke-dashoffset:0;}}</style><polyline points="189.0,20.0 186.8,20.0 185.0,20.0 181.8,20.0 177.5,20.0 172.1,20.0 161.7,20.0 151.3,21.1 146.3,23.2 139.8,26.5 133.7,29.3 126.9,33.3 111.9,41.5 106.1,45.5 100.0,49.4 96.1,52.3 92.5,55.9 87.5,60.5 85.3,65.2 84.2,70.2 83.9,72.7 83.9,75.6 83.9,81.0 83.9,84.2 84.6,87.5 86.4,91.0 90.3,97.5 92.1,100.7 95.0,104.7 98.2,107.9 107.2,116.5 111.1,119.0 114.7,121.5 122.6,125.1 126.2,127.6 134.5,131.2 142.4,134.5 146.3,135.5 154.6,137.0 162.8,137.0 166.4,137.0 173.2,137.0 181.1,135.5 183.6,134.8 190.1,132.3 196.2,129.8 201.2,127.6 203.3,125.8 209.1,121.9 212.0,119.7 214.8,117.2 217.3,114.4 223.1,109.3 224.9,107.5 228.1,102.5 230.3,98.9 232.1,93.9 233.1,90.3 234.6,84.2 236.0,77.0 236.0,74.5 236.0,68.4 236.0,62.3 236.0,58.8 233.5,50.9 231.3,49.4 228.1,43.3 226.3,40.5 222.4,35.8 219.1,33.6 217.3,32.9 215.5,32.2 212.0,32.2 209.1,31.5 204.8,31.5 203.0,31.5 197.2,31.5 187.2,34.7 180.7,37.6 171.8,40.8 171.8,40.8" style="animation:draw 0.67s linear 0.00s forwards;" /><polyline points="124.8,126.2 123.0,125.8 120.5,125.8 117.6,125.8 115.8,125.8 112.6,125.8 109.7,126.9 105.4,130.9 104.0,133.7 100.4,139.5 97.9,144.1 97.1,145.9 94.6,149.9 92.1,153.8 90.3,156.7 88.2,161.0 86.4,164.2 84.2,166.4 81.0,169.3 79.2,171.1 73.5,174.3 71.3,175.4 67.4,177.5 63.4,178.6 55.5,180.7 51.6,182.2 43.3,182.5 36.1,183.3 31.8,183.6 25.4,183.6 20.0,183.6 21.8,185.0 25.4,186.1 29.3,187.2 31.5,187.9 34.4,188.6 36.9,189.0 39.0,189.4 40.8,189.4 44.0,189.7 46.9,189.7 52.3,189.7 58.0,189.7 60.9,189.4 67.4,187.9 69.9,187.2 74.5,185.0 79.6,181.8 82.8,179.7 88.9,176.4 91.4,174.6 98.6,170.0 101.1,168.5 105.8,165.3 107.9,163.9 110.4,161.4 111.9,158.9 114.7,154.2 116.5,151.0 118.7,147.4 119.7,145.6 120.8,143.4 123.0,139.5 124.1,137.3 125.5,135.2 127.3,133.0 128.0,131.9" style="animation:draw 0.67s linear 0.67s forwards;" /><polyline points="131.2,135.5 128.0,136.6 126.2,139.1 123.0,143.8 121.5,147.0 118.3,152.0 116.9,156.0 113.6,162.8 112.9,165.3 111.9,168.2 110.4,170.7 110.1,173.2 109.3,175.0 109.0,176.8 108.3,179.3 107.5,182.5 107.2,184.3 107.2,186.1 106.1,189.4 105.4,191.9 104.7,193.7 102.5,196.5 98.2,200.8 93.6,204.4 90.3,205.9 87.8,205.9 85.7,205.9 83.5,205.9 85.3,206.6 88.2,206.9 90.7,206.9 92.5,206.9 95.7,206.9 99.3,206.6 101.1,205.9 102.9,204.8 105.8,203.0 107.5,201.6 109.7,200.1 112.2,198.7 114.4,196.9 118.3,192.9 120.1,191.1 122.3,188.3 123.3,186.1 126.2,182.9 129.1,177.9 129.8,176.1 131.6,173.2 134.5,168.2 135.9,165.7 137.3,163.5 138.0,161.7 139.1,159.2 140.2,157.1 140.9,154.6 142.0,152.8 142.7,149.5 143.4,146.3 144.1,143.4 144.9,141.6 145.2,139.8 145.2,139.5" style="animation:draw 0.67s linear 1.33s forwards;" /><title>octopus #5</title></svg>