<?xml version="1.0" encoding="UTF-8"?>
<svg xmlns="http://www.w3.org/2000/svg" width="256" height="256" viewBox="0 0 256 256"><style>polyline{fill:none;stroke:#000;stroke-width:2;stroke-linecap:round;stroke-linejoin:round;stroke-dasharray:1000;stroke-dashoffset:1000}@keyframes draw{to{stroke-dashoffset:0;}}</style><polyline points="49.2,152.2 45.4,146.0 44.8,139.2 42.3,128.6 41.1,117.4 40.5,105.0 40.5,93.9 40.5,83.3 41.1,72.8 44.2,62.8 47.9,53.5 51.0,46.7 54.8,40.5 58.5,35.5 62.2,31.8 66.6,28.7 70.9,26.2 77.7,23.7 82.1,22.5 87.0,21.2 91.4,20.6 96.3,20.0 100.7,20.0 104.4,20.0 107.5,21.2 111.2,23.7 114.3,26.2 116.8,29.3 121.2,34.9 122.4,38.0 124.3,43.0 124.9,48.6 125.5,54.8 125.5,57.9 125.5,61.0 125.5,64.1 125.5,67.2 125.5,72.8 125.5,77.1 125.5,80.2 125.5,83.9 125.5,87.0 125.5,90.1 125.5,93.9 125.5,97.6 125.5,101.3 125.5,104.4 125.5,107.5 125.5,110.6 126.1,114.3 126.8,118.1 127.4,121.8 127.4,125.5 128.0,128.6 128.6,131.7 129.9,134.8 131.1,137.9 135.4,142.9 140.4,146.6 144.8,150.3 147.9,152.2 151.0,153.4 154.7,155.9 159.0,159.0 162.8,162.1 167.1,165.9 170.8,168.3 173.9,170.8 177.0,173.3 179.5,176.4 182.6,178.9 184.5,182.0 184.5,185.1 184.5,188.2 181.4,190.7 177.7,190.7 172.7,190.1 169.0,188.8 165.2,187.6 160.3,185.1 155.3,183.2 151.6,181.4 148.5,179.5 144.8,177.7 140.4,173.3 136.7,169.0 134.2,164.6 131.7,161.5 131.7,165.2 132.3,168.3 133.6,173.3 134.8,178.3 135.4,182.0 136.1,185.7 136.7,189.4 137.3,193.2 137.3,196.3 137.9,201.9 137.9,205.0 137.9,210.6 137.9,214.3 137.3,217.4 133.6,218.6 129.9,218.0 124.3,212.4 121.8,208.1 118.7,202.5 116.2,197.5 114.3,191.9 113.1,188.2 111.9,184.5 111.2,180.1 110.6,176.4 110.6,172.1 110.0,169.0 110.0,165.9 109.4,162.1 107.5,167.1 106.9,171.4 106.3,176.4 105.0,182.0 103.2,187.6 101.3,193.8 100.1,197.5 98.2,201.9 96.3,205.6 95.1,208.7 93.2,212.4 90.1,218.0 87.0,223.6 83.9,229.2 80.8,233.5 77.7,236.0 74.0,229.2 71.5,222.3 69.7,214.3 68.4,205.6 68.4,200.0 68.4,194.4 68.4,189.4 68.4,185.1 68.4,181.4 68.4,178.3 69.0,174.6 70.3,169.6 70.9,173.3 69.7,176.4 68.4,180.8 65.9,185.7 62.8,190.7 59.7,196.3 56.6,201.2 54.1,206.2 51.7,211.2 49.2,214.3 46.1,218.0 43.6,221.1 40.5,223.6 36.1,226.7 31.8,228.6 28.1,228.6 25.0,226.1 21.9,219.9 20.6,215.5 20.0,209.9 20.0,204.3 20.0,196.9 20.0,190.1 21.9,183.2 23.7,177.7 26.8,171.4 28.7,167.7 31.2,163.4 34.3,159.7 36.8,155.9 39.2,152.8 41.7,149.7 44.8,145.4 46.1,145.4" style="animation:draw 1.00s linear 0.00s forwards;" /><polyline points="65.9,43.6 66.6,48.6 66.6,54.1 66.6,57.2 66.6,62.2 66.6,65.3 66.6,65.3" style="animation:draw 1.00s linear 1.00s forwards;" /><title>octopus #6</title></svg>