<?xml version="1.0" encoding="UTF-8"?>
<svg xmlns="http://www.w3.org/2000/svg" width="256" height="256" viewBox="0 0 256 256"><style>polyline{fill:none;stroke:#000;stroke-width:2;stroke-linecap:round;stroke-linejoin:round;stroke-dasharray:1000;stroke-dashoffset:1000}@keyframes draw{to{stroke-dashoffset:0;}}</style><polyline points="100.8,74.7 95.3,70.9 91.6,63.3 90.5,49.0 91.4,45.3 100.6,30.5 105.5,26.4 109.0,24.4 114.3,22.0 126.0,20.0 130.5,20.0 134.5,21.0 149.7,30.8 151.5,34.3 153.0,38.3 156.1,50.2 156.3,57.1 155.7,62.2 154.6,67.2 146.6,78.3 146.6,78.3" style="animation:draw 1.00s linear 0.00s forwards;" /><polyline points="97.6,73.1 94.7,89.4 94.7,92.9 96.6,110.9 96.5,114.4 87.8,131.4 67.4,139.7 52.6,136.2 40.0,118.8 36.3,106.0 32.0,98.4 23.2,103.0 20.0,118.4 21.0,121.5 28.5,132.3 31.1,136.3 43.0,148.0 61.9,155.4 68.6,154.1 78.4,151.4 81.5,150.0 86.1,147.6 96.0,140.7 100.3,135.0 102.0,131.8 106.2,119.7 107.1,115.5 110.5,107.4 114.7,105.7 123.3,111.8 125.0,125.9 120.1,140.0 118.6,143.5 114.7,162.8 114.7,177.8 118.7,189.9 122.5,191.7 134.0,186.0 136.1,182.8 138.0,171.2 136.7,162.2 134.4,145.4 133.8,141.6 132.5,124.8 133.4,120.0 139.4,109.3 142.6,109.1 146.1,119.1 146.7,122.5 148.6,146.3 149.7,152.6 150.7,156.5 156.5,170.3 161.4,174.7 170.8,172.7 169.7,152.6 168.6,148.5 164.8,135.8 163.8,130.2 163.1,123.2 162.1,106.7 164.9,98.5 168.4,97.7 173.1,102.4 179.0,115.3 181.1,120.3 182.8,123.7 184.5,127.2 186.1,130.6 187.8,133.6 192.4,139.3 197.2,143.1 204.4,145.8 207.4,146.2 210.9,144.3 212.8,139.6 211.7,135.5 209.0,129.7 206.5,125.1 204.4,121.7 201.4,117.8 198.6,113.6 196.3,107.9 195.6,104.1 196.1,100.0 199.4,96.9 202.9,97.9 206.0,99.2 211.4,101.0 214.5,101.7 217.6,102.0 220.7,101.8 223.8,101.0 227.5,99.5 231.8,95.1 233.7,89.9 234.5,83.7 234.7,80.6 235.0,76.1 235.7,70.0 236.0,65.2 236.0,62.0 235.2,59.0 233.5,53.3 229.8,47.4 225.9,45.2 220.9,45.3 216.9,48.5 212.7,54.5 210.0,60.5 208.3,64.3 206.5,67.8 203.4,72.8 201.1,75.8 195.5,81.0" style="animation:draw 1.00s linear 1.00s forwards;" /><title>octopus #8</title></svg>