<?xml version="1.0" encoding="UTF-8"?>
<svg xmlns="http://www.w3.org/2000/svg" width="256" height="256" viewBox="0 0 256 256"><style>polyline{fill:none;stroke:#000;stroke-width:2;stroke-linecap:round;stroke-linejoin:round;stroke-dasharray:1000;stroke-dashoffset:1000}@keyframes draw{to{stroke-dashoffset:0;}}</style><polyline points="118.5,27.4 116.2,27.0 114.2,27.8 111.5,30.1 110.4,32.0 108.8,34.3 106.9,36.7 104.9,39.4 103.4,43.3 103.0,46.0 103.0,48.3 103.0,52.6 103.0,55.3 103.0,58.4 103.0,61.9 103.0,64.2 103.0,66.5 103.4,70.0 104.2,72.0 105.3,75.8 106.5,78.9 108.8,82.8 110.4,84.8 111.9,86.7 113.1,88.6 115.0,91.0 116.6,92.9 119.7,95.6 121.6,96.8 124.7,98.7 127.4,99.5 129.7,100.3 132.1,100.3 135.9,99.5 139.1,98.7 142.2,98.3 144.5,97.6 146.8,96.8 148.7,95.6 150.7,94.5 153.0,93.3 155.3,92.1 157.3,89.8 159.2,87.1 161.2,83.6 162.7,80.9 163.9,78.6 164.6,75.8 165.4,73.9 165.8,71.6 166.2,68.9 166.2,66.1 166.2,63.0 166.2,61.1 166.2,58.0 165.4,56.1 164.3,53.0 163.9,51.0 162.7,47.5 161.9,45.6 160.4,41.7 158.8,37.8 156.9,34.3 155.7,32.4 153.8,29.7 152.2,27.8 150.3,25.8 148.0,23.9 146.0,22.7 144.1,21.6 142.2,21.2 140.2,20.4 137.1,20.0 134.4,20.0 132.1,20.0 129.0,20.0 127.0,20.0 124.3,20.0 122.4,20.0 119.3,20.8 116.2,22.3 113.8,24.3 112.3,26.6 112.3,28.5 113.1,30.9 114.2,32.4" style="animation:draw 0.67s linear 0.00s forwards;" /><polyline points="116.2,92.1 108.0,93.3 101.0,96.4 90.6,101.4 78.6,106.9 68.1,112.3 59.6,117.7 51.4,123.5 46.8,127.4 40.9,132.5 36.7,136.3 32.8,140.2 29.7,143.7 27.4,147.6 25.0,150.7 23.5,152.6 22.3,155.7 21.2,157.7 20.8,159.6 20.0,162.3 20.0,165.0 23.1,167.0 27.4,167.0 33.2,167.0 38.2,166.6 46.8,163.1 54.5,158.8 62.7,153.4 71.2,148.0 79.7,141.8 84.8,137.9 90.2,133.2 94.5,130.1 97.6,127.8 99.9,125.9 103.4,123.2 105.3,122.0 107.3,120.1 110.0,117.3 111.5,115.0 113.8,112.3 116.2,109.2 118.5,107.6 121.2,104.2 122.8,102.2 124.3,100.3 123.2,103.0 121.2,105.3 118.9,107.3 115.4,111.5 112.3,115.8 108.0,121.2 104.5,126.6 102.6,132.1 99.9,137.1 98.7,142.9 97.6,149.1 96.8,158.8 96.0,165.4 95.2,173.6 94.8,181.3 94.8,188.7 94.8,193.0 94.8,196.4 94.8,198.8 96.8,200.3 97.9,196.4 100.3,188.3 104.9,180.5 110.7,170.1 116.2,159.6 121.2,150.7 125.5,142.2 127.0,137.1 129.4,132.8 130.1,129.7 130.5,127.8 130.9,125.9 131.3,123.5 132.5,120.1 133.2,118.1 133.6,115.4 133.6,113.1 133.6,111.1 133.2,108.0 133.2,106.1 132.5,108.0 132.1,105.7 132.1,103.8 132.1,108.0 132.1,111.5 131.7,119.3 131.3,129.0 130.9,142.5 130.9,160.8 130.9,172.4 130.9,185.2 132.1,194.1 132.8,198.0 134.4,201.9 135.6,203.8 137.9,206.5 140.2,206.9 141.4,203.4 142.2,199.5 143.3,196.1 144.5,190.2 146.0,182.9 146.8,175.9 147.2,167.4 148.0,160.0 148.0,153.8 148.0,146.8 148.0,140.6 148.0,134.4 148.0,127.4 148.0,121.6 148.0,117.3 148.0,113.1 148.0,110.7 148.0,108.4 147.6,106.1 147.2,104.2 146.8,102.2 145.3,100.7" style="animation:draw 0.67s linear 0.67s forwards;" /><polyline points="144.9,98.3 144.9,100.3 145.6,103.4 149.1,113.1 153.8,126.6 158.1,137.9 163.9,153.0 167.4,161.5 171.6,170.5 175.1,177.1 177.4,180.5 179.8,183.6 182.5,186.8 184.4,188.7 187.1,190.6 189.1,192.2 191.0,193.0 192.6,189.9 192.6,186.8 192.6,183.3 191.8,179.0 189.9,171.6 188.3,163.5 184.8,151.8 180.9,137.5 176.7,124.7 172.8,116.6 169.3,108.4 165.4,102.2 163.1,99.1 161.2,97.2 159.2,95.6 157.3,94.1 158.8,96.0 161.2,97.9 164.3,101.0 170.5,106.5 177.8,111.9 185.6,118.5 193.3,125.1 198.8,130.1 204.2,134.8 207.3,137.9 210.8,140.6 213.9,142.2 217.0,143.3 220.1,145.3 224.4,146.8 227.9,148.0 230.6,149.1 232.5,149.9 234.4,150.7 235.6,148.7 236.0,145.3 236.0,142.9 236.0,139.4 236.0,137.1 233.3,134.0 227.9,129.7 221.3,125.1 212.7,119.3 203.8,113.1 197.2,108.0 190.2,103.8 184.8,99.9 180.2,97.6 176.3,96.0 172.8,95.2 170.1,94.5 167.7,93.3 165.4,92.5 163.1,90.6 161.2,88.6 158.8,87.1 158.4,85.1" style="animation:draw 0.67s linear 1.33s forwards;" /><title>octopus #10</title></svg>