<?xml version="1.0" encoding="UTF-8"?>
<svg xmlns="http://www.w3.org/2000/svg" width="256" height="256" viewBox="0 0 256 256"><style>polyline{fill:none;stroke:#000;stroke-width:2;stroke-linecap:round;stroke-linejoin:round;stroke-dasharray:1000;stroke-dashoffset:1000}@keyframes draw{to{stroke-dashoffset:0;}}</style><polyline points="44.7,116.7 40.4,113.1 38.2,108.7 36.7,105.1 33.8,100.7 30.9,94.9 27.3,87.6 25.1,84.0 22.2,77.5 20.7,73.8 20.0,67.3 20.0,60.7 20.0,57.1 20.0,50.5 22.2,44.7 24.4,40.4 28.0,36.0 33.1,33.1 36.7,30.9 41.8,27.3 45.5,25.8 51.3,24.4 57.8,22.9 63.6,21.5 68.7,20.7 73.1,20.0 77.5,20.0 82.5,20.0 87.6,20.7 91.3,22.2 95.6,24.4 98.5,28.0 100.0,31.6 100.7,36.0 101.5,40.4 101.5,44.0 101.5,47.6 101.5,51.3 100.7,56.4 99.3,60.0 97.1,65.1 94.2,70.9 92.7,75.3 89.8,79.6 88.4,84.7 86.9,90.5 86.9,94.2 86.9,97.8 86.9,102.9 86.9,109.5 86.9,116.0 87.6,124.0 88.4,131.3 90.5,137.8 92.7,144.4 94.9,148.7 97.8,153.8 100.7,158.2 104.4,161.8 108.7,164.7 112.4,167.6 116.7,169.8 123.3,172.7 129.1,174.9 137.1,178.5 143.6,181.5 150.2,184.4 154.5,187.3 158.2,189.5 163.3,193.8 166.2,198.2 168.4,201.8 170.5,207.6 172.0,213.5 172.0,217.1 172.0,221.5 170.5,225.1 165.5,228.0 161.1,229.5 155.3,230.2 151.6,230.2 146.5,230.2 142.9,230.2 139.3,230.2 135.6,228.0 132.0,225.8 126.2,221.5 118.9,214.9 115.3,210.5 108.7,204.7 105.1,198.9 102.2,195.3 98.5,191.6 94.9,188.7 94.9,192.4 99.3,197.5 102.2,203.3 103.6,209.8 103.6,213.5 103.6,217.8 103.6,221.5 100.0,225.8 94.9,229.5 91.3,231.6 84.7,235.3 81.1,236.0 77.5,236.0 73.8,236.0 70.2,236.0 66.5,236.0 62.9,236.0 57.1,232.4 52.0,225.8 48.4,220.0 48.4,214.9 48.4,209.8 51.3,206.2 55.6,203.3 59.3,201.1 62.9,198.2 66.5,196.7" style="animation:draw 2.00s linear 0.00s forwards;" /><title>octopus #4</title></svg>