<?xml version="1.0" encoding="UTF-8"?>
<svg xmlns="http://www.w3.org/2000/svg" width="256" height="256" viewBox="0 0 256 256"><style>polyline{fill:none;stroke:#000;stroke-width:2;stroke-linecap:round;stroke-linejoin:round;stroke-dasharray:1000;stroke-dashoffset:1000}@keyframes draw{to{stroke-dashoffset:0;}}</style><polyline points="87.1,80.9 86.0,79.1 84.5,76.3 83.5,74.1 82.0,70.1 81.3,66.9 80.6,62.2 80.6,58.9 80.6,54.6 80.6,51.0 80.9,45.6 81.7,42.7 82.0,40.2 82.7,37.7 83.8,35.5 85.3,33.0 86.4,31.2 88.9,28.3 91.4,26.1 93.6,24.7 95.7,23.2 97.5,22.5 101.1,21.4 105.1,20.7 107.3,20.4 111.2,20.0 115.2,20.0 119.2,20.0 121.0,20.0 123.9,20.7 127.1,21.4 147.7,30.8 150.2,32.3 153.4,35.1 155.2,36.6 158.8,39.5 161.4,42.0 162.8,44.5 163.9,47.8 165.0,51.4 165.3,55.0 165.3,57.9 165.0,60.7 163.9,64.0 162.8,66.5 161.4,68.7 159.2,71.9 155.9,75.9 153.1,79.1 151.3,80.6 149.1,82.0 147.3,83.5 145.5,84.5 142.6,86.7 140.4,88.5 137.9,90.3 136.1,91.8 134.3,92.8 137.9,95.0 140.4,95.4 143.0,95.4 147.7,96.4 151.3,97.2 155.6,97.9 158.5,98.3 162.8,99.0 166.8,99.7 171.5,100.8 174.7,101.1 179.0,101.1 181.9,101.1 185.5,101.1 188.4,101.1 192.7,101.1 195.6,101.1 199.2,101.1 201.4,101.5 203.5,102.2 207.2,102.6 209.3,103.7 212.2,104.7 214.4,105.8 216.9,107.3 218.7,109.1 221.9,112.3 223.4,114.8 226.3,118.8 228.1,122.4 231.3,127.8 232.8,131.4 234.9,135.8 235.6,139.0 236.0,143.3 236.0,146.2 236.0,149.5 236.0,151.6 236.0,153.8 235.3,156.7 234.2,158.8 232.8,162.1 229.1,166.4 227.0,169.6 225.2,172.5 222.3,174.3 220.5,174.7 218.7,174.7 216.5,174.7 214.4,174.0 212.2,172.9 209.7,171.8 207.5,170.7 204.6,169.3 202.8,167.8 200.7,166.0 198.9,164.2 197.4,162.1 196.3,160.3 195.3,157.7 193.8,154.5 192.7,152.0 191.6,148.7 190.6,146.6 189.1,143.3 188.0,140.4 187.3,138.6 186.6,136.5 185.5,133.9 183.4,132.1 181.9,130.3 180.1,129.3 178.3,127.8 176.1,126.4 173.6,124.9 171.1,124.2 168.6,123.1 165.7,121.7 163.2,121.0 160.6,119.9 157.7,119.5 155.2,119.2 152.7,119.2 150.9,119.2 149.1,120.2 147.3,122.4 146.9,124.2 146.6,126.7 148.0,131.4 149.5,133.6 150.9,137.2 152.7,139.4 155.6,143.0 157.0,145.5 159.9,149.1 161.7,152.3 163.2,156.3 163.9,158.1 164.6,160.3 165.0,162.8 165.3,166.0 165.3,169.6 163.9,171.5 161.7,174.0 158.8,176.1 155.2,178.7 153.4,179.7 151.3,180.5 148.7,181.2 146.2,181.5 144.0,181.9 141.2,181.9 136.1,181.2 134.3,180.8 131.8,179.4 128.5,176.5 126.0,172.2 125.3,170.4 124.2,167.5 123.9,164.6 123.5,162.1 123.5,159.9 123.5,158.1 123.9,154.5 124.2,152.7 124.9,150.2 126.0,145.8 126.4,143.3 126.7,140.8 127.1,138.6 127.5,135.8 127.8,133.6 127.8,131.4 127.8,128.5 127.8,126.7 127.8,124.9 127.5,123.1 127.1,121.3 124.9,120.2 122.8,120.2 119.5,122.1 117.7,123.1 116.3,124.9 114.1,127.5 112.7,129.3 110.9,132.1 109.8,134.7 108.3,138.3 108.0,140.1 107.3,143.0 106.9,145.5 106.5,148.0 106.2,149.8 105.8,152.3 105.1,155.9 104.4,159.2 104.4,161.4 102.9,163.9 101.5,165.7 99.7,167.1 95.0,168.9 91.4,170.4 88.2,171.1 83.8,171.1 81.7,170.7 79.5,170.0 77.3,168.9 74.5,166.0 71.9,163.2 71.6,159.6 71.6,156.3 71.6,152.0 71.6,150.2 72.3,147.7 74.1,143.0 75.9,139.7 77.3,137.9 79.5,135.0 82.0,132.5 85.3,130.3 88.5,128.2 91.4,125.3 93.9,122.4 95.0,120.2 95.4,118.1 95.0,116.3 93.6,114.5 91.8,113.8 90.0,113.0 87.8,113.0 86.0,113.0 84.2,113.0 80.6,113.8 78.4,114.8 76.3,116.3 74.5,117.7 71.9,119.9 70.1,121.0 68.0,122.8 66.2,124.6 64.0,126.7 62.2,127.8 60.0,129.6 56.8,132.1 52.8,134.3 51.0,135.0 48.1,135.4 46.3,135.8 44.2,135.8 39.5,135.8 37.7,135.4 34.8,134.7 32.6,133.9 29.4,132.9 24.7,130.7 22.2,128.5 20.7,126.0 20.0,122.4 20.0,119.5 20.0,117.7 20.4,115.9 21.4,113.8 24.3,109.4 26.1,107.6 29.4,105.8 31.9,104.4 35.5,102.9 38.0,101.9 41.6,100.4 43.8,100.1 47.0,99.3 51.0,99.0 54.3,99.0 56.1,99.3 61.1,101.5 64.4,102.6 68.3,104.7 77.3,108.3 85.6,110.5 88.9,110.9 93.2,110.9 95.7,110.5 98.6,109.1 100.8,106.9 102.9,105.1 104.7,101.5 105.5,99.7 105.8,97.5 105.8,95.4 105.5,93.2 105.1,91.0 104.7,88.5 103.3,86.0 101.9,84.2 100.4,82.4 97.9,81.3 95.0,79.9 91.8,78.8 88.2,77.7 84.2,76.3 82.4,75.5 79.1,74.1 77.0,73.4 75.2,72.3 73.4,71.6" style="animation:draw 2.00s linear 0.00s forwards;" /><title>octopus #3</title></svg>