<?xml version="1.0" encoding="UTF-8"?>
<svg xmlns="http://www.w3.org/2000/svg" width="256" height="256" viewBox="0 0 256 256"><style>polyline{fill:none;stroke:#000;stroke-width:2;stroke-linecap:round;stroke-linejoin:round;stroke-dasharray:1000;stroke-dashoffset:1000}@keyframes draw{to{stroke-dashoffset:0;}}</style><polyline points="26.6,67.6 26.6,68.7 26.6,70.3 26.6,71.3 26.6,72.6 26.6,73.8 26.4,75.6 26.4,77.3 26.4,78.9 26.4,80.2 26.4,82.0 26.4,83.7 26.4,85.7 26.4,87.3 26.4,88.8 26.4,90.4 26.4,91.7 26.4,93.3 26.4,94.5 26.4,95.6 26.4,97.4 26.4,98.6 26.4,100.1 26.4,101.3 26.4,102.7 26.4,103.8 26.4,104.8 26.6,105.8 27.2,106.8 27.6,107.7 28.2,108.7 28.6,109.7 29.2,110.6 30.1,110.1 31.1,108.7 31.9,107.1 32.9,105.6 33.6,103.6 34.0,102.5 34.4,101.5 34.8,100.1 35.2,98.6 35.6,97.6 35.8,96.2 36.0,94.9 36.2,93.5 36.2,92.1 36.4,90.0 36.6,89.0 36.6,87.3 36.6,85.7 36.6,84.5 36.6,83.2 36.8,82.2 37.0,81.0 37.2,80.0 37.4,79.1 37.9,77.9 38.7,76.7 39.1,75.8 39.5,74.6 40.1,73.4 41.2,72.2 41.8,72.1" style="animation:draw 0.18s linear 0.00s forwards;" /><polyline points="41.8,72.1 42.6,73.8 43.2,75.0 43.6,76.1 43.6,77.5 43.6,78.5 43.6,79.7 43.6,81.0 43.6,82.4 43.6,83.4 43.6,84.5 43.6,85.5 43.6,86.5 43.8,87.5 43.8,88.6 44.0,89.6 44.0,90.6 44.0,91.5 44.0,92.5 44.0,93.5 44.0,94.5 44.0,95.6 44.0,96.6 43.8,98.0 43.6,99.0 43.6,99.9 43.4,100.9 43.4,101.9 43.2,103.0 43.0,104.0 43.0,105.0 43.0,106.4 43.0,107.5 43.0,108.7 43.0,109.7 43.0,110.6 43.4,112.0 44.2,113.2 45.0,114.4 45.7,115.3 46.7,116.5 47.7,116.5 48.5,115.3 49.0,114.4 50.4,112.8 51.4,111.6 52.2,110.5 52.9,109.3 53.9,108.1 54.5,106.6 55.9,104.6 56.5,103.4 57.0,102.3 57.6,101.1 58.2,99.7 59.0,97.8 59.8,96.2 60.2,94.1 60.9,92.1 61.5,90.2 61.9,88.4 62.1,86.5 62.5,84.5 62.7,82.6 62.9,80.8 62.9,79.3 62.9,77.7 62.9,76.1 62.9,74.6 62.9,73.4 62.9,72.1 62.9,70.7 62.9,71.9 62.9,73.2 62.9,74.2 62.9,75.0" style="animation:draw 0.18s linear 0.18s forwards;" /><polyline points="63.9,68.2 64.1,69.1 64.3,70.3 64.4,71.3 64.8,72.4 65.0,73.4 65.2,74.8 65.6,76.3 66.0,78.1 66.6,79.8 67.2,82.0 67.8,84.1 68.5,86.1 69.5,88.4 70.3,90.2 70.9,91.7 71.7,93.1 72.2,94.5 72.8,95.6 73.6,97.0 74.4,98.4 75.2,99.3 75.8,100.5 76.5,101.5 76.9,102.7 77.7,104.0 78.3,105.2 78.9,106.2 79.3,107.1 80.4,106.8 81.6,105.0 82.4,103.6 83.4,101.9 84.3,100.3 85.5,98.4 86.5,96.6 87.6,95.1 88.2,93.5 88.8,91.9 89.4,90.8 89.8,89.4 90.2,88.2 90.6,87.3 90.6,87.3" style="animation:draw 0.18s linear 0.36s forwards;" /><polyline points="92.3,83.2 91.7,84.1 91.4,85.3 90.6,86.3 90.2,87.5 90.0,88.4 89.2,90.2 88.2,91.7 87.6,93.3 87.5,91.5 87.5,90.2 87.5,89.0 87.5,87.5 87.6,86.1 87.8,84.7 88.0,83.6 88.2,82.0 88.6,80.6 88.8,79.5 89.2,78.3 89.6,77.3 89.8,76.1 90.2,74.4 90.8,73.0 91.0,71.9 91.5,70.9 91.9,69.9 92.5,68.5 93.1,67.6 93.7,66.4 94.3,65.4 94.7,64.4 95.1,64.1" style="animation:draw 0.18s linear 0.55s forwards;" /><polyline points="95.6,66.2 96.4,67.8 96.8,69.1 97.2,70.3 97.8,71.9 98.2,73.2 98.6,75.2 99.0,76.7 99.3,78.5 99.7,79.5 100.1,80.6 100.7,81.8 101.3,83.0 102.1,84.3 102.7,85.3 103.4,86.5 103.8,87.6 104.6,88.8 105.0,89.8 105.4,91.0 105.8,92.1 106.2,93.3 106.8,94.7 106.9,95.8 107.3,97.0 107.9,98.2 108.5,99.3 109.1,100.7 110.1,101.3 110.3,100.1 110.6,98.2 110.8,96.8 110.8,95.2 111.0,93.5 111.0,91.5 111.2,89.8 111.2,88.2 111.2,86.7 111.4,84.9 111.4,82.8 111.8,80.6 112.2,78.9 112.6,76.9 112.8,75.4 113.2,74.0 114.0,72.2 114.5,70.7 114.9,69.3 115.5,68.0 115.7,67.0 116.1,66.0 116.5,64.8 116.9,63.9 117.1,62.9 117.1,62.9" style="animation:draw 0.18s linear 0.73s forwards;" /><polyline points="117.5,65.6 117.9,67.0 118.3,68.0 118.8,69.1 119.6,70.7 120.8,72.6 122.0,75.0 123.7,78.7 126.4,83.4 128.8,87.5 131.5,91.2 133.7,94.9 135.0,97.4 136.6,99.3 137.9,101.3 138.7,102.7 139.3,103.6 139.5,104.6 139.9,102.9 140.3,100.5 140.5,97.8 140.9,94.1 141.5,89.6 141.8,85.1 141.8,80.8 141.8,77.1 142.0,73.2 142.0,69.5 142.0,66.2 142.0,63.9 142.2,62.1 142.2,60.5 142.4,59.8" style="animation:draw 0.18s linear 0.91s forwards;" /><polyline points="148.5,83.6 149.1,85.3 149.8,86.7 150.6,88.0 151.2,89.6 152.2,91.2 153.3,93.1 154.5,95.1 155.3,96.6 156.7,98.4 157.8,99.7 159.4,101.3 160.8,102.1 161.7,102.9 162.7,103.4 163.5,104.4 164.5,102.7 165.0,100.3 165.8,97.4 166.2,93.9 166.8,90.4 167.0,87.1 167.0,83.4 167.0,78.5 166.6,74.0 165.8,69.3 164.3,64.6 162.7,59.8 161.7,56.1 160.2,52.9 159.6,50.8 159.6,50.8" style="animation:draw 0.18s linear 1.09s forwards;" /><polyline points="177.1,85.1 177.5,86.1 177.7,87.1 178.3,89.0 178.7,90.0 179.3,91.0 179.7,91.9 180.4,92.9 181.8,91.0 182.4,89.4 183.4,87.3 184.3,84.1 185.9,80.6 187.1,76.3 188.2,72.6 189.4,68.0 190.6,63.3 191.6,57.6 191.9,53.1 192.9,49.0 193.1,45.5 193.5,43.0 193.7,41.2 193.9,39.5 194.3,38.3 194.3,38.1" style="animation:draw 0.18s linear 1.27s forwards;" /><polyline points="200.3,83.7 201.5,84.1 202.9,82.6 204.4,80.0 210.1,72.4 213.8,66.6 217.9,60.7 221.8,54.5 226.3,48.1 229.2,42.8 231.7,38.3 233.3,34.8 234.1,32.7 234.6,31.1 235.2,29.4 235.6,28.0 236.0,27.2" style="animation:draw 0.18s linear 1.45s forwards;" /><polyline points="30.9,62.3 30.9,61.1 30.9,59.6 30.9,55.9 31.1,53.9 31.3,51.6 31.7,49.2 32.9,46.3 34.2,43.0 36.4,39.9 38.9,37.0 42.4,33.6 46.1,31.1 50.4,28.8 55.9,26.4 60.5,25.1 67.4,23.3 75.6,22.9 83.9,22.5 91.4,22.5 100.3,22.5 107.7,22.5 114.7,22.7 120.0,22.7 124.7,23.3 127.2,23.5 129.4,23.7 130.5,23.7 131.7,23.9 133.1,23.9 134.2,23.7 135.2,23.3 136.6,22.9 138.3,22.5 139.9,21.9 141.8,21.6 143.6,21.2 145.5,21.0 147.5,21.0 149.4,21.0 151.4,21.0 153.7,20.8 155.9,20.8 158.4,20.6 161.5,20.6 165.0,20.2 168.9,20.0 173.6,20.0 179.5,20.0 183.2,20.0 186.5,20.0 189.0,20.0 192.1,20.0 194.3,20.0 196.6,20.0 198.4,20.0 199.9,20.0 201.5,20.0 202.9,20.4 204.2,20.6 205.6,21.2 207.0,21.8 208.1,22.5 209.3,23.1 210.5,23.5 211.6,24.3 213.0,25.1 214.2,25.7 215.5,26.4 216.7,27.0 217.7,27.6 218.6,28.0 219.8,28.8 221.2,29.6 222.2,30.1 223.1,30.7 223.9,31.9 224.3,32.9 224.7,33.8 225.1,35.0 225.5,36.0 226.8,36.6 228.2,37.0 230.0,37.5 230.7,38.7 231.1,40.1 231.1,40.7" style="animation:draw 0.18s linear 1.64s forwards;" /><polyline points="20.0,57.4 28.6,58.2 46.7,61.1 52.0,62.7 60.9,69.9 63.7,76.1 65.6,82.0 68.3,89.6 72.1,96.2 76.3,104.0 80.8,111.4 84.5,115.7 86.5,118.1" style="animation:draw 0.18s linear 1.82s forwards;" /><title>octopus #7</title></svg>