<?xml version="1.0" encoding="UTF-8"?>
<svg xmlns="http://www.w3.org/2000/svg" width="256" height="256" viewBox="0 0 256 256"><style>polyline{fill:none;stroke:#000;stroke-width:2;stroke-linecap:round;stroke-linejoin:round;stroke-dasharray:1000;stroke-dashoffset:1000}@keyframes draw{to{stroke-dashoffset:0;}}</style><polyline points="168.7,122.7 160.4,117.7 154.7,113.6 149.8,107.9 142.4,103.8 136.6,98.8 131.7,95.6 126.8,91.5 121.8,86.5 117.7,84.1 116.9,80.0 114.4,75.0 113.6,70.9 112.0,65.2 109.5,59.4 109.5,54.5 109.5,50.4 109.5,46.3 109.5,42.2 109.5,37.2 112.8,33.1 117.7,29.9 123.5,27.4 129.2,25.7 136.6,23.3 140.7,23.3 144.8,21.6 149.8,20.0 154.7,20.0 160.4,20.0 166.2,20.0 172.8,20.0 176.9,20.0 185.1,20.8 191.7,22.5 198.2,24.9 202.3,25.7 206.4,26.6 210.5,29.0 217.1,31.5 221.2,34.8 226.1,40.5 230.3,46.3 233.5,50.4 235.2,55.3 236.0,59.4 236.0,64.3 236.0,68.5 236.0,75.0 236.0,81.6 234.4,86.5 231.9,91.5 229.4,95.6 226.1,100.5 222.9,105.4 217.9,112.0 215.5,116.1 211.4,120.2 206.4,124.3 202.3,127.6 198.2,129.2 194.1,131.7 190.0,133.3 185.9,135.0 181.0,135.0 176.0,132.5 171.1,127.6 167.0,122.7 162.9,117.7 158.8,113.6 155.5,109.5 153.9,107.1" style="animation:draw 0.50s linear 0.00s forwards;" /><polyline points="134.2,97.2 20.0,159.6 20.0,159.6" style="animation:draw 0.50s linear 0.50s forwards;" /><polyline points="162.1,117.7 157.2,121.8 150.6,126.8 142.4,132.5 135.0,139.1 128.4,143.2 122.7,147.3 117.7,150.6 112.8,153.0 107.9,156.3 103.8,159.6 98.0,162.9 93.9,167.8 92.3,174.4 90.6,181.0 90.6,185.1 89.8,190.0 89.8,194.9 89.8,199.0 89.0,204.0 84.9,208.1 82.4,212.2 79.1,216.3 74.2,218.8 73.4,219.6" style="animation:draw 0.50s linear 1.00s forwards;" /><polyline points="183.4,129.2 186.7,134.2 189.2,138.3 191.7,142.4 193.3,146.5 195.8,152.2 196.6,156.3 199.9,161.3 201.5,168.7 202.3,175.2 202.3,180.2 203.1,185.1 203.1,190.0 203.1,194.9 201.5,199.9 199.0,204.8 198.2,210.5 198.2,214.6 198.2,219.6 206.4,226.1 213.0,230.3 217.9,231.9 223.7,234.4 228.6,235.2 230.3,235.2" style="animation:draw 0.50s linear 1.50s forwards;" /><title>octopus #1</title></svg>