<?xml version="1.0" encoding="UTF-8"?>
<svg xmlns="http://www.w3.org/2000/svg" width="256" height="256" viewBox="0 0 256 256"><style>polyline{fill:none;stroke:#000;stroke-width:2;stroke-linecap:round;stroke-linejoin:round;stroke-dasharray:1000;stroke-dashoffset:1000}@keyframes draw{to{stroke-dashoffset:0;}}</style><polyline points="80.3,122.4 79.8,119.4 78.8,114.8 78.3,110.8 77.8,107.2 76.8,103.7 75.8,99.6 75.3,95.5 74.3,91.0 73.2,87.4 72.7,83.9 71.7,80.8 71.2,75.8 70.7,71.7 70.2,69.2 70.2,66.6 69.7,64.1 69.7,60.1 69.7,55.0 70.7,51.9 71.7,48.4 73.2,44.3 75.3,38.8 76.3,36.2 77.8,33.7 80.3,29.1 82.4,26.1 84.4,23.0 87.9,21.5 91.0,20.5 94.0,20.5 96.6,20.5 99.1,20.0 101.6,20.0 105.2,20.0 107.7,20.5 110.3,22.5 113.3,24.1 115.8,26.1 119.9,29.6 122.9,32.7 125.5,35.2 127.0,37.7 128.5,40.8 130.0,43.8 130.0,47.4 131.0,50.4 131.0,53.5 131.5,56.0 131.5,58.5 131.0,61.6 131.0,65.1 131.0,69.7 132.1,73.7 132.1,77.8 133.1,81.9 133.6,84.4 133.6,86.9 134.1,90.0 134.6,93.0 134.6,97.1 134.6,100.1 134.6,103.2 134.6,105.7 134.6,108.2 134.6,112.3 134.1,115.8 133.6,118.9 132.6,121.4 132.1,123.4" style="animation:draw 0.67s linear 0.00s forwards;" /><polyline points="132.1,123.4 135.1,125.5 139.2,127.5 145.7,131.0 151.8,133.6 156.9,135.1 161.0,136.6 166.5,138.6 172.6,140.7 178.2,142.2 184.3,144.2 189.4,145.2 193.9,146.3 197.5,147.3 200.5,148.3 203.5,149.3 208.1,150.8 211.2,151.8 213.7,152.3 217.2,154.4 220.8,155.4 224.3,156.9 225.9,159.9 224.3,163.0 221.3,166.0 218.8,167.5 215.7,169.6 213.2,170.1 200.0,172.1 197.0,172.1 193.4,172.1 189.9,172.1 187.3,172.1 184.8,172.1 181.2,171.6 178.7,171.6 174.1,171.1 171.6,170.6 168.6,169.6 165.5,168.6 162.5,168.1 158.4,166.5 155.4,166.0 152.3,164.5 149.8,163.5 147.3,161.5 143.7,158.4 140.7,156.9 137.6,154.4 135.1,151.8 133.1,148.8 132.6,151.3 132.6,155.4 132.6,158.9 132.6,163.0 133.1,166.5 134.1,171.1 134.6,176.2 134.6,182.3 135.1,187.8 135.1,191.9 135.6,195.9 135.6,200.5 135.6,203.0 136.6,207.6 137.1,210.1 137.1,213.7 138.1,217.2 138.6,219.8 139.2,222.8 139.7,226.9 140.2,229.9 140.7,232.5 140.7,236.0 140.2,232.5 139.2,229.9 137.6,226.9 135.6,223.8 133.6,220.3 130.5,215.7 128.5,211.7 127.0,208.6 125.0,205.1 123.4,202.0 121.4,197.0 119.9,193.9 118.9,190.4 117.9,187.3 116.8,184.3 115.8,181.2 114.3,177.2 112.3,174.1 110.3,171.1 108.7,168.6 107.2,171.6 106.7,174.6 104.7,178.7 103.2,183.3 102.1,185.8 101.1,188.3 100.6,191.4 99.6,194.4 97.6,198.5 96.1,201.0 94.0,203.5 91.5,206.6 89.0,209.6 86.9,212.2 84.4,213.7 81.4,215.7 78.3,216.7 75.3,217.7 70.2,218.8 67.2,219.8 64.1,220.8 59.0,221.3 56.5,221.8 53.5,221.8 49.9,221.8 47.4,221.8 43.8,221.8 39.3,221.8 36.2,220.8 32.2,220.3 28.6,219.8 25.1,218.8 22.5,217.7 20.0,215.7 20.0,213.2 20.0,210.1 20.0,205.1 20.0,202.0 22.0,198.0 23.5,194.9 29.1,187.8 31.7,185.8 34.2,183.8 36.7,181.7 39.8,179.7 42.3,178.2 44.8,176.7 47.9,175.2 50.4,174.1 47.9,173.1 44.8,172.6 41.3,172.6 37.7,172.6 35.2,172.6 32.2,171.6 29.6,171.6 29.1,169.1 29.6,165.0 31.2,159.9 33.2,156.9 36.2,152.8 38.8,149.8 40.8,147.3 43.3,144.7 45.9,143.2 49.9,140.2 52.5,138.6 56.0,136.6 60.1,135.1 63.6,133.1 67.7,131.5 72.2,129.5 74.8,128.5 79.3,126.0 81.9,124.5 84.4,123.4 86.9,120.9 87.9,120.4" style="animation:draw 0.67s linear 0.67s forwards;" /><polyline points="88.5,47.4 85.9,46.4 83.9,49.4 82.9,53.5 82.9,56.0 82.9,59.0 83.9,62.1" style="animation:draw 0.67s linear 1.33s forwards;" /><title>octopus #9</title></svg>