<?xml version="1.0" encoding="UTF-8"?>
<svg xmlns="http://www.w3.org/2000/svg" width="256" height="256" viewBox="0 0 256 256"><style>polyline{fill:none;stroke:#000;stroke-width:2;stroke-linecap:round;stroke-linejoin:round;stroke-dasharray:1000;stroke-dashoffset:1000}@keyframes draw{to{stroke-dashoffset:0;}}</style><polyline points="117.6,116.7 117.6,118.8 117.6,121.8 117.6,125.2 117.6,127.4 117.6,130.8 117.6,133.3 118.0,136.3 118.8,139.3 120.1,141.4 122.7,143.1 124.8,143.6 129.1,143.1 131.6,141.8 134.6,140.6 137.6,138.4 139.7,135.9 141.4,133.3 143.6,129.5 144.8,125.2 145.7,122.7 146.5,118.4 146.5,116.3 146.5,113.7 146.5,110.7 146.5,108.6 146.5,106.5 145.7,103.9 145.7,106.1 145.7,108.6 145.7,110.7 145.7,114.6 145.7,116.7 146.1,118.8 146.5,121.0 147.0,124.0 147.4,126.5 147.8,129.1 147.8,131.6 148.2,134.2 148.7,136.3 150.8,136.7 152.9,135.9 154.2,132.9 155.9,130.3 157.6,127.8 159.3,124.8 161.9,121.0 163.1,118.4 164.4,116.3 164.9,114.2 165.7,111.2 167.0,107.3 167.8,105.2 167.8,103.1 167.8,100.5 167.8,98.0 167.8,95.8 170.0,94.6 175.1,96.7 178.1,98.0 180.6,99.7 183.2,100.9 185.3,101.8 187.9,103.5 190.0,105.6 192.5,106.9 195.1,106.9 198.1,107.3 201.9,107.3 204.5,107.8 206.6,107.8 208.7,107.8 210.9,105.6 213.4,103.5 216.0,101.4 216.8,99.2 217.7,96.7 219.4,92.9 221.1,89.9 221.5,87.7 222.4,85.6 222.8,83.5 223.2,80.9 223.2,78.4 223.6,76.2 223.6,73.3 222.8,71.1 221.9,68.6 220.7,66.4 218.5,65.2 216.0,63.9 213.8,63.0 211.7,62.6 211.7,60.5 211.7,58.3 213.8,55.8 217.3,52.8 219.8,50.7 222.4,49.0 225.8,46.8 227.9,45.6 230.9,43.0 233.4,40.9 235.6,38.7 236.0,36.6 233.4,36.2 231.3,35.8 227.9,35.8 224.9,35.8 222.8,35.8 220.7,36.2 217.7,36.6 214.7,37.9 212.6,38.7 210.0,40.4 207.9,41.7 205.8,42.6 202.8,43.4 200.6,44.3 198.5,46.0 196.4,48.1 193.4,50.2 192.1,52.8 190.0,53.7 187.4,52.8 185.3,52.4 183.2,52.0 181.0,50.7 177.2,49.4 174.7,48.1 172.1,47.7 169.5,47.3 167.4,46.8 164.9,46.0 162.7,43.9 162.3,41.7 162.3,39.6 162.3,37.5 162.7,34.9 162.7,32.8 163.6,30.7 164.0,28.5 161.9,28.9 159.7,29.8 157.6,30.2 155.9,32.4 155.9,34.5 156.8,31.9 157.2,29.4 157.2,26.8 157.2,24.3 156.8,22.1 154.6,20.9 152.1,20.4 149.9,20.0 148.7,22.1 147.8,24.7 147.8,26.8 147.8,28.9 147.8,31.1 148.7,33.6 149.5,35.8 150.4,36.2" style="animation:draw 0.67s linear 0.00s forwards;" /><polyline points="164.4,51.5 161.9,51.1 159.7,52.8 158.9,54.9 159.3,57.1 161.0,60.0 161.9,62.2 164.0,62.6 166.6,61.3 168.7,59.6 170.4,57.1 170.4,54.9 169.1,52.0 167.8,49.4 166.6,47.3 166.6,45.1 165.7,44.7" style="animation:draw 0.67s linear 0.67s forwards;" /><polyline points="142.7,34.9 139.7,34.5 137.2,34.5 134.6,34.5 129.1,34.1 126.5,34.1 124.0,34.1 121.4,34.1 118.8,34.1 116.3,34.1 113.3,34.1 111.2,34.1 108.2,34.1 103.9,34.1 100.5,34.1 97.1,34.1 93.7,34.1 90.7,34.1 87.7,33.6 85.2,33.6 82.6,33.6 80.5,34.1 78.4,35.8 75.8,37.0 73.7,38.7 70.7,40.0 68.6,41.3 66.0,42.6 63.0,43.4 60.5,44.7 57.9,45.6 55.8,46.8 53.2,48.1 50.7,49.4 47.7,50.7 45.6,52.0 43.4,53.2 41.3,55.4 38.7,57.9 36.6,60.9 35.3,63.0 33.6,65.6 31.9,67.7 30.7,69.8 29.4,72.0 28.1,74.1 26.8,76.2 25.1,78.4 24.7,80.5 23.8,83.1 23.0,85.2 22.6,87.3 22.1,89.4 21.3,91.6 20.9,93.7 20.9,96.3 20.0,98.4 20.0,99.2" style="animation:draw 0.67s linear 1.33s forwards;" /><title>rhinoceros #7</title></svg>