<?xml version="1.0" encoding="UTF-8"?>
<svg xmlns="http://www.w3.org/2000/svg" width="256" height="256" viewBox="0 0 256 256"><style>polyline{fill:none;stroke:#000;stroke-width:2;stroke-linecap:round;stroke-linejoin:round;stroke-dasharray:1000;stroke-dashoffset:1000}@keyframes draw{to{stroke-dashoffset:0;}}</style><polyline points="151.4,89.7 148.6,85.9 144.2,82.4 140.0,79.5 132.8,77.0 123.6,74.8 113.4,73.8 101.7,73.8 88.7,75.7 75.4,80.2 62.1,87.1 50.1,95.4 39.0,105.2 30.1,116.0 24.8,127.4 21.0,137.8 20.0,146.7 21.0,156.5 25.1,164.7 32.4,172.0 41.9,178.4 52.9,182.8 65.6,185.6 78.9,186.6 93.5,186.9 107.1,186.6 120.4,182.8 132.8,177.4 144.2,170.8 153.3,163.2 160.3,155.2 164.4,145.7 167.6,135.0 168.9,123.6 168.9,112.2 168.2,101.7 164.7,92.5 160.9,84.3 154.6,77.6 147.6,72.6 139.4,69.1 131.2,68.1 122.6,68.1 122.6,68.1" style="animation:draw 0.14s linear 0.00s forwards;" /><polyline points="148.3,75.1 150.2,72.9 154.6,71.9 160.0,71.0 167.3,71.0 173.6,71.0 179.9,72.6 185.0,75.4 190.1,79.2 194.2,84.3 197.7,89.7 200.2,95.4 201.5,101.7 202.1,106.8 202.1,112.8 201.8,118.8 198.9,124.5 194.8,129.0 189.1,132.1 182.8,134.0 175.8,135.3 170.4,135.9 165.1,136.6 161.9,137.5 159.7,138.1 159.7,138.1" style="animation:draw 0.14s linear 0.14s forwards;" /><polyline points="198.6,84.6 198.6,82.7 202.4,79.9 206.2,78.6 209.1,77.6 213.2,76.4 216.4,75.4 217.9,74.5 219.5,73.8 218.9,77.0 217.9,79.9 217.0,83.7 215.4,87.8 213.8,92.2 211.9,96.3 210.3,100.4 208.8,104.2 207.5,107.1 206.2,109.6 205.3,111.2 204.6,112.8 204.0,114.1" style="animation:draw 0.14s linear 0.29s forwards;" /><polyline points="203.1,78.9 202.4,80.8 201.8,83.3 200.8,85.2 198.6,87.5 197.0,89.0 197.0,89.0" style="animation:draw 0.14s linear 0.43s forwards;" /><polyline points="181.8,85.2 179.9,84.9 183.1,84.3 185.3,83.3 181.5,84.0 179.9,85.6 178.4,87.5 180.9,88.1 182.2,86.5 180.6,86.5 183.4,85.2 186.9,84.3 186.9,84.3" style="animation:draw 0.14s linear 0.57s forwards;" /><polyline points="209.1,75.7 209.1,79.5 210.3,83.0 214.5,87.5 218.6,91.6 220.2,94.1 220.2,94.1" style="animation:draw 0.14s linear 0.71s forwards;" /><polyline points="216.4,77.6 213.8,80.2 213.2,84.0 213.5,90.0 216.7,96.3 219.2,102.0 219.2,102.0" style="animation:draw 0.14s linear 0.86s forwards;" /><polyline points="200.8,85.6 201.2,89.0 203.4,93.2 209.1,98.9 216.0,103.6 219.2,106.5 219.2,106.5" style="animation:draw 0.14s linear 1.00s forwards;" /><polyline points="157.8,78.0 158.7,75.4 159.7,73.2 160.9,71.3 162.2,68.8 163.2,65.9 164.4,62.4 165.7,59.6 167.0,56.1 168.5,52.0 169.8,48.2 171.7,43.8 174.2,38.4 176.5,33.6 178.4,29.8 179.6,26.3 180.9,23.2 181.2,21.6 181.8,20.0 182.2,22.9 182.5,26.3 183.1,30.5 184.1,35.2 184.7,40.6 185.0,45.7 185.3,51.0 185.3,56.7 185.3,61.8 185.3,66.2 184.4,70.0 183.7,73.5 183.1,76.7 182.8,79.5 182.5,81.8 182.2,84.0 181.5,86.5 181.2,86.8" style="animation:draw 0.14s linear 1.14s forwards;" /><polyline points="184.4,29.8 182.2,29.2 180.3,33.6 177.7,39.3 175.5,45.7 174.2,51.7 173.3,56.7 173.0,61.8 173.0,65.3 173.0,67.5 176.1,66.9 179.3,62.8 182.2,56.1 185.3,47.2 187.2,42.5 187.5,40.0 184.7,42.5 181.8,47.2 178.4,52.0 175.8,56.1 174.6,59.0 173.9,61.2 174.2,63.1 177.1,63.1 180.3,61.2 181.8,59.3 180.9,62.1 179.3,65.6 178.0,67.8 178.0,69.7 178.0,70.4" style="animation:draw 0.14s linear 1.29s forwards;" /><polyline points="42.2,174.9 42.5,177.1 42.5,181.5 41.5,187.9 40.0,195.1 39.0,203.1 38.7,211.0 38.7,216.7 38.7,221.7 38.7,224.9 40.0,226.5 43.4,226.5 43.4,226.5" style="animation:draw 0.14s linear 1.43s forwards;" /><polyline points="66.2,184.7 63.7,186.6 61.5,189.4 59.9,192.6 59.3,196.4 58.6,201.5 58.6,207.2 58.3,212.9 58.3,218.9 58.3,224.3 59.0,229.0 59.9,231.9 61.8,234.4 64.7,236.0 68.8,236.0 73.2,233.5 73.2,233.5" style="animation:draw 0.14s linear 1.57s forwards;" /><polyline points="45.7,223.3 44.1,225.5 46.3,227.4 48.2,228.1 49.8,228.7 52.0,229.3 53.9,229.7 55.8,229.7 57.7,230.0 61.2,230.0 64.7,228.7 64.7,228.7" style="animation:draw 0.14s linear 1.71s forwards;" /><polyline points="78.0,183.4 77.0,190.1 77.0,193.9 77.3,201.8 77.6,205.3 78.0,209.4 78.3,213.2 78.6,216.7 78.9,219.5 79.2,222.4 79.5,224.9 80.2,227.1 81.1,229.0 84.0,230.9 85.9,231.6 88.1,231.9 90.0,232.2 92.5,232.2 94.7,232.2 96.6,232.2 98.5,232.2 100.8,232.2 102.7,232.2 104.2,232.2 106.5,232.2 107.4,230.3 107.4,227.4 106.8,221.7 105.2,214.1 103.9,205.9 103.0,198.6 102.7,193.9 102.0,190.1 101.7,186.3 101.1,183.1 100.4,181.2 98.2,180.3 95.1,180.6 92.8,182.2 90.6,183.7 87.8,185.3 84.0,186.9 81.4,187.9 79.5,188.2 77.6,188.8 77.6,188.8" style="animation:draw 0.14s linear 1.86s forwards;" /><title>rhinoceros #8</title></svg>