<?xml version="1.0" encoding="UTF-8"?>
<svg xmlns="http://www.w3.org/2000/svg" width="256" height="256" viewBox="0 0 256 256"><style>polyline{fill:none;stroke:#000;stroke-width:2;stroke-linecap:round;stroke-linejoin:round;stroke-dasharray:1000;stroke-dashoffset:1000}@keyframes draw{to{stroke-dashoffset:0;}}</style><polyline points="193.2,61.1 194.9,63.9 198.2,66.1 200.9,66.1 204.2,65.5 206.9,63.3 210.2,60.6 213.5,57.3 216.3,53.4 219.6,50.2 221.7,47.4 224.5,43.0 225.6,40.3 227.2,37.0 228.3,33.7 229.4,31.0 230.5,27.7 232.2,22.7 232.7,20.0 233.3,22.7 233.3,26.0 233.8,28.8 233.8,31.5 233.8,38.1 232.7,40.8 232.2,43.6 231.6,46.3 231.1,49.6 231.1,52.3 230.0,55.6 228.9,58.4 227.8,61.1 226.1,63.9 223.4,66.6 220.6,69.3 217.9,72.1 215.2,74.3 214.1,74.8" style="animation:draw 0.67s linear 0.00s forwards;" /><polyline points="190.5,67.7 187.2,67.7 184.5,67.7 183.9,63.9 183.9,61.1 183.9,57.8 184.5,55.1 185.0,52.3 186.1,49.6 187.2,46.9 187.8,44.1 186.1,46.9 184.5,50.7 182.8,54.5 180.1,60.6 178.4,63.9 177.3,66.6 176.8,63.9 176.2,60.6 175.7,57.8 174.1,54.5 171.9,51.8 169.7,54.5 168.0,58.4 166.9,61.1 165.8,62.2" style="animation:draw 0.67s linear 0.67s forwards;" /><polyline points="179.0,71.0 182.3,71.0 186.7,71.0 189.4,71.0 192.7,71.0 196.0,71.0 198.7,71.0 201.5,71.0 204.8,70.4 208.6,69.9 211.9,70.4 215.7,73.2 219.6,75.4 223.4,78.1 226.1,80.9 228.9,83.0 231.6,85.2 233.8,88.0 236.0,90.7 233.8,95.1 232.7,97.8 230.5,100.6 228.3,103.9 224.5,107.2 221.7,109.4 219.0,111.0 216.3,112.1 213.5,112.6 210.8,112.6 208.0,112.6 204.8,112.6 202.0,111.6 199.8,108.8 197.1,107.2 194.3,106.1 191.0,105.5 188.3,105.5 185.6,105.5 182.8,106.6 179.5,107.2 176.8,108.3 174.1,110.5 172.4,114.3 171.9,117.6 171.3,125.3 171.3,128.5 171.3,133.5 170.8,137.9 170.8,142.8 170.8,148.3 170.8,153.2 170.8,156.0 170.8,158.7 170.8,162.5 171.3,165.8 171.3,169.7 171.9,173.5 172.4,177.3 172.4,184.5 173.0,187.8 173.0,191.6 173.0,194.9 170.2,193.8 167.5,189.4 164.2,182.8 161.4,177.3 159.2,174.1 151.6,161.4 148.3,155.4 143.4,148.8 140.6,144.4 138.4,141.2 134.0,131.3 134.0,135.1 134.0,137.9 134.6,140.6 134.6,145.0 134.6,149.9 134.6,152.7 134.6,159.8 133.5,164.2 131.3,170.8 129.6,175.1 127.5,179.0 125.8,182.3 123.6,185.6 122.0,188.3 118.7,187.8 116.5,185.0 114.8,182.3 111.0,174.6 109.9,169.7 108.3,163.6 107.7,160.3 106.1,154.3 105.0,149.4 103.9,143.9 103.3,140.6 102.2,136.2 100.0,139.0 99.5,141.7 98.9,145.0 97.3,148.8 95.7,153.8 94.6,159.2 92.4,164.7 91.3,167.5 89.6,172.4 88.0,177.3 86.3,181.2 84.7,184.5 83.6,187.2 81.9,190.5 80.9,193.2 78.1,195.4 74.3,196.0 71.5,196.0 63.9,196.0 60.6,194.9 57.8,193.8 57.3,191.0 56.7,188.3 56.7,185.0 57.3,180.6 58.9,176.2 60.6,171.9 62.2,167.5 63.3,164.7 63.9,162.0 65.5,159.2 65.0,162.0 63.3,165.3 60.6,169.1 57.8,173.0 54.5,175.1 51.8,176.8 49.1,177.3 45.8,177.3 43.0,174.6 41.9,171.9 41.4,169.1 41.4,164.7 41.4,158.7 41.4,154.9 41.9,151.6 43.0,148.3 39.7,145.5 36.4,143.4 33.2,140.1 29.9,135.1 28.2,131.8 27.1,129.1 25.5,125.8 24.4,121.4 23.3,117.0 22.2,106.6 21.1,102.2 21.1,97.3 20.5,93.5 20.0,88.5 20.0,83.6 20.0,79.8 20.0,77.0 20.0,73.7 20.0,69.3 22.2,65.0 24.4,60.0 26.0,57.3 30.4,51.2 33.2,46.9 35.9,44.1 39.7,41.4 43.0,39.7 46.3,38.1 51.8,37.0 58.4,34.8 61.7,34.3 64.4,33.2 85.8,29.9 89.1,29.9 92.9,29.9 98.9,31.0 108.8,34.8 114.3,37.0 118.1,38.6 120.9,39.2 123.6,40.3 126.4,41.4 132.4,43.0 135.1,44.1 137.9,45.2 141.7,48.5 145.5,51.2 149.4,54.0 153.8,56.7 157.1,58.4 162.0,60.6 164.7,61.7 167.5,62.8 168.0,65.5 168.0,65.5" style="animation:draw 0.67s linear 1.33s forwards;" /><title>rhinoceros #5</title></svg>