<?xml version="1.0" encoding="UTF-8"?>
<svg xmlns="http://www.w3.org/2000/svg" width="256" height="256" viewBox="0 0 256 256"><style>polyline{fill:none;stroke:#000;stroke-width:2;stroke-linecap:round;stroke-linejoin:round;stroke-dasharray:1000;stroke-dashoffset:1000}@keyframes draw{to{stroke-dashoffset:0;}}</style><polyline points="209.1,94.0 207.6,92.4 204.4,90.4 201.1,88.3 198.3,85.2 190.2,80.4 183.6,75.9 178.9,73.0 172.4,70.8 167.2,69.5 161.5,68.2 154.0,66.3 149.3,64.3 141.5,62.1 135.1,60.2 129.4,58.3 120.8,53.9 115.7,52.1 110.1,50.5 103.3,49.4 99.3,49.2 95.5,49.3 90.0,52.9 87.1,56.2 84.1,63.6 83.2,70.3 82.9,79.0 83.2,85.1 83.9,93.5 86.2,98.2 89.6,103.6 92.1,106.6 98.7,111.5 101.5,113.3 106.9,115.2 119.3,116.8 127.6,116.8 147.2,115.8 152.1,115.5 163.4,116.1 170.0,116.5 178.4,117.0 182.9,117.2 190.4,117.2 197.4,116.6 202.1,115.9 210.4,113.0 214.6,111.7 218.8,110.6 221.3,109.7 223.5,108.6 224.8,106.3 224.4,104.6 222.1,102.9 220.1,101.6 212.7,98.8 210.5,97.9 209.1,96.5 207.8,94.9 206.3,92.6 205.2,90.9 205.1,90.5" style="animation:draw 0.22s linear 0.00s forwards;" /><polyline points="218.2,101.6 218.7,100.3 220.5,99.8 221.9,99.2 224.3,96.0 225.5,93.7 226.9,91.8 232.2,84.6 233.8,81.1 235.0,75.9 235.5,72.3 235.7,69.1 233.4,59.5 229.7,54.3 227.2,51.5 221.4,45.7 216.4,41.7 209.7,37.0 203.5,32.3 191.2,24.1 189.5,22.8 187.0,21.1 185.3,20.0 185.6,22.4 185.8,23.8 186.1,25.2 188.7,28.1 190.6,30.6 192.1,33.2 193.0,35.4 194.0,37.2 195.9,42.9 197.7,45.3 200.0,47.6 202.0,50.8 204.2,55.6 205.8,62.0 206.5,65.1 207.1,69.2 207.5,75.6 207.5,79.4 206.8,85.0 206.4,87.9 205.8,90.7 205.8,90.7" style="animation:draw 0.22s linear 0.22s forwards;" /><polyline points="150.5,78.3 152.1,78.3 153.4,77.9 155.0,79.2 153.5,79.6 151.2,78.6 149.1,75.5 150.1,74.0 153.0,74.8 154.1,80.1 154.2,82.7 152.5,84.3 149.1,84.7 147.4,82.2 147.7,80.8 147.7,80.8" style="animation:draw 0.22s linear 0.44s forwards;" /><polyline points="153.3,122.2 153.9,123.6 154.4,126.1 154.6,132.9 153.3,143.7 147.0,156.1 137.8,169.1 130.3,174.5 115.1,180.1 91.6,185.2 76.4,183.2 70.0,182.0 58.1,179.8 51.8,178.8 47.8,177.8 39.4,173.8 36.9,171.7 34.0,163.1 34.0,163.1" style="animation:draw 0.22s linear 0.67s forwards;" /><polyline points="81.7,102.6 79.5,101.1 77.9,100.7 76.2,100.3 72.6,100.2 66.0,101.7 56.8,106.4 44.3,114.8 38.5,119.5 33.1,124.6 24.2,131.7 21.6,135.3 20.6,136.1" style="animation:draw 0.22s linear 0.89s forwards;" /><polyline points="129.8,171.2 131.3,171.2 132.6,173.6 134.6,181.3 136.7,189.6 140.2,196.4 141.7,201.6 142.2,203.7 142.8,202.0 144.0,200.4 147.2,204.3 147.0,206.4 144.5,213.8 139.9,215.8 131.2,217.6 123.7,212.5 116.8,202.7 115.7,198.8 114.6,192.8 112.6,182.3 111.1,180.4 109.4,178.3 109.4,178.3" style="animation:draw 0.22s linear 1.11s forwards;" /><polyline points="55.2,177.7 55.2,179.3 55.2,182.0 55.5,183.8 55.5,185.4 55.2,189.8 54.8,193.9 54.6,195.3 54.5,197.2 56.5,198.6 58.5,198.7 61.6,199.0 65.0,199.5 72.5,209.1 73.5,217.9 73.1,223.4 66.1,233.6 57.8,236.0 50.2,230.1 47.5,224.8 45.1,213.2 44.9,201.0 45.3,195.4 45.6,186.2 45.9,183.2 47.0,181.0 47.0,181.0" style="animation:draw 0.22s linear 1.33s forwards;" /><polyline points="154.4,82.1 154.4,83.9 152.6,85.4 150.3,86.6 144.0,85.2 143.7,82.2 144.8,80.5 145.4,83.0 145.7,87.9 145.2,90.5 144.9,85.7 146.1,82.1 149.2,80.9 147.6,86.3 145.8,86.9 144.4,80.4 145.2,75.2 149.6,78.0 148.3,80.8 146.8,81.3 147.0,73.3 148.8,71.9 151.8,72.6 149.7,83.9 145.0,86.3 142.4,86.8 142.4,86.8" style="animation:draw 0.22s linear 1.56s forwards;" /><polyline points="32.6,172.2 31.7,170.5 27.4,166.7 23.3,159.8 20.4,150.6 20.0,146.7 20.0,146.7" style="animation:draw 0.22s linear 1.78s forwards;" /><title>rhinoceros #3</title></svg>