<?xml version="1.0" encoding="UTF-8"?>
<svg xmlns="http://www.w3.org/2000/svg" width="256" height="256" viewBox="0 0 256 256"><style>polyline{fill:none;stroke:#000;stroke-width:2;stroke-linecap:round;stroke-linejoin:round;stroke-dasharray:1000;stroke-dashoffset:1000}@keyframes draw{to{stroke-dashoffset:0;}}</style><polyline points="128.8,65.7 125.7,64.2 120.1,61.5 115.4,59.4 110.1,57.2 105.1,55.7 100.3,54.9 95.8,54.2 90.7,53.5 85.0,53.2 79.7,53.2 74.3,53.6 69.4,53.9 64.4,54.7 60.0,55.6 54.9,57.1 49.4,58.5 44.9,59.9 40.2,62.2 36.3,64.3 33.2,66.5 28.5,70.0 24.9,73.3 21.4,77.6 20.0,81.2 20.0,85.3 20.0,89.1 21.2,92.6 25.5,96.9 30.2,100.5 33.7,103.4 37.5,106.2 41.1,108.0 45.8,109.8 50.8,111.2 55.1,112.6 59.4,113.6 64.8,114.4 68.4,114.8 72.9,114.8 77.4,114.8 81.9,114.8 85.7,114.8 89.5,114.8 93.3,114.8 97.0,114.8 101.6,114.4 101.6,114.0" style="animation:draw 0.22s linear 0.00s forwards;" /><polyline points="131.8,68.0 133.7,63.3 135.2,58.6 136.6,55.4 137.6,51.1 139.0,47.8 140.4,44.6 141.9,40.3 143.3,36.6 144.8,33.0 147.7,29.4 151.7,25.5 157.6,21.6 162.0,20.0 166.3,20.0 170.6,20.9 174.0,22.4 177.1,24.2 180.8,27.3 183.1,31.6 185.4,35.6 187.6,39.9 189.2,43.8 189.2,48.3 188.8,52.8 186.7,56.1 185.8,59.3 189.7,62.3 193.6,62.3 196.8,62.3 199.9,62.3 203.5,62.7 207.7,63.7 210.9,64.4 213.9,64.6 217.9,65.7 220.9,66.4 224.3,67.4 230.0,70.2 233.2,72.7 234.9,76.3 235.5,80.1 236.0,83.8 236.0,87.6 236.0,91.4 235.6,96.0 232.5,99.8 228.2,102.5 222.4,103.4 217.0,103.1 213.7,102.4 210.3,101.7 204.4,99.9 199.4,98.5 193.3,95.9 189.7,94.1 186.1,91.9 182.5,89.8 178.6,87.6 174.4,85.5 170.8,83.9 167.5,82.5 162.0,81.5 160.1,85.8 161.6,91.5 162.0,95.1 162.0,98.9 161.8,103.0 161.1,106.0 159.6,110.0 156.8,114.4 152.5,117.3 149.0,118.7 143.9,120.6 140.3,121.7 136.7,122.3 133.1,123.0 129.5,123.5 126.2,123.5 122.7,123.5 119.1,123.3 115.2,123.1 108.3,122.7 104.0,121.9 99.8,121.2 95.4,120.5 91.8,120.1 86.5,120.1 83.5,120.1" style="animation:draw 0.22s linear 0.22s forwards;" /><polyline points="57.8,105.7 56.2,108.8 52.4,114.7 45.5,124.8 42.4,128.3 36.9,133.4 32.6,136.7 29.6,139.1 29.1,140.5" style="animation:draw 0.22s linear 0.44s forwards;" /><polyline points="83.5,113.3 80.8,116.3 75.0,122.4 69.0,128.1 61.5,135.5 54.8,142.9 49.1,149.3 44.3,155.6 43.4,157.1" style="animation:draw 0.22s linear 0.67s forwards;" /><polyline points="129.9,126.5 133.5,136.1 136.4,142.1 138.5,146.7 140.3,150.7 142.5,155.5 145.9,160.3 148.1,163.6 148.1,163.6" style="animation:draw 0.22s linear 0.89s forwards;" /><polyline points="162.4,111.4 165.9,119.3 169.2,124.2 172.0,128.5 175.0,132.9 178.6,137.9 183.0,143.4 183.0,143.4" style="animation:draw 0.22s linear 1.11s forwards;" /><polyline points="196.4,38.1 196.4,38.1" style="animation:draw 0.22s linear 1.33s forwards;" /><polyline points="230.0,67.2 227.2,61.5 225.6,56.9 225.0,52.6 225.0,48.7 225.0,45.6 225.0,41.4 226.2,35.5 226.2,31.0 230.0,31.4 233.4,35.7 233.7,40.0 233.4,43.4 232.7,47.3 232.0,50.7 229.8,56.5 228.8,60.8 226.9,65.7 226.2,67.2" style="animation:draw 0.22s linear 1.56s forwards;" /><polyline points="227.7,66.4 225.7,75.2 224.5,80.1 223.9,82.3" style="animation:draw 0.22s linear 1.78s forwards;" /><title>rhinoceros #4</title></svg>