<?xml version="1.0" encoding="UTF-8"?>
<svg xmlns="http://www.w3.org/2000/svg" width="256" height="256" viewBox="0 0 256 256"><style>polyline{fill:none;stroke:#000;stroke-width:2;stroke-linecap:round;stroke-linejoin:round;stroke-dasharray:1000;stroke-dashoffset:1000}@keyframes draw{to{stroke-dashoffset:0;}}</style><polyline points="20.0,32.1 25.5,28.8 31.0,26.6 37.6,24.4 43.1,25.5 48.7,25.5 54.2,25.5 59.7,27.7 65.2,32.1 70.7,36.5 76.2,40.9 81.7,44.2 87.2,48.7 92.7,55.3 99.3,61.9 106.0,67.4 109.3,72.9 114.8,76.2 119.2,81.7 124.7,86.1 130.2,90.5 135.7,93.8 141.2,94.9 146.7,96.0 152.2,99.3 157.8,100.4 163.3,100.4 168.8,100.4 174.3,100.4 179.8,100.4 185.3,99.3 190.8,98.2 196.3,97.1 201.8,96.0 207.3,93.8 211.8,88.3 217.3,87.2 222.8,83.9 226.1,80.6" style="animation:draw 0.29s linear 0.00s forwards;" /><polyline points="212.9,80.6 216.2,75.1 218.4,69.6 222.8,64.1 225.0,58.6 226.1,53.1 228.3,47.6 230.5,42.0 229.4,36.5 230.5,31.0 230.5,25.5 230.5,32.1 230.5,37.6 230.5,43.1 229.4,49.8 229.4,55.3 230.5,60.8 231.6,66.3 231.6,71.8 232.7,77.3 231.6,82.8 226.1,85.0 220.6,85.0 223.9,79.5 226.1,74.0 226.1,68.5 227.2,65.2" style="animation:draw 0.29s linear 0.29s forwards;" /><polyline points="22.2,141.2 27.7,136.8 33.2,134.6 38.7,131.3 44.2,130.2 50.9,129.1 56.4,129.1 61.9,130.2 65.2,135.7 70.7,139.0 72.9,144.5 75.1,150.0 77.3,155.6 79.5,161.1 85.0,166.6 88.3,172.1 93.8,175.4 99.3,176.5 104.9,176.5 110.4,176.5 115.9,176.5 121.4,176.5 126.9,176.5 132.4,175.4 137.9,175.4 143.4,174.3 148.9,174.3 154.4,173.2 160.0,172.1 165.5,171.0 171.0,169.9 176.5,167.7 182.0,165.5 187.5,164.4 193.0,163.3 198.5,161.1 204.0,158.9 209.6,158.9 215.1,154.4 220.6,150.0 226.1,147.8 231.6,143.4 233.8,137.9 236.0,132.4 236.0,126.9 236.0,121.4 234.9,115.9 232.7,110.4 228.3,104.9 225.0,99.3 219.5,97.1 215.1,93.8" style="animation:draw 0.29s linear 0.57s forwards;" /><polyline points="70.7,69.6 72.9,75.1 71.8,69.6 66.3,66.3 61.9,71.8 65.2,77.3 68.5,71.8 71.8,65.2 66.3,67.4 68.5,60.8 68.5,55.3 63.0,50.9 57.5,55.3 55.3,56.4" style="animation:draw 0.29s linear 0.86s forwards;" /><polyline points="194.1,126.9 201.8,128.0 207.3,128.0 217.3,128.0 222.8,126.9 228.3,123.6 219.5,121.4 211.8,122.5 206.2,124.7 200.7,124.7 195.2,125.8 189.7,125.8 195.2,129.1 200.7,126.9 206.2,125.8 199.6,124.7 193.0,124.7 186.4,124.7 179.8,123.6 169.9,124.7 164.4,124.7 158.9,124.7 157.8,124.7" style="animation:draw 0.29s linear 1.14s forwards;" /><polyline points="231.6,20.0 232.7,25.5 233.8,31.0 233.8,36.5 234.9,42.0 236.0,47.6 236.0,53.1 233.8,60.8 230.5,69.6 228.3,75.1 222.8,77.3 217.3,80.6 211.8,80.6 206.2,80.6 200.7,80.6 195.2,81.7 189.7,83.9 194.1,77.3 200.7,71.8 205.1,67.4" style="animation:draw 0.29s linear 1.43s forwards;" /><polyline points="150.0,93.8 151.1,88.3 154.4,82.8 160.0,74.0 163.3,67.4 166.6,58.6 169.9,52.0 168.8,57.5 166.6,63.0 163.3,68.5 161.1,74.0 157.8,79.5 160.0,71.8 165.5,61.9 167.7,56.4 169.9,50.9 168.8,57.5 165.5,67.4 161.1,78.4 156.7,87.2 151.1,96.0 155.6,82.8 157.8,77.3 163.3,69.6 164.4,64.1 158.9,70.7 153.3,76.2 153.3,77.3" style="animation:draw 0.29s linear 1.71s forwards;" /><title>rhinoceros #1</title></svg>