<?xml version="1.0" encoding="UTF-8"?>
<svg xmlns="http://www.w3.org/2000/svg" width="256" height="256" viewBox="0 0 256 256"><style>polyline{fill:none;stroke:#000;stroke-width:2;stroke-linecap:round;stroke-linejoin:round;stroke-dasharray:1000;stroke-dashoffset:1000}@keyframes draw{to{stroke-dashoffset:0;}}</style><polyline points="22.1,39.0 39.4,38.6 41.5,38.6 42.4,36.0 42.4,33.1 42.4,30.5 42.4,28.0 42.8,25.9 43.6,23.4 43.6,21.3 45.7,20.4 47.8,21.7 49.1,24.6 50.0,27.2 50.0,29.7 50.0,32.2 50.0,34.8 50.0,36.9 52.1,37.3 54.2,37.3 56.3,37.3 58.8,37.3 60.9,37.3 63.0,37.3 65.6,37.3 68.1,37.3 70.2,37.3 72.3,37.3 74.4,37.3 76.1,34.8 76.1,32.2 76.1,30.1 76.1,27.6 76.1,25.5 76.1,23.4 76.1,21.3 78.6,20.0 80.8,20.8 82.9,21.3 85.0,21.7 85.8,24.6 84.5,27.6 84.1,30.1 84.1,33.1 84.1,35.6 84.1,37.7 86.2,39.8 87.9,41.9 90.0,43.2 92.6,45.3 95.5,46.2 98.0,46.6 101.0,46.6 103.5,46.6 106.1,46.6 108.6,47.4 111.1,47.8 113.2,48.7 115.3,50.0 117.5,52.5 120.0,54.2 122.9,54.6 125.5,54.6 128.8,54.6 133.1,54.6 136.4,54.6 139.8,54.6 143.6,54.6 148.2,54.6 151.6,54.6 155.4,54.6 160.1,54.2 164.7,53.8 169.3,53.8 174.4,53.8 178.6,53.8 182.8,53.8 187.5,53.8 191.3,53.8 195.5,53.8 197.6,53.8 200.6,53.8 204.4,52.5 204.4,54.6 204.4,57.5 204.4,60.5 204.4,63.0 204.4,67.2 204.4,70.6 204.4,72.7 204.4,75.7 204.4,77.8 204.4,81.2 204.4,84.1 204.8,87.1 205.2,90.0 206.0,94.2 206.5,97.2 207.3,99.3 208.2,101.4 207.3,101.8" style="animation:draw 0.20s linear 0.00s forwards;" /><polyline points="174.0,78.2 174.0,80.3 174.0,85.0 174.0,88.8 174.0,92.1 173.6,95.5 173.1,98.9 172.7,102.7 172.3,106.5 172.3,109.9 172.3,112.8 172.3,114.9 172.3,117.9 172.3,120.0 171.9,120.4" style="animation:draw 0.20s linear 0.20s forwards;" /><polyline points="134.3,84.5 134.3,87.1 134.3,90.5 134.3,93.8 134.3,97.2 134.3,100.6 134.3,102.7 134.3,104.8 134.3,107.3 134.3,109.9 134.3,109.9" style="animation:draw 0.20s linear 0.40s forwards;" /><polyline points="101.8,83.7 100.2,87.5 98.9,90.9 97.2,95.5 95.9,99.7 94.2,104.8 93.0,109.9 91.7,115.3 90.0,120.4 88.8,125.0 87.9,128.4 87.1,131.8 86.7,133.5" style="animation:draw 0.20s linear 0.60s forwards;" /><polyline points="20.0,41.1 21.7,43.2 23.8,44.9 26.8,47.0 30.1,49.1 33.9,51.2 36.0,52.1 39.8,53.3 43.6,55.0 47.4,56.7 52.1,57.5 54.2,57.5 56.7,57.5 60.1,57.5 63.0,57.5 66.8,58.0 70.2,58.4 73.2,59.2 75.7,60.1 79.1,60.9 82.0,61.8 84.5,62.2 86.7,63.0 88.3,65.6 90.9,69.8 94.2,74.0 95.1,76.1 96.8,79.1 96.8,81.2 96.8,83.3 96.8,85.4 95.9,89.6 95.5,91.7 94.7,95.5 93.4,99.3 91.3,104.0 88.3,110.3 85.4,116.6 82.0,123.4 79.1,128.8 76.5,132.6 74.8,137.3 73.6,141.1 73.2,143.6 75.3,142.3 77.4,141.9 78.6,141.9" style="animation:draw 0.20s linear 0.80s forwards;" /><polyline points="131.0,89.2 129.3,92.6 128.8,95.1 127.2,98.5 125.9,102.7 125.0,106.1 124.2,110.3 123.8,114.5 123.8,119.1 123.8,124.2 123.8,129.3 123.8,133.1 123.8,136.0 123.8,138.1 123.8,139.4" style="animation:draw 0.20s linear 1.00s forwards;" /><polyline points="167.7,91.3 167.7,93.4 167.7,96.4 167.7,98.9 166.8,101.4 166.4,104.0 165.5,106.9 164.3,110.3 163.4,114.1 163.0,118.3 162.6,121.7 162.6,124.6 162.6,126.3" style="animation:draw 0.20s linear 1.20s forwards;" /><polyline points="191.7,91.3 193.8,92.1 195.9,93.8 199.7,98.5 201.8,101.4 203.5,104.8 205.6,107.8 207.3,110.7 209.0,113.7 210.3,116.2 211.1,115.8" style="animation:draw 0.20s linear 1.40s forwards;" /><polyline points="206.9,51.2 209.0,53.3 211.5,55.4 214.5,58.4 217.9,61.8 221.2,65.1 224.2,68.1 226.7,71.0 229.2,73.6 232.2,75.3 234.3,76.1 236.0,76.1" style="animation:draw 0.20s linear 1.60s forwards;" /><polyline points="71.9,49.1 74.0,48.3 76.1,48.3 76.5,47.0" style="animation:draw 0.20s linear 1.80s forwards;" /><title>rhinoceros #6</title></svg>