<?xml version="1.0" encoding="UTF-8"?>
<svg xmlns="http://www.w3.org/2000/svg" width="256" height="256" viewBox="0 0 256 256"><style>polyline{fill:none;stroke:#000;stroke-width:2;stroke-linecap:round;stroke-linejoin:round;stroke-dasharray:1000;stroke-dashoffset:1000}@keyframes draw{to{stroke-dashoffset:0;}}</style><polyline points="162.5,25.2 164.6,23.4 166.3,22.7 169.0,21.7 170.8,21.0 172.5,20.7 174.2,20.3 176.2,20.0 178.0,20.0 180.0,20.0 182.1,20.7 183.8,21.7 185.5,23.1 187.2,24.8 188.6,26.5 189.6,28.6 190.7,30.6 191.7,32.4 192.7,34.1 193.1,35.8 193.8,37.9 194.1,39.6 194.4,41.6 194.8,43.4 194.8,45.1 195.1,46.8 195.5,48.5 195.8,50.2 196.5,51.9 197.2,53.7 198.9,55.4 200.6,56.4 202.3,57.1 204.1,57.4 205.8,58.1 207.5,59.1 209.2,59.8 210.9,61.2 212.6,62.6 214.4,64.3 216.1,66.0 213.7,100.0 213.0,101.7 212.3,102.8" style="animation:draw 0.40s linear 0.00s forwards;" /><polyline points="214.0,61.9 215.1,59.1 217.8,55.7 219.9,53.0 221.9,50.6 224.0,47.5 227.1,44.0 228.8,42.7 230.5,41.3 232.6,39.9 234.3,39.6 236.0,39.6 236.0,41.3 235.0,43.0 233.6,45.1 231.9,47.1 230.8,48.8 229.5,51.2 228.1,53.7 226.7,56.4 225.4,59.1 224.3,60.9 223.3,62.6 222.3,64.6 221.2,66.4 220.5,68.1 219.2,69.8 217.5,71.2 215.7,72.5 215.7,72.5" style="animation:draw 0.40s linear 0.40s forwards;" /><polyline points="175.6,35.8 178.0,35.8 179.7,35.8 180.7,37.5 180.7,39.2 180.0,41.3 179.0,43.0 178.0,44.7 176.2,46.1 174.9,44.4 174.5,42.7 174.5,40.9 174.5,39.2 174.5,37.5 174.5,36.8" style="animation:draw 0.40s linear 0.80s forwards;" /><polyline points="214.0,103.4 210.6,103.4 208.9,103.1 207.2,102.4 204.4,101.7 201.3,99.7 198.9,97.6 197.5,95.5 196.5,93.5 195.8,91.4 195.1,88.7 194.4,87.0 193.4,84.6 192.0,82.8 190.7,81.1 188.6,79.4 186.6,78.4 184.8,77.3 182.8,76.3 181.1,75.6 179.3,74.6 177.3,73.6 174.9,72.5 172.5,72.2 170.8,71.9 169.0,71.9 167.7,73.9 167.7,76.0 167.7,77.7 167.7,79.4 167.3,81.1 167.0,82.8 167.0,84.6 167.0,86.3 167.0,88.0 167.3,89.7 168.0,91.8 168.7,93.8 169.7,96.2 170.4,98.3 170.8,100.4 171.4,102.1 171.8,104.1 172.5,106.2 173.5,108.6 173.8,110.3 174.2,112.0 174.9,114.1 175.9,116.2 176.2,117.9 177.3,120.3 178.3,122.3 179.3,124.4 180.4,126.1 182.1,128.2 183.5,130.2 184.8,131.9 183.8,133.7 181.7,134.0 179.7,134.4 177.6,135.0 175.6,135.7 173.8,136.4 171.8,137.1 169.7,137.8 168.0,138.1 166.3,138.8 164.2,138.8 162.2,138.5 160.5,136.4 159.8,134.4 159.4,132.6 159.1,129.2 158.7,127.1 158.7,125.1 158.7,122.7 158.7,120.3 158.7,117.5 158.7,114.8 158.7,112.7 158.7,111.0 158.7,108.9 157.4,106.9 155.6,105.5 153.6,103.4 151.2,101.4 148.8,99.3 146.4,97.6 144.7,97.3 144.0,99.3 144.0,101.0 144.7,103.4 144.7,105.2 145.0,106.9 145.0,108.9 145.0,111.0 145.0,113.1 145.0,115.8 145.0,118.2 145.0,120.3 145.0,122.3 145.0,124.1 145.0,125.8 145.0,127.5 145.0,130.2 145.0,133.0 145.0,135.4 145.0,137.1 142.9,138.5 140.5,138.8 137.8,139.2 136.1,139.2 134.4,139.5 132.3,139.5 130.2,139.5 128.2,139.5 126.5,139.5 124.4,139.5 122.3,139.5 120.6,139.5 118.9,138.1 117.9,136.4 117.2,134.4 116.8,132.3 116.5,129.9 116.5,128.2 116.5,125.1 116.5,121.6 117.2,117.9 118.2,115.5 119.2,113.7 120.3,112.0 121.3,110.3 123.7,107.2 125.1,105.5 126.5,103.8 124.4,103.4 122.3,103.4 120.3,103.4 117.5,103.4 114.8,103.4 113.1,103.4 111.3,103.4 109.6,103.4 107.9,103.4 106.2,103.8 103.4,103.8 101.4,103.8 99.3,103.8 97.3,104.1 95.5,105.5 93.1,105.9 91.4,106.2 88.7,106.9 85.9,107.9 84.2,108.9 83.2,111.0 82.5,113.7 82.2,115.5 81.5,117.5 80.8,119.6 80.1,121.6 79.4,123.7 78.4,126.1 77.3,127.8 74.6,131.3 72.9,133.0 70.8,134.4 68.4,135.0 66.4,135.7 64.0,136.4 61.9,137.1 60.2,137.8 58.5,139.2 57.1,137.4 57.1,135.4 57.1,132.6 57.8,129.9 58.1,128.2 58.5,126.5 59.5,124.4 60.9,122.3 62.9,120.6 65.0,119.2 67.0,117.9 68.8,116.2 67.0,114.1 63.6,112.4 61.9,111.7 60.2,111.0 57.8,110.0 55.4,108.9 53.0,107.9 50.6,107.6 48.2,107.2 44.4,106.5 42.7,106.5 40.6,107.2 39.6,109.3 39.2,111.0 39.2,113.4 38.9,116.2 38.2,119.2 37.9,121.3 37.5,123.4 37.2,125.8 36.8,128.2 36.1,130.6 35.8,132.3 35.5,134.7 34.8,137.1 33.4,138.8 31.7,139.2 29.3,138.8 27.2,137.1 25.2,135.0 23.4,132.3 21.7,129.9 20.7,128.2 20.0,126.5 20.0,124.7 20.0,123.0 20.0,120.6 20.0,118.2 20.0,115.5 20.0,112.4 20.0,110.7 20.0,108.3 20.3,106.5 20.3,104.8 21.4,101.4 21.7,99.3 22.7,95.5 23.4,92.8 24.8,88.0 25.8,85.2 27.2,82.5 28.6,80.4 30.0,78.0 31.7,76.3 33.4,74.6 35.1,73.2 37.2,71.9 39.2,70.5 41.3,69.1 43.4,67.7 46.4,65.0 48.2,64.0 50.9,61.2 54.3,56.7 56.4,53.7 57.8,51.6 59.1,49.5 60.5,47.8 62.6,45.1 65.0,43.0 67.0,42.0 69.4,40.3 71.9,39.2 74.6,38.2 76.3,37.5 78.4,36.8 80.4,36.5 83.2,35.8 84.9,35.8 86.6,35.5 88.3,35.5 90.4,35.1 92.5,35.1 94.5,35.1 96.2,35.1 98.0,35.1 100.7,35.1 103.4,35.8 105.9,36.8 108.9,38.9 110.7,39.9 112.4,40.9 114.4,42.3 116.8,43.7 118.6,45.4 120.6,46.8 122.3,48.2 124.4,49.2 127.1,50.9 128.9,51.2 131.6,51.6 134.0,51.6 135.7,51.2 137.4,50.2 140.2,49.2 142.6,48.2 144.3,47.1 147.1,46.1 149.8,45.1 153.2,43.7 155.0,43.0 159.8,41.3 161.5,40.9 164.9,39.9 167.3,39.2 169.7,38.5 172.5,37.5 174.2,36.8 175.6,35.1 174.5,34.8" style="animation:draw 0.40s linear 1.20s forwards;" /><polyline points="163.9,39.9 163.5,37.9 163.5,34.8 163.5,31.7 163.5,29.6 163.5,27.6 163.5,25.8 164.2,24.1 164.9,23.8" style="animation:draw 0.40s linear 1.60s forwards;" /><title>rhinoceros #10</title></svg>