<?xml version="1.0" encoding="UTF-8"?>
<svg xmlns="http://www.w3.org/2000/svg" width="256" height="256" viewBox="0 0 256 256"><style>polyline{fill:none;stroke:#000;stroke-width:2;stroke-linecap:round;stroke-linejoin:round;stroke-dasharray:1000;stroke-dashoffset:1000}@keyframes draw{to{stroke-dashoffset:0;}}</style><polyline points="89.2,64.7 86.0,62.8 82.4,61.2 77.8,59.8 74.7,59.0 71.5,59.1 68.5,60.7 66.1,63.7 62.7,65.7 59.4,67.6 55.4,68.6 51.8,68.6 48.7,70.5 45.1,73.2 43.0,76.4 42.6,79.6 43.8,82.9 46.3,86.2 49.6,88.8 53.2,90.8 56.3,92.0 60.5,92.6 64.2,92.6 68.1,92.2 71.9,91.6 75.4,91.4 78.6,90.9 81.7,89.8 82.6,89.2" style="animation:draw 0.40s linear 0.00s forwards;" /><polyline points="55.7,67.4 53.6,64.3 49.5,58.9 46.3,54.9 42.4,50.4 38.3,45.9 34.2,41.4 30.6,37.3 25.2,31.3 21.9,26.6 20.5,23.4 20.0,20.0 21.5,24.0 22.2,27.5 23.2,30.9 24.3,34.2 25.4,37.2 28.0,42.8 29.3,45.8 32.0,51.0 34.7,56.1 37.5,60.8 40.8,65.1 45.0,68.9 48.4,71.5 50.8,72.7" style="animation:draw 0.40s linear 0.40s forwards;" /><polyline points="86.8,87.5 89.0,90.5 92.0,91.6 95.6,95.3 96.5,98.4 97.3,102.2 98.8,105.7 100.4,108.7 102.7,111.9 104.6,114.8 108.0,118.2 111.3,120.8 114.6,123.0 119.5,124.7 123.1,126.3 126.6,127.2 131.1,128.3 135.2,128.9 142.6,130.0 145.9,130.1 149.0,130.4 152.8,130.3 158.8,129.8 163.8,128.9 166.9,128.7 172.1,127.7 176.4,126.9 183.2,126.1 189.4,125.2 193.4,124.7 197.1,123.9 199.7,122.5" style="animation:draw 0.40s linear 0.80s forwards;" /><polyline points="89.9,69.8 96.7,66.1 100.9,64.6 104.6,63.2 107.9,61.8 112.9,59.2 116.0,58.1 120.7,56.6 124.7,55.5 129.7,54.3 134.7,53.2 138.4,52.7 141.7,52.5 147.5,52.0 152.3,51.8 160.3,51.8 164.0,51.8 172.7,52.4 176.6,52.7 189.2,54.4 193.3,55.2 197.3,56.0 205.2,58.0 208.6,59.1 214.3,62.0 217.4,64.1 222.1,68.0 225.4,71.6 228.6,75.6 232.1,80.7 234.7,85.5 236.0,89.3 235.1,93.0 232.0,97.2 227.6,101.6 222.7,106.4 218.6,110.1 214.5,113.8 211.1,116.3 207.7,117.4 203.2,118.1 202.1,118.4" style="animation:draw 0.40s linear 1.20s forwards;" /><polyline points="111.0,121.3 111.8,126.1 112.4,130.9 112.6,136.0 112.6,141.7 112.9,146.8" style="animation:draw 0.40s linear 1.60s forwards;" /><title>rhinoceros #2</title></svg>