<?xml version="1.0" encoding="UTF-8"?>
<svg xmlns="http://www.w3.org/2000/svg" width="256" height="256" viewBox="0 0 256 256"><style>polyline{fill:none;stroke:#000;stroke-width:2;stroke-linecap:round;stroke-linejoin:round;stroke-dasharray:1000;stroke-dashoffset:1000}@keyframes draw{to{stroke-dashoffset:0;}}</style><polyline points="31.4,133.5 30.3,136.5 29.6,139.4 29.2,141.6 28.8,143.8 28.5,146.1 28.1,148.6 28.1,150.5 28.1,153.1 28.1,154.9 28.1,156.8 28.1,159.0 28.1,161.2 28.1,163.0 28.1,165.2 28.1,168.9 28.5,173.0 28.5,177.0 28.8,181.4 29.2,185.5 29.6,188.5 30.0,191.0 30.7,192.9 32.2,194.7 34.7,195.5 37.7,195.8 40.6,195.5 42.5,195.1 45.4,194.3 48.0,193.6 51.0,192.1 53.2,190.7 55.4,188.5 56.1,186.6 57.2,184.0 57.6,182.2 58.0,180.0 58.3,177.0 58.7,173.7 58.7,169.7 58.7,165.6 58.7,163.4 58.7,160.1 58.7,157.1 59.1,154.2 59.1,151.6 59.1,149.7 59.1,147.2 59.1,145.3 59.1,143.5 59.1,141.3 59.1,138.7 59.4,136.8 59.4,135.0 59.1,137.2 59.1,139.4 58.7,142.4 58.7,146.4 58.3,149.4 58.7,154.2 58.7,158.6 59.1,162.3 59.4,165.2 59.8,167.1 60.2,169.3 60.5,171.1 61.7,173.3 62.8,175.5 63.5,177.4 64.6,179.2 66.1,181.8 67.5,184.4 68.7,186.2 70.5,187.0 72.3,187.3 74.2,186.6 76.0,185.1 78.2,183.7 80.5,181.4 82.3,180.0 84.1,177.4 86.0,175.2 87.1,173.0 88.2,170.8 89.3,168.5 90.0,166.7 91.1,164.9 91.9,162.6 92.6,160.8 93.7,158.6 94.5,156.4 95.2,154.5 95.9,152.7 96.3,150.9 96.3,149.0 97.0,147.2 97.4,145.3 97.4,143.5 98.1,141.3 97.0,145.7 95.6,150.9 91.9,165.6 90.8,170.8 89.7,176.7 88.9,181.4 88.6,184.8 88.6,187.0 88.6,188.8 88.6,191.0 89.3,193.2 90.0,195.8 91.1,198.0 92.2,200.2 93.0,202.1 94.1,203.9 95.9,203.9 97.8,203.6 101.1,201.0 102.9,199.5 104.4,197.7 107.4,192.5 108.8,189.6 109.9,187.0 112.2,182.9 114.7,177.8 119.9,167.1 122.5,162.3 125.4,156.4 126.9,153.8 127.6,152.0 128.7,150.1 129.5,147.9 130.9,145.3 133.2,141.3 133.9,139.4 134.3,137.6 133.5,135.7 131.7,139.4 131.3,141.3 130.6,145.0 129.8,147.5 129.5,149.4 129.1,151.2 128.4,153.4 128.0,155.3 128.0,157.9 128.0,159.7 128.4,161.5 128.4,163.8 128.7,165.6 128.7,167.8 128.7,169.7 129.1,171.5 129.1,173.3 130.6,175.5 132.4,177.4 134.6,177.4 137.2,176.3 139.1,175.2 140.9,174.1 142.4,171.9 143.8,170.0 145.3,168.2 146.4,166.3 147.5,164.5 148.3,162.6 148.6,160.8 148.6,158.6 149.4,156.0 151.2,151.6 152.3,149.4 153.1,147.2 153.8,145.3 154.9,143.5 155.6,141.3 156.0,139.4 156.8,137.6 158.6,136.5 160.8,136.1 162.6,136.1 167.1,135.4 171.9,134.6 175.9,133.9 179.6,133.2 182.2,132.4 184.4,131.7 186.6,130.2 188.5,128.7 190.3,125.8 191.8,121.0 193.2,115.8 193.6,114.0 194.3,108.1 194.0,101.5 193.6,95.6 192.9,93.0 192.1,88.9 191.4,84.5 190.7,80.8 189.9,79.0 188.5,75.3 187.3,72.7 185.9,70.5 184.4,68.7 181.8,65.0 179.6,62.0 175.9,59.1 173.7,57.6 170.0,56.1 164.9,54.3 158.6,53.5 152.3,53.2 147.9,52.8 145.3,52.8 140.9,52.4 137.2,52.1 134.3,51.7 131.3,51.7 126.9,51.7 121.4,52.1 116.9,52.4 112.9,53.2 103.3,54.6 98.9,55.8 95.2,56.5 92.2,57.2 88.9,58.7 86.3,59.8 58.7,70.5 54.6,72.3 51.0,73.8 46.5,75.7 40.6,78.2 36.6,79.7 34.4,80.8 32.5,82.3 31.4,84.5 30.3,87.1 30.3,90.0 30.0,94.5 29.2,98.1 28.5,101.8 27.7,105.9 26.6,109.2 25.5,113.6 24.4,117.3 23.3,121.0 22.2,123.9 21.8,126.5 20.7,130.6 20.4,133.9 20.4,137.6 20.4,140.5 20.0,142.7 20.0,145.0 20.0,147.2 22.2,148.6 24.8,148.6 27.4,149.0 30.3,148.6 33.3,148.3 35.1,147.5 35.8,147.5" style="animation:draw 0.50s linear 0.00s forwards;" /><polyline points="156.0,81.9 156.0,79.3 157.9,77.9 159.3,79.7 157.5,80.5 156.8,78.6 157.1,78.6" style="animation:draw 0.50s linear 0.50s forwards;" /><polyline points="147.9,96.3 149.4,98.5 150.9,100.4 152.7,102.9 154.2,104.8 156.0,105.9 157.9,106.6 160.1,107.0 162.3,107.0 166.0,106.6 168.2,106.6 170.8,106.6 173.0,105.9 174.8,105.1 176.7,104.0 180.0,102.6 183.7,100.4 185.5,99.2 187.3,97.8 187.0,97.4" style="animation:draw 0.50s linear 1.00s forwards;" /><polyline points="185.9,70.5 186.6,68.7 193.6,57.2 204.3,44.3 210.9,37.3 214.6,34.0 217.2,32.2 220.5,30.0 223.1,28.1 224.9,27.0 228.3,25.2 230.5,23.7 232.3,22.6 234.2,21.8 236.0,20.0 235.3,21.8 232.3,26.3 230.8,28.5 228.6,32.9 226.8,37.0 225.3,39.5 224.2,41.7 221.6,46.9 218.7,52.4 217.2,55.4 215.4,59.1 213.1,63.1 211.3,66.4 209.8,69.0 208.0,71.6 206.1,73.8 203.9,76.8 202.1,79.3 201.0,81.6 199.9,83.4 199.1,85.2 198.0,87.1 196.9,88.9 195.5,90.8 194.3,92.6 194.3,92.6" style="animation:draw 0.50s linear 1.50s forwards;" /><title>rhinoceros #9</title></svg>