<?xml version="1.0" encoding="UTF-8"?>
<svg xmlns="http://www.w3.org/2000/svg" width="256" height="256" viewBox="0 0 256 256"><style>polyline{fill:none;stroke:#000;stroke-width:2;stroke-linecap:round;stroke-linejoin:round;stroke-dasharray:1000;stroke-dashoffset:1000}@keyframes draw{to{stroke-dashoffset:0;}}</style><polyline points="174.3,122.9 174.3,124.3 174.3,127.3 174.0,129.5 173.8,133.1 173.8,136.4 173.8,138.9 173.5,141.7 173.5,144.7 173.5,147.8 173.5,151.9 173.5,156.3 173.5,162.7 172.9,169.6 172.9,178.2 172.7,186.8 172.7,196.2 172.1,210.8 172.1,216.4 172.1,219.7 172.1,222.4 172.1,223.8 172.1,225.5 171.8,226.9 171.8,228.3 171.8,229.6 170.7,226.6 170.7,226.6" style="animation:draw 0.25s linear 0.00s forwards;" /><polyline points="126.5,122.9 126.5,124.8 126.2,127.9 125.6,132.6 125.1,137.0 124.0,142.2 123.7,146.9 122.9,150.5 122.3,153.9 122.1,157.2 121.5,160.8 120.9,164.1 120.4,168.0 119.6,171.3 119.3,174.3 118.5,177.4 117.4,181.0 116.8,184.0 116.2,186.8 116.0,189.0 115.7,190.9 115.4,192.3 114.6,194.8 114.0,197.3 113.8,199.5 113.8,197.6 113.8,196.7" style="animation:draw 0.25s linear 0.25s forwards;" /><polyline points="114.6,196.7 113.8,198.1 113.5,199.5 113.2,201.4 112.9,204.2 112.9,205.6 112.9,207.2 112.9,209.2 112.9,210.6 112.9,212.2 112.9,213.6 112.9,215.0 112.9,216.4 114.9,214.7 115.4,213.3 116.8,212.2 117.6,210.6 117.6,210.6" style="animation:draw 0.25s linear 0.50s forwards;" /><polyline points="176.0,120.9 177.6,120.4 179.6,119.8 181.5,120.1 183.2,121.2 184.8,122.1 186.8,122.3 188.4,122.3 190.9,122.3 194.0,122.6 197.0,122.9 204.2,123.4 207.2,123.7 210.8,124.3 213.0,124.3 215.0,124.5 216.6,124.5 218.3,123.4 220.2,122.6 222.2,121.5 223.6,120.9 224.9,120.1 228.0,118.2 229.6,116.5 231.6,115.1 233.0,113.8 234.1,112.4 234.9,111.0 235.4,109.3 236.0,107.9 236.0,106.3 236.0,103.5 236.0,101.9 234.9,99.9 233.5,99.1 231.6,97.4 229.9,96.6 228.0,95.8 226.0,95.0 223.8,95.0 221.9,95.0 220.5,95.5 219.4,94.1 218.6,92.7 220.2,91.4 221.6,90.5 221.9,88.6 221.6,86.9 220.0,84.4 218.0,81.4 215.8,78.6 212.5,75.0 207.5,71.2 202.8,67.8 191.5,60.1 185.7,57.9 181.5,56.0 177.4,54.3 175.2,53.5 173.2,53.5 171.8,53.7 170.5,54.6 169.1,55.1 166.6,55.1 164.9,55.1 162.4,55.1 160.5,55.1 158.3,55.1 155.2,55.1 152.2,55.1 149.2,55.1 145.8,55.1 142.5,55.1 138.6,55.1 127.0,54.8 125.1,54.8 123.2,54.8 120.4,54.8 118.5,54.8 116.0,54.8 110.4,54.6 108.2,54.6 106.0,54.3 99.1,54.3 96.9,54.6 95.2,55.1 93.8,55.4 92.5,56.2 90.8,57.3 89.1,58.2 87.5,59.5 86.1,61.2 85.0,62.6 84.2,64.5 83.1,65.9 82.5,67.6 81.1,70.9 80.8,72.3 80.8,73.7 80.8,75.0 81.4,76.7 83.9,78.1 85.5,78.1 87.2,79.2 89.7,79.7 92.2,80.3 90.0,81.4 87.5,82.8 84.2,84.4 79.5,86.4 73.1,89.1 67.6,91.1 64.0,92.7 61.8,94.4 58.2,98.8 57.9,100.2 57.6,101.6 57.1,103.0 57.1,104.9 57.1,106.6 57.6,109.3 58.4,110.7 59.5,112.9 60.9,115.1 62.0,116.5 64.5,119.0 66.2,120.1 69.2,121.8 73.4,123.4 75.0,124.0 78.1,124.5 80.3,124.8 82.2,125.1 84.4,125.1 86.9,125.4 89.4,125.6 92.2,125.9 94.4,126.2 97.2,126.8 100.5,127.0 103.5,127.6 106.8,127.6 109.6,127.6 111.0,127.6 112.4,127.3 113.8,127.3 115.1,126.2 115.7,124.5 115.7,122.6 115.7,122.6" style="animation:draw 0.25s linear 0.75s forwards;" /><polyline points="82.0,71.7 80.0,71.7 77.8,70.9 75.9,69.5 73.7,68.1 56.5,55.7 52.1,53.2 47.1,49.6 44.6,47.7 43.2,46.3 42.1,44.9 41.3,43.2 39.9,37.4 39.1,35.5 38.5,34.1 37.7,32.7 36.6,31.3 35.5,29.1 33.8,26.9 32.2,24.7 30.5,23.0 29.1,21.4 27.7,20.6 26.4,20.0 25.0,20.3 24.4,21.7 23.6,23.6 22.5,25.3 22.2,26.9 21.1,28.9 20.8,30.2 20.3,33.3 20.0,35.2 20.0,36.9 20.0,38.3 20.0,40.2 20.0,41.8 20.0,43.5 20.6,45.2 21.4,46.6 22.8,47.4 24.4,47.9 25.8,48.8 27.7,49.6 30.0,50.4 31.3,51.3 33.3,52.1 34.9,52.9 36.3,53.7 38.0,54.6 40.2,56.0 42.4,57.1 44.3,58.4 45.7,59.3 47.4,60.4 48.8,61.2 50.1,62.0 51.8,62.6 53.7,64.0 55.1,64.3 56.5,65.4 57.9,66.2 59.0,67.6 60.4,69.2 62.0,70.9 64.0,72.8 65.4,73.4 67.6,74.8 69.0,75.3 70.3,75.3 71.7,75.3 73.4,76.4 74.5,77.2" style="animation:draw 0.25s linear 1.00s forwards;" /><polyline points="142.8,133.9 142.2,135.3 141.7,138.1 140.6,142.5 140.0,146.4 138.9,151.1 138.6,157.5 137.8,164.9 137.0,169.3 137.0,173.2 136.7,177.9 136.2,182.3 136.2,186.5 136.2,189.8 136.2,194.0 136.2,197.3 135.6,200.3 135.6,203.4 135.6,206.1 135.6,208.6 135.6,210.8 135.6,212.5 135.3,214.4 135.3,216.1 135.3,218.0 135.1,220.0 134.5,221.3 133.4,219.1 133.1,216.4 133.1,214.2 133.9,211.7 135.3,209.2 136.4,206.4 136.4,206.4" style="animation:draw 0.25s linear 1.25s forwards;" /><polyline points="157.2,147.8 156.1,149.4 155.2,150.8 154.7,152.8 154.1,155.2 153.9,157.5 153.3,159.4 152.8,162.2 152.2,164.9 151.4,168.2 151.1,172.1 151.1,175.7 151.1,179.6 151.1,183.7 151.9,188.2 152.8,191.5 153.9,194.5 154.4,197.6 155.0,201.2 155.5,203.4 156.9,205.9 157.2,208.9 158.0,217.5 158.0,219.7 158.0,221.3 158.0,222.7 158.0,224.4 158.8,222.2 159.1,220.5 159.7,218.0 159.9,215.3 159.9,215.3" style="animation:draw 0.25s linear 1.50s forwards;" /><polyline points="117.6,119.0 119.0,119.3 121.2,119.3 124.8,119.8 128.4,119.8 132.0,120.7 135.6,120.9 138.6,121.5 141.7,122.1 144.5,122.3 146.1,122.6 148.1,122.9 149.4,122.9 152.8,123.2 154.1,123.2 156.6,123.2 158.6,122.6 160.5,121.8 161.9,121.2 163.3,120.4 165.2,119.8 167.7,120.1 169.9,120.7 176.8,120.9 178.5,120.9 179.9,120.9 181.0,120.9" style="animation:draw 0.25s linear 1.75s forwards;" /><title>flamingo #4</title></svg>