<?xml version="1.0" encoding="UTF-8"?>
<svg xmlns="http://www.w3.org/2000/svg" width="256" height="256" viewBox="0 0 256 256"><style>polyline{fill:none;stroke:#000;stroke-width:2;stroke-linecap:round;stroke-linejoin:round;stroke-dasharray:1000;stroke-dashoffset:1000}@keyframes draw{to{stroke-dashoffset:0;}}</style><polyline points="109.8,164.5 109.4,169.9 107.9,178.1 107.9,185.2 107.9,190.9 107.9,196.7 104.2,204.7 104.2,210.3 104.2,215.9 104.2,221.5 104.2,227.1 104.2,232.6 104.2,236.0" style="animation:draw 0.50s linear 0.00s forwards;" /><polyline points="142.9,174.2 134.1,186.4 151.4,181.8 158.6,176.3 158.8,171.2 149.6,167.3 144.8,167.5 151.7,170.5 146.4,172.5 147.4,176.9" style="animation:draw 0.50s linear 0.50s forwards;" /><polyline points="181.6,159.3 176.8,157.8 170.1,157.8 163.4,157.8 153.3,157.8 147.7,157.8 142.2,157.8 133.2,157.8 124.3,157.8 117.5,159.5 112.9,159.3 104.0,159.3 95.2,159.3 88.5,158.9 79.7,159.3 74.4,158.4 67.7,153.7 62.4,141.1 61.7,132.1 73.8,114.3 89.4,100.2 110.5,90.6 131.7,86.9 151.1,85.2 165.5,86.2 175.1,89.7 187.2,105.2 190.9,111.0 194.4,115.5 203.6,125.4 208.4,139.8 211.0,153.7 209.9,160.9 204.8,163.4 197.1,165.9 188.0,166.7 177.9,166.7 170.1,166.7 166.7,166.7" style="animation:draw 0.50s linear 1.00s forwards;" /><polyline points="66.2,120.9 66.2,115.3 66.2,107.5 66.2,95.2 66.2,86.3 66.2,79.6 66.2,68.4 67.7,61.9 69.2,56.0 70.6,50.5 70.6,41.6 70.6,34.9 72.1,29.7 79.5,23.1 74.4,20.4 66.0,20.0 57.0,21.1 63.2,27.6 72.9,28.2 64.3,23.0 59.8,23.9 60.6,30.2 68.4,32.7 60.5,31.2 52.8,30.4 47.2,30.4 39.4,29.3 34.9,29.7 27.1,29.7 20.0,28.6 20.0,28.6" style="animation:draw 0.50s linear 1.50s forwards;" /><title>flamingo #3</title></svg>