<?xml version="1.0" encoding="UTF-8"?>
<svg xmlns="http://www.w3.org/2000/svg" width="256" height="256" viewBox="0 0 256 256"><style>polyline{fill:none;stroke:#000;stroke-width:2;stroke-linecap:round;stroke-linejoin:round;stroke-dasharray:1000;stroke-dashoffset:1000}@keyframes draw{to{stroke-dashoffset:0;}}</style><polyline points="52.3,143.9 51.3,146.7 50.4,149.5 49.9,154.2 49.9,156.5 49.0,159.3 48.5,162.1 47.6,165.4 46.6,168.2 46.2,171.0 45.2,173.8 44.3,177.6 43.8,179.9 43.8,185.0 43.4,188.3 42.4,191.1 42.4,193.9 42.0,197.2 41.5,200.9 41.0,203.3 40.1,206.5 39.6,208.9 39.6,211.2 38.2,214.0 38.2,216.4 37.8,219.2 37.3,222.0 35.9,224.8 35.4,227.1 36.4,229.5 38.7,231.3 41.5,232.7 43.8,234.1 46.2,235.1 48.5,236.0 49.9,233.7 49.9,231.3 48.5,229.0 46.2,227.6 49.0,229.0 51.8,230.4 54.1,231.8 56.5,231.3 56.5,229.0 56.5,226.6 54.1,224.3 52.3,222.0 51.8,219.6 51.3,216.8 51.3,213.6 51.3,211.2 51.3,208.9 51.8,206.1 51.8,203.7 52.3,201.4 53.2,199.1 53.7,196.7 53.7,193.9 53.7,191.6 54.1,189.2 55.1,186.4 55.5,184.1 56.0,181.8 56.9,179.0 57.4,176.6 58.3,173.8 59.3,171.5 59.3,168.2 59.7,165.9 60.2,163.5 60.7,161.2 60.7,158.9 61.6,155.1 62.1,152.8 62.1,150.4 62.1,147.6 62.1,144.4 62.1,142.0 62.1,139.2 62.1,136.9 62.1,134.1 62.1,130.8 62.5,128.0 63.9,124.7 64.4,122.4 64.9,119.6 64.9,117.2 65.4,114.9 65.4,112.6 65.4,112.6" style="animation:draw 0.40s linear 0.00s forwards;" /><polyline points="64.4,120.1 64.4,123.3 63.9,125.7 63.9,128.5 63.9,130.8 63.9,133.6 63.5,136.4 63.5,138.8 62.5,141.6 62.5,144.8 62.5,147.6 62.5,150.4 62.5,154.2 62.5,157.9 62.5,160.7 62.5,165.9 62.5,169.1 62.5,174.8 62.5,177.1 62.5,180.4 62.5,182.7 62.5,186.0 62.5,188.8 62.5,192.1 63.0,194.9 63.5,197.2 63.5,199.5 63.5,202.8 63.5,207.0 63.5,209.4 63.5,211.7 63.9,214.0 63.9,216.4 63.9,218.7 64.4,221.0 66.8,222.9 69.1,222.9 71.9,222.9 74.7,222.9 75.2,220.1 73.3,217.3 75.6,215.4 78.9,214.5 81.2,213.1 82.2,210.8 81.2,208.4 78.9,206.5 76.6,205.1 74.7,202.8 73.8,200.0 72.8,197.7 72.8,195.3 72.8,192.5 72.8,190.2 72.8,187.4 72.8,185.0 72.4,182.2 71.9,179.4 71.4,176.6 71.0,174.3 70.5,171.9 70.5,169.6 70.5,166.8 70.5,164.5 70.5,161.7 69.6,158.9 69.6,156.1 69.1,153.7 69.1,150.9 69.1,148.6 69.1,146.2 69.1,143.4 69.1,141.1 69.1,138.8 69.1,135.9 69.1,133.6 69.1,130.3 69.1,127.5 69.1,124.7 69.1,122.4 69.1,119.6 69.1,117.2 69.1,114.9 69.1,112.1 70.0,109.3 70.0,107.4" style="animation:draw 0.40s linear 0.40s forwards;" /><polyline points="49.0,144.8 50.9,142.5 51.8,140.2 52.3,137.8 53.2,134.5 53.2,131.7 53.7,128.5 54.1,126.1 54.6,122.9 54.1,120.5 50.9,120.5 48.5,120.5 45.7,120.5 43.4,120.5 40.1,118.2 36.8,115.8 34.5,113.5 30.8,111.2 28.4,109.3 26.1,107.4 23.7,105.6 22.3,103.2 20.9,100.9 20.5,98.5 20.0,96.2 20.0,93.9 20.0,91.5 20.0,89.2 20.0,86.9 20.0,84.5 20.0,82.2 20.0,79.4 20.5,76.6 21.4,74.2 21.9,71.4 22.8,68.6 23.7,66.3 26.5,63.9 29.4,62.1 32.2,60.2 35.4,58.3 37.8,56.9 40.1,55.1 42.9,54.1 45.2,53.7 48.1,52.3 51.3,51.8 54.1,51.8 57.4,51.3 59.7,50.9 62.5,50.4 65.8,49.9 68.2,49.9 71.9,49.0 75.2,48.5 77.5,48.5 80.3,48.1 82.6,48.1 85.0,48.1 87.8,49.0 91.5,50.4 93.9,51.3 96.7,53.2 99.5,54.1 101.8,56.0 104.2,57.9 106.5,59.7 108.8,60.7 111.2,61.1 113.5,58.8 114.9,56.5 115.8,53.7 117.2,50.9 118.2,48.5 119.6,45.7 120.5,43.4 121.5,40.6 122.4,37.8 122.9,35.4 122.9,33.1 123.8,30.8 124.7,28.4 126.6,26.1 129.4,25.1 131.7,24.2 135.0,22.3 137.4,20.9 139.7,20.0 142.5,20.0 144.8,20.0 147.2,20.0 150.0,20.0 153.2,20.0 155.6,20.9 158.9,21.9 161.2,22.8 164.5,23.7 167.3,24.7 169.6,27.0 171.9,29.4 173.4,31.7 174.3,34.0 176.6,35.9 179.0,37.8 181.8,39.6 184.1,40.6 186.9,42.0 189.2,42.4 192.1,42.9 194.4,43.8 196.7,44.3 199.1,44.8 201.9,45.7 204.7,45.7 207.5,46.2 209.8,46.2 207.5,47.6 204.2,48.1 200.5,48.1 197.7,48.1 194.4,48.1 192.1,48.1 189.7,49.0 187.4,49.0 184.1,49.5 180.8,49.5 178.0,49.5 175.2,49.5 172.9,49.5 170.5,49.5 167.7,49.5 165.4,49.5 163.1,49.5 160.7,50.9 158.4,50.9 155.6,51.3 151.4,52.7 149.0,53.2 146.7,54.1 144.4,54.6 142.0,54.6 139.2,55.5 136.9,55.5 134.5,55.5 132.2,56.5 129.9,57.4 127.5,58.3 124.7,59.3 122.4,60.7 119.1,62.5 115.4,64.9 113.0,66.8 111.6,69.1 110.7,71.4 110.2,73.8 109.8,76.1 109.8,78.4 108.8,80.8 107.4,83.1 106.0,85.5 103.7,87.8 100.9,89.7 98.1,91.5 95.7,92.9 92.9,94.3 90.6,94.8 87.8,96.2 85.5,96.2 82.6,96.7 80.3,97.1 78.0,97.1 75.6,97.6 73.3,98.1 71.0,99.0 68.2,101.4 66.3,103.7 63.9,106.0 61.6,107.9 59.3,109.8 56.9,111.6 55.5,114.0 55.5,116.8 55.5,119.1 55.5,119.1" style="animation:draw 0.40s linear 0.80s forwards;" /><polyline points="185.5,47.6 183.2,45.2 180.8,43.8 178.0,42.4 175.7,42.0 179.0,42.9 181.3,42.9 179.0,42.9 176.6,43.4 176.6,45.7 179.0,46.2 182.2,46.2 184.6,45.7 185.0,43.4 186.0,42.0" style="animation:draw 0.40s linear 1.20s forwards;" /><polyline points="66.3,101.8 69.1,101.8 71.4,102.8 74.7,102.8 77.0,103.2 80.8,103.2 84.1,103.7 87.8,104.6 91.1,104.6 93.9,105.6 98.1,105.6 101.4,105.6 104.2,105.6 107.0,105.1 109.3,101.4 110.2,98.5 110.7,96.2 111.2,92.9 111.2,90.6 111.2,88.3 111.2,85.9 111.2,83.1 111.2,79.4 110.7,76.1 110.7,73.3 110.2,70.5 109.8,68.2 112.1,66.3 114.4,64.9 116.8,63.0 117.2,62.5" style="animation:draw 0.40s linear 1.60s forwards;" /><title>flamingo #5</title></svg>