<?xml version="1.0" encoding="UTF-8"?>
<svg xmlns="http://www.w3.org/2000/svg" width="256" height="256" viewBox="0 0 256 256"><style>polyline{fill:none;stroke:#000;stroke-width:2;stroke-linecap:round;stroke-linejoin:round;stroke-dasharray:1000;stroke-dashoffset:1000}@keyframes draw{to{stroke-dashoffset:0;}}</style><polyline points="111.3,118.3 109.7,115.1 111.3,119.9 113.2,127.8 114.5,136.4 115.1,145.7 116.1,153.9 116.7,160.0 117.3,164.4 117.7,167.6 118.0,169.8 116.4,170.5 114.5,170.5 112.3,173.0 110.3,175.9 108.1,178.4 105.9,181.6 104.0,184.1 102.7,186.1 101.1,188.6 100.2,190.2 99.5,191.8 98.6,193.4 97.6,195.9 97.0,197.8 98.9,197.5 98.9,197.5" style="animation:draw 0.14s linear 0.00s forwards;" /><polyline points="111.6,166.7 112.3,168.9 112.3,170.8 112.6,172.4 112.9,174.3 113.8,176.2 114.8,178.4 115.8,180.6 117.3,183.8 119.3,188.6 121.5,191.8 122.8,194.3 122.8,194.3" style="animation:draw 0.14s linear 0.14s forwards;" /><polyline points="118.0,167.9 119.9,169.8 121.8,171.7 124.3,173.6 126.9,175.9 130.7,178.4 134.8,181.9 139.0,185.1 142.5,188.9 145.3,191.1 147.6,193.4 149.5,195.6 149.5,195.6" style="animation:draw 0.14s linear 0.29s forwards;" /><polyline points="199.7,101.1 198.1,104.3 196.2,108.8 194.6,114.5 193.4,120.2 192.1,125.6 190.8,130.7 189.9,135.8 188.6,141.2 187.0,146.6 186.4,151.1 185.4,155.2 184.1,158.4 184.1,158.4" style="animation:draw 0.14s linear 0.43s forwards;" /><polyline points="184.8,146.6 181.9,147.2 178.7,150.4 175.2,154.6 172.4,159.0 170.2,162.5 168.2,165.4 166.3,167.9 163.8,171.4 161.6,174.9 160.0,177.8 158.7,180.0 157.4,182.2 155.8,185.4 155.8,185.4" style="animation:draw 0.14s linear 0.57s forwards;" /><polyline points="182.9,150.4 183.8,153.0 185.1,154.9 186.4,157.4 187.6,160.0 188.6,162.5 189.2,165.1 190.2,167.3 190.5,169.2 191.1,171.7 191.1,172.1" style="animation:draw 0.14s linear 0.71s forwards;" /><polyline points="186.4,152.0 189.6,154.9 192.1,157.7 194.3,160.3 196.6,163.2 198.8,165.4 201.3,167.3 204.2,169.2 207.4,170.5 210.2,171.4 211.8,171.7 212.8,172.1" style="animation:draw 0.14s linear 0.86s forwards;" /><polyline points="199.4,98.6 199.4,98.6" style="animation:draw 0.14s linear 1.00s forwards;" /><polyline points="197.8,98.3 198.1,96.0 199.7,94.4 201.6,93.5 203.2,92.5 205.1,91.6 208.0,90.9 210.2,90.3 212.5,90.0 215.0,89.3 216.9,88.7 219.1,88.7 221.4,88.4 223.6,88.4 225.5,88.4 227.1,88.4 229.6,89.0 231.2,90.0 233.1,91.9 234.4,93.5 235.4,95.1 236.0,93.5 236.0,91.9 235.7,90.0 235.0,88.1 234.4,86.5 233.8,84.9 232.8,83.3 230.9,81.1 229.6,79.5 228.7,77.6 228.0,75.7 227.4,73.4 227.1,71.9 226.8,70.3 225.8,67.1 224.9,63.9 224.2,62.3 223.3,60.7 221.7,58.5 219.8,56.3 217.5,54.7 214.7,52.8 212.5,52.1 210.2,51.2 207.1,50.5 203.2,49.9 199.4,49.6 190.8,48.9 184.8,48.6 178.4,48.6 171.7,48.6 165.1,48.6 158.7,48.6 152.3,48.3 146.3,48.0 141.5,48.0 137.4,47.4 131.7,46.4 129.1,46.1 126.9,45.8 124.0,45.8 120.2,45.8 115.8,45.8 110.7,46.7 105.6,47.7 101.1,49.3 97.3,50.9 93.8,52.4 90.6,54.4 84.6,59.4 81.4,62.3 77.9,65.5 75.0,68.7 72.2,72.5 68.7,78.5 68.0,80.8 68.0,83.3 68.7,86.2 70.6,88.7 74.1,91.9 77.6,94.8 82.0,97.0 92.2,100.8 97.6,102.1 109.1,102.7 114.5,102.7 119.9,102.7 128.2,102.1 132.0,101.4 134.8,101.1 137.7,100.5 140.2,99.5 142.8,99.2 145.3,98.9 147.6,98.3 150.1,97.6 153.0,97.3 156.2,97.0 160.0,96.7 164.1,96.3 167.9,95.7 176.5,95.7 180.6,95.4 184.5,95.1 187.6,94.1 190.8,93.5 193.4,92.8 195.9,91.9 198.1,91.6 202.6,90.9 205.5,90.6 209.6,90.6 214.1,90.6 214.1,90.6" style="animation:draw 0.14s linear 1.14s forwards;" /><polyline points="105.6,102.4 104.3,105.3 104.0,107.5 103.7,109.4 103.3,112.3 103.3,114.5 103.7,114.8" style="animation:draw 0.14s linear 1.29s forwards;" /><polyline points="93.8,51.2 93.5,49.6 93.8,47.7 94.4,42.6 94.4,40.0 94.4,38.1 94.4,35.6 94.4,33.4 94.4,31.5 94.4,27.0 94.4,24.8 96.0,23.5 98.6,23.5 104.9,23.5 108.1,23.5 111.3,23.8 114.5,24.8 116.7,25.7 118.3,26.7 120.8,30.2 120.8,32.7 120.2,37.2 119.3,39.7 118.3,42.6 117.3,45.1 116.7,47.4 115.8,50.2 114.8,50.5" style="animation:draw 0.14s linear 1.43s forwards;" /><polyline points="118.3,28.0 118.9,26.4 113.2,22.9 110.0,21.6 105.9,20.3 96.7,20.0 91.9,20.0 86.2,20.0 77.3,21.3 72.5,21.9 68.4,22.5 64.5,23.5 54.0,28.6 50.5,31.1 44.8,37.5 41.9,40.7 39.4,44.2 37.5,48.6 37.2,50.2 37.2,52.8 39.7,54.7 46.4,55.9 51.8,55.9 57.9,55.6 72.5,49.9 79.8,46.4 86.5,42.9 92.2,40.0 100.5,36.5 104.3,35.0 107.5,34.0 113.5,32.4 116.4,31.5 121.5,30.8 124.0,30.2 123.7,30.2" style="animation:draw 0.14s linear 1.57s forwards;" /><polyline points="41.3,48.0 39.7,47.4 37.8,47.4 34.3,50.2 31.8,52.8 29.2,54.7 23.5,61.0 21.9,63.3 20.0,65.5 23.2,65.8 27.3,64.2 32.4,62.6 42.3,57.9 46.4,55.9 49.6,55.0 51.8,54.0 52.1,54.0" style="animation:draw 0.14s linear 1.71s forwards;" /><polyline points="58.2,38.5 58.8,40.4 59.1,42.6 60.4,43.9" style="animation:draw 0.14s linear 1.86s forwards;" /><title>flamingo #1</title></svg>