<?xml version="1.0" encoding="UTF-8"?>
<svg xmlns="http://www.w3.org/2000/svg" width="256" height="256" viewBox="0 0 256 256"><style>polyline{fill:none;stroke:#000;stroke-width:2;stroke-linecap:round;stroke-linejoin:round;stroke-dasharray:1000;stroke-dashoffset:1000}@keyframes draw{to{stroke-dashoffset:0;}}</style><polyline points="89.3,39.2 91.2,35.3 97.1,29.2 103.9,24.8 108.5,22.4 113.2,20.8 119.2,20.0 122.8,20.0 126.5,20.6 132.7,21.3 139.1,23.4 145.3,26.6 149.6,31.1 150.0,34.8 148.7,39.2 146.9,45.7 144.8,50.1 142.0,54.9 139.2,58.7 134.5,62.1 129.3,64.8 123.6,64.7 116.2,64.3 110.2,63.4 106.9,61.8" style="animation:draw 0.15s linear 0.00s forwards;" /><polyline points="90.2,33.9 90.6,37.5 91.1,41.2 91.6,45.3 92.2,49.3 92.6,49.7" style="animation:draw 0.15s linear 0.15s forwards;" /><polyline points="106.2,46.4 102.6,48.2 96.7,51.4 92.3,52.4 85.7,54.6 76.3,58.4 69.3,62.2 65.7,64.2 61.4,65.3 56.4,68.5 52.4,71.2 57.5,73.2 61.5,73.2 66.4,72.3 72.7,71.0 89.6,66.1 98.2,63.7 106.2,61.7 109.8,60.7 115.6,58.9 119.4,57.3 122.1,56.7" style="animation:draw 0.15s linear 0.31s forwards;" /><polyline points="71.8,63.4 76.9,62.5 81.6,61.5 100.5,57.0 105.4,55.2 110.1,54.5 117.2,52.0 117.2,52.0" style="animation:draw 0.15s linear 0.46s forwards;" /><polyline points="110.7,43.7 116.5,51.0 120.9,56.1 122.6,57.1" style="animation:draw 0.15s linear 0.62s forwards;" /><polyline points="121.9,66.1 124.4,70.6 126.9,74.3 131.6,84.1 133.3,88.0 133.3,88.0" style="animation:draw 0.15s linear 0.77s forwards;" /><polyline points="137.5,62.5 139.9,67.9 142.6,75.8 145.0,81.4 146.0,84.4" style="animation:draw 0.15s linear 0.92s forwards;" /><polyline points="132.6,89.3 127.3,90.6 122.2,93.4 116.3,98.4 111.8,101.5 106.7,105.1 103.0,109.1 99.1,113.4 96.5,118.1 94.3,123.4 92.0,130.8 90.6,138.9 90.6,143.1 90.6,154.0 91.1,162.8 91.9,169.0 92.4,175.0 93.5,178.7 93.5,178.7" style="animation:draw 0.15s linear 1.08s forwards;" /><polyline points="150.0,83.9 154.7,87.3 159.3,91.4 163.0,94.8 163.7,94.7" style="animation:draw 0.15s linear 1.23s forwards;" /><polyline points="121.0,138.5 124.6,133.2 131.5,123.5 146.3,100.4 161.2,82.1 167.5,74.8 174.8,68.1 189.1,59.3 202.5,57.6 208.8,59.1 211.8,66.2 204.0,83.2 194.1,93.6 184.5,102.7 166.3,115.7 181.9,104.5 198.8,96.6 206.7,94.7 213.5,95.3 226.6,101.6 214.1,114.1 208.4,118.3 190.3,128.2 186.2,130.7 201.4,134.0 209.3,136.1 223.2,141.5 222.2,152.3 201.6,159.9 169.3,160.0 164.5,159.2 161.5,157.7" style="animation:draw 0.15s linear 1.38s forwards;" /><polyline points="182.2,162.2 182.7,167.2 182.2,171.3 179.6,180.4 175.6,187.7 170.2,193.0 166.4,194.6 160.9,196.6 155.6,198.1 150.7,199.3 146.0,200.2 141.2,201.5 133.9,202.6 129.1,202.9 123.9,202.4 113.2,196.8 103.8,190.1 98.6,184.4 95.4,178.5 95.4,178.5" style="animation:draw 0.15s linear 1.54s forwards;" /><polyline points="95.1,110.8 92.4,106.8 88.3,101.5 78.3,91.2 73.6,88.7 61.2,85.6 39.5,87.3 21.9,92.8 20.0,97.2 25.9,106.5 39.2,113.6 45.0,114.7 50.0,115.2 54.5,115.2 50.2,120.1 38.0,128.9 28.4,139.6 26.5,143.5 25.8,148.4 32.5,153.0 41.2,151.1 47.9,148.0 52.5,148.8 55.3,164.7 56.7,169.0 69.1,169.1 78.9,165.1 88.3,160.0 91.3,159.5" style="animation:draw 0.15s linear 1.69s forwards;" /><polyline points="119.2,200.6 117.9,206.8 117.1,211.0 114.7,223.9 114.3,227.8 113.6,232.0 112.9,236.0" style="animation:draw 0.15s linear 1.85s forwards;" /><title>flamingo #8</title></svg>