<?xml version="1.0" encoding="UTF-8"?>
<svg xmlns="http://www.w3.org/2000/svg" width="256" height="256" viewBox="0 0 256 256"><style>polyline{fill:none;stroke:#000;stroke-width:2;stroke-linecap:round;stroke-linejoin:round;stroke-dasharray:1000;stroke-dashoffset:1000}@keyframes draw{to{stroke-dashoffset:0;}}</style><polyline points="32.6,24.2 35.4,24.2 37.2,23.7 40.9,23.3 43.3,22.8 46.5,21.9 49.8,21.4 52.6,21.4 54.9,20.9 57.7,20.9 60.0,20.5 63.3,20.0 68.4,20.0 73.1,20.0 76.3,20.5 80.1,21.9 83.3,22.8 85.2,23.3 88.4,25.1 90.3,26.1 95.4,29.8 98.2,33.5 100.5,37.2 103.3,41.4 104.3,44.2 104.3,46.5 104.7,48.4 104.7,51.2 104.7,53.1 104.7,56.3 104.7,59.1 104.7,61.4 104.7,63.3 104.7,65.6 104.7,67.9 104.7,69.8 104.7,72.1 105.2,74.5 105.2,78.7 105.2,81.9 105.2,85.2 105.2,88.4 105.2,91.7 105.2,94.9 105.2,98.2 105.2,100.5 105.2,102.9 105.2,105.2 105.2,107.1 107.1,108.4 108.9,108.4 111.2,108.4 113.6,108.4 115.4,108.4 118.7,107.1 121.9,107.1 124.7,106.6 126.6,106.6 130.8,106.6 133.6,106.6 135.4,106.6 137.3,107.1 140.1,108.9 142.0,109.8 145.2,112.2 148.9,115.9 151.7,118.7 153.6,121.0 155.5,124.3 157.3,127.1 158.7,129.9 159.7,132.7 159.7,134.5 161.1,136.8 162.0,138.7 163.4,141.5 163.8,143.4 164.3,145.2 165.2,147.6 165.7,149.4 166.2,151.3 166.6,154.5 167.1,156.4 167.6,158.3 168.0,160.1 168.5,162.0 169.0,163.8 169.4,165.7 169.4,167.6 169.9,169.4 168.0,170.8 166.2,172.2 163.8,173.2 161.5,174.1 159.7,175.0 157.8,175.9 155.0,176.4 151.7,177.8 146.6,178.3 142.4,179.2 138.2,180.1 135.0,180.6 131.7,180.6 127.1,180.6 121.5,180.6 114.5,180.1 105.2,179.2 99.1,177.8 91.7,176.4 86.6,175.0 81.0,173.2 75.9,171.8 71.2,170.8 67.9,170.4 64.2,169.4 61.9,169.0 60.0,169.0 58.2,168.5 56.3,168.5 56.3,166.6 56.3,164.8 55.4,162.4 55.4,160.1 54.0,157.3 54.0,154.1 54.0,151.7 54.0,149.4 54.0,146.2 54.9,142.9 56.3,139.2 57.2,135.9 58.2,133.1 59.6,131.3 60.5,129.4 62.4,128.0 64.2,126.1 66.1,125.2 67.5,122.9 68.9,120.6 69.8,118.2 70.3,116.4 70.7,114.5 72.6,111.7 73.1,109.8 74.9,107.1 76.3,104.7 77.7,101.9 78.7,99.6 79.1,97.3 79.6,95.4 79.6,91.2 79.6,89.4 79.6,87.0 79.1,84.2 79.1,81.9 78.7,80.1 78.7,78.2 78.2,76.3 77.3,74.5 76.3,72.6 75.9,69.8 74.9,67.9 73.1,65.2 72.1,62.4 70.7,59.6 69.8,57.7 68.4,55.8 67.0,52.6 65.6,49.8 63.8,47.5 61.9,46.5 60.0,45.1 57.7,43.7 54.9,42.3 53.1,41.4 51.2,40.5 48.9,40.0 47.0,40.0 43.3,39.1 41.4,39.1 38.6,39.1 36.8,39.1 34.9,39.1 33.0,39.1 31.2,39.1 28.8,39.1 26.1,39.1 23.7,37.2 22.3,35.4 21.4,33.0 20.9,31.2 20.0,29.3 22.3,28.8 24.2,28.4 26.5,27.9 29.3,27.9 33.0,27.0 35.8,27.0 38.2,26.5 40.0,26.5 42.3,26.5 44.2,26.5 46.5,26.5 51.7,27.0 56.3,28.8 62.4,31.2 67.5,35.8 67.5,35.8" style="animation:draw 0.40s linear 0.00s forwards;" /><polyline points="91.7,182.5 91.7,182.0" style="animation:draw 0.40s linear 0.40s forwards;" /><polyline points="91.7,178.3 93.1,181.1 93.6,182.9 94.0,185.3 94.5,189.0 95.4,192.7 95.9,197.8 96.3,203.4 96.3,209.0 96.3,213.2 96.3,216.0 96.3,219.2 96.3,222.5 96.3,224.4 96.3,226.2 96.3,228.6 96.3,230.4 96.3,232.7 96.8,234.6 97.3,236.0" style="animation:draw 0.40s linear 0.80s forwards;" /><polyline points="125.7,186.2 125.7,184.3 125.7,182.5 126.6,185.3 127.5,188.5 127.5,191.3 127.5,193.6 127.5,196.4 127.5,198.3 128.0,201.1 128.0,203.9 128.0,206.2 128.5,210.4 128.5,212.7 128.5,214.6 128.5,216.4 128.5,219.2 128.5,221.6 128.5,223.4 128.5,225.3 128.5,226.2" style="animation:draw 0.40s linear 1.20s forwards;" /><polyline points="96.3,132.2 98.7,133.6 100.5,134.5 101.9,136.4 104.3,137.8 105.2,139.6 107.1,141.5 108.9,143.4 111.2,145.7 113.1,147.6 115.4,148.5 117.3,149.9 119.6,150.8 122.9,151.7 125.2,152.7 127.5,153.1 130.3,154.1 133.1,154.1 135.9,154.1 138.2,154.1 140.6,154.1 143.8,154.1 146.6,153.6 148.9,152.7 150.8,152.2 153.1,151.3 155.0,151.3 157.3,150.3 159.2,149.4 161.1,148.9 162.9,148.0 165.2,147.1 165.7,146.2" style="animation:draw 0.40s linear 1.60s forwards;" /><title>flamingo #9</title></svg>