<?xml version="1.0" encoding="UTF-8"?>
<svg xmlns="http://www.w3.org/2000/svg" width="256" height="256" viewBox="0 0 256 256"><style>polyline{fill:none;stroke:#000;stroke-width:2;stroke-linecap:round;stroke-linejoin:round;stroke-dasharray:1000;stroke-dashoffset:1000}@keyframes draw{to{stroke-dashoffset:0;}}</style><polyline points="59.5,71.0 60.8,73.1 62.9,74.9 65.5,77.4 67.6,79.1 70.2,80.8 72.7,82.5 74.9,82.9 89.3,85.1 91.4,85.5 94.0,86.3 97.4,87.2 100.4,88.5 104.2,88.9 107.6,89.7 110.6,89.7 116.9,89.7 121.6,89.7 123.7,89.7 125.9,89.7 128.0,89.7 130.1,89.7 133.1,88.9 136.1,88.0 137.8,85.9 139.9,84.2 142.0,82.5 144.2,81.7 146.3,77.0 147.1,74.9 147.1,72.7 147.6,70.6 148.0,68.0 149.3,60.4 150.1,58.3 150.5,56.1 148.0,55.7 146.7,56.6" style="animation:draw 0.25s linear 0.00s forwards;" /><polyline points="61.2,67.2 63.4,65.9 65.1,63.4 67.2,61.7 69.3,61.2 71.4,60.8 75.3,60.8 77.4,61.7 80.0,62.9 82.5,63.8 84.6,64.2 86.8,65.1 94.8,67.2 97.4,67.6 99.9,68.9 102.1,69.3 104.6,69.7 106.7,70.2 114.0,70.2 116.1,70.2 119.5,70.2 121.6,70.2 125.9,68.9 128.0,67.6 129.3,65.5 131.0,63.4 133.1,61.7 136.1,59.1 138.2,57.8 140.3,56.1 142.5,55.7 144.6,55.7 148.0,56.1 148.0,56.1" style="animation:draw 0.25s linear 0.25s forwards;" /><polyline points="148.0,56.6 145.9,56.6 143.7,55.3 143.3,53.2 144.2,51.0 145.4,48.9 148.0,46.8 151.0,44.7 153.5,43.4 156.1,42.5 158.2,40.8 159.9,38.3 161.2,36.2 162.9,33.2 164.6,31.1 166.7,29.4 173.9,25.5 176.9,23.8 179.9,22.6 182.0,21.7 184.1,21.3 186.3,20.9 188.4,20.0 190.5,20.0 192.6,20.0 194.8,20.0 196.9,20.0 196.0,22.6 193.9,26.0 190.9,28.5 188.0,34.0 188.0,34.0" style="animation:draw 0.25s linear 0.50s forwards;" /><polyline points="153.9,57.0 153.9,54.9 154.4,52.7 156.5,50.6 158.6,49.8 160.7,48.1 163.3,47.2 165.4,45.5 167.5,45.1 170.1,43.8 172.6,43.0 177.7,39.1 179.0,37.0 180.7,34.9 183.7,31.1 184.6,28.9 185.4,26.8 187.5,26.0 189.7,26.0 191.8,26.4 192.6,28.9 193.1,31.1 193.5,32.8" style="animation:draw 0.25s linear 0.75s forwards;" /><polyline points="191.8,30.2 193.9,31.1 196.0,33.2 196.9,35.3 197.7,37.9 203.7,45.1 207.5,47.6 210.1,48.9 212.6,50.2 220.3,54.4 226.2,57.8 230.9,60.0 233.0,60.8 236.0,62.1 233.9,62.1 231.3,61.7 227.9,60.8 224.9,58.7 222.8,57.8 220.7,56.1 218.6,54.0 216.9,51.9 214.3,46.8 213.0,44.7 210.9,41.7 204.5,34.0 202.4,31.5 197.3,27.7 195.2,26.8 193.5,27.2" style="animation:draw 0.25s linear 1.00s forwards;" /><polyline points="109.7,91.4 107.2,94.8 105.9,99.1 105.5,101.6 104.2,104.2 103.8,106.3 102.5,109.3 100.4,112.7 97.4,116.1 95.3,119.1 92.7,122.0 89.7,124.6 87.6,126.7 86.3,128.9 81.7,136.5 80.8,138.6 80.8,140.8 83.4,142.0 85.5,142.9 88.9,144.2 92.3,145.4 97.0,147.1 114.0,153.9 117.8,154.4 119.1,154.4" style="animation:draw 0.25s linear 1.25s forwards;" /><polyline points="83.8,84.6 81.2,88.0 77.4,94.0 75.7,98.2 72.7,103.3 71.4,105.5 71.0,108.0 68.5,113.5 68.0,115.7 65.5,119.9 63.8,128.0 63.4,132.3 62.1,136.5 61.2,141.6 58.7,145.9 57.0,149.3 54.4,151.8 52.3,154.4 52.3,156.5 54.4,156.5 56.6,156.5 59.1,156.5 62.5,156.5 65.1,156.5 69.7,156.1 71.9,154.8 72.7,152.2 72.7,152.2" style="animation:draw 0.25s linear 1.50s forwards;" /><polyline points="62.1,74.9 60.0,74.4 57.0,74.0 54.4,74.0 51.9,74.9 49.3,75.3 44.2,76.6 40.8,77.4 37.9,78.3 22.6,79.5 20.0,79.5 26.8,77.0 29.4,76.1 32.8,74.9 35.3,74.4 39.6,72.3 42.1,70.6 45.5,68.9 47.6,68.0 50.2,67.6 55.7,65.5 58.3,64.6 60.4,64.6 65.9,63.8 74.4,63.8 76.6,63.8 82.9,62.5 86.3,61.7 84.6,61.7" style="animation:draw 0.25s linear 1.75s forwards;" /><title>flamingo #7</title></svg>