<?xml version="1.0" encoding="UTF-8"?>
<svg xmlns="http://www.w3.org/2000/svg" width="256" height="256" viewBox="0 0 256 256"><style>polyline{fill:none;stroke:#000;stroke-width:2;stroke-linecap:round;stroke-linejoin:round;stroke-dasharray:1000;stroke-dashoffset:1000}@keyframes draw{to{stroke-dashoffset:0;}}</style><polyline points="20.5,62.8 20.0,60.0 20.0,57.3 20.5,54.5 21.6,51.2 22.7,48.0 24.4,44.7 27.7,40.8 30.4,37.5 33.2,34.3 35.4,31.0 38.6,27.7 41.4,25.5 44.1,24.4 46.9,22.7 50.2,21.1 54.5,20.5 58.4,20.0 61.1,20.0 64.4,20.5 67.1,21.6 69.9,22.2 73.2,23.3 75.9,24.9 78.7,27.1 80.3,29.9 80.9,32.6 82.5,35.4 84.7,38.1 85.8,41.4 86.9,44.1 87.4,46.9 88.0,49.6 88.5,52.3 89.6,55.6 89.6,58.9 89.6,62.2 89.6,65.0 90.2,67.7 90.7,71.0 91.3,73.7 91.3,77.0 91.8,79.8 92.4,82.5 92.9,85.8 93.5,88.5 94.6,91.3 95.1,94.0 97.8,96.8 100.6,99.5 103.3,101.1 106.1,102.2 108.8,103.3 111.6,103.3 114.3,103.3 117.0,103.3 119.8,103.3 122.5,102.8 125.3,101.7 128.0,101.7 131.3,101.1 134.0,100.0 136.8,99.5 139.5,98.9 142.8,97.8 145.5,97.8 148.3,96.8 151.0,96.8 153.8,95.7 157.1,95.1 159.8,95.1 162.5,94.6 165.8,94.0 169.1,92.9 172.4,92.9 175.1,92.9 177.9,92.4 180.6,91.8 183.9,91.8 186.7,91.8 189.4,91.8 192.1,91.8 194.9,91.8 197.6,91.8 200.9,92.4 204.2,92.9 206.9,94.0 210.2,95.1 213.0,96.8 217.4,99.5 220.1,100.6 222.8,102.8 225.6,105.0 228.3,107.7 230.5,110.5 232.7,113.2 234.4,116.5 235.5,119.2 236.0,122.0 236.0,125.8 236.0,128.5 235.5,131.3 233.8,134.6 231.6,137.9 230.0,140.6 227.8,143.4 225.0,145.5 221.7,147.2 219.0,148.8 216.3,150.5 213.5,152.1 210.2,153.8 205.8,156.0 202.6,157.1 198.7,158.2 194.9,159.2 192.1,159.8 187.8,160.9 183.4,162.0 179.5,163.1 175.7,163.6 172.4,163.6 169.7,163.1 166.9,162.5 164.2,161.4 160.9,160.3 158.2,160.3 155.4,159.8 152.7,159.2 149.9,158.2 147.2,158.2 144.4,157.6 141.7,157.6 141.7,160.3 142.8,164.2 142.8,166.9 143.4,170.2 143.9,173.5 143.9,176.2 143.9,179.5 144.4,182.8 145.0,185.6 145.5,188.3 145.5,192.7 146.1,196.0 146.6,198.7 147.2,202.0 148.3,205.8 148.8,209.1 149.4,211.9 149.9,215.7 151.0,220.1 151.0,222.8 151.0,226.7 151.0,230.0 151.6,232.7 150.5,235.5 147.7,235.5 145.0,235.5 142.3,235.5 139.5,235.5 137.9,232.7 139.5,230.0 141.7,227.2 143.9,226.1" style="animation:draw 2.00s linear 0.00s forwards;" /><title>flamingo #10</title></svg>