<?xml version="1.0" encoding="UTF-8"?>
<svg xmlns="http://www.w3.org/2000/svg" width="256" height="256" viewBox="0 0 256 256"><style>polyline{fill:none;stroke:#000;stroke-width:2;stroke-linecap:round;stroke-linejoin:round;stroke-dasharray:1000;stroke-dashoffset:1000}@keyframes draw{to{stroke-dashoffset:0;}}</style><polyline points="49.8,21.1 46.6,20.5 43.5,20.1 41.2,20.4 39.2,21.0 36.3,23.1 34.0,25.5 31.7,28.8 30.8,30.9 30.0,33.6 29.7,35.8 29.9,39.5 30.7,42.6 31.9,45.6 33.2,48.4 34.4,50.3 36.1,52.1 37.9,54.0 39.8,55.6 42.0,57.0 44.5,58.7 47.1,60.5 50.2,62.0 53.2,63.2 55.6,64.5 57.8,65.7 59.7,67.3 61.5,70.7 62.2,72.9 62.8,74.8 63.4,76.7 64.0,78.5 64.6,80.6 65.2,82.8 65.8,84.7 67.1,87.5 68.1,89.6 69.3,91.4 74.1,95.1 75.9,96.0 77.9,96.9 79.9,97.9 82.2,98.6 84.7,99.2 87.5,99.8 90.0,100.4 92.5,100.7 94.9,101.0 97.7,101.3 100.2,101.6 102.6,101.6 104.7,101.6 106.8,101.6 109.0,101.6 111.1,101.6 113.3,101.6 115.4,101.6 118.8,101.6 121.0,101.6 123.1,101.6 125.7,101.6 128.3,101.6 130.4,101.6 133.2,101.3 135.9,100.9 138.4,100.5 141.0,99.8 143.5,99.0 145.8,97.8 148.8,96.7 151.6,95.5 154.2,94.1 156.6,92.6 159.3,90.5 162.0,88.1 164.7,85.6 167.5,82.8 170.5,79.4 173.9,74.6 176.9,70.3 180.0,65.2 182.8,60.1 185.0,55.4 187.0,50.3 188.9,45.7 190.3,41.6 191.3,37.8 191.8,35.4 192.4,33.2 193.0,30.4 193.0,28.4 190.1,28.1 187.1,29.8 185.0,31.2 182.8,32.9 180.5,35.1 178.4,36.9 176.2,38.6 174.3,40.4 172.2,42.2 170.1,43.9 168.1,45.9 166.4,47.7 163.6,50.0 161.4,51.7 159.5,53.2 157.4,54.2 155.1,54.9 152.3,54.9 148.8,54.9 145.3,54.3 143.6,54.0 141.8,53.6 140.0,52.9 138.3,52.2 135.7,50.6 133.3,48.4 130.7,46.8 127.9,45.0 125.0,43.6 122.2,42.9 120.4,42.7 118.3,42.7 116.1,42.7 114.2,43.1 112.4,43.6 110.7,44.3 108.9,45.0 107.1,46.1 105.4,47.1 102.4,48.9 99.9,50.2 97.6,51.1 94.8,51.5 91.7,51.4 88.4,50.4 85.4,48.0 82.4,45.2 79.3,42.2 77.5,40.1 75.7,37.9 74.2,36.0 72.7,34.2 71.4,32.5 68.5,29.6 65.5,27.0 63.7,25.6 61.0,23.6 57.7,21.7 56.0,21.0 53.9,20.6 51.8,20.2 49.8,20.0 48.0,20.0 45.2,20.1 43.3,20.5 43.3,20.5" style="animation:draw 0.33s linear 0.00s forwards;" /><polyline points="36.8,48.3 30.4,50.9 27.5,53.0 24.9,56.4 22.4,61.3 20.9,66.3 20.0,72.9 20.0,78.7 20.4,84.8 21.4,89.2 22.6,93.8 24.0,97.6 25.7,100.2 27.1,102.3 29.5,105.1 30.8,106.9 31.4,101.2 31.4,95.6 31.6,87.5 31.9,80.6 33.4,73.6 36.6,62.9 37.7,60.0 38.7,57.6 39.5,55.8 41.6,53.2 41.6,53.2" style="animation:draw 0.33s linear 0.33s forwards;" /><polyline points="110.3,107.2 110.1,114.8 110.2,120.4 110.6,125.4 111.6,132.9 112.8,140.4 114.2,148.0 115.2,155.6 116.1,162.1 116.8,169.2 117.5,175.4 118.2,182.2 118.9,187.8 119.8,193.5 120.7,198.4 121.7,202.5 122.8,206.9 123.5,210.1 124.2,212.4 125.0,214.5 125.7,216.3 125.9,218.1 126.1,220.4 125.6,222.1 122.6,222.9 119.6,223.5 115.4,224.2 110.7,224.9 105.2,225.9 100.9,226.9 97.7,228.0 95.0,229.1 92.4,229.9 95.1,229.3 98.0,228.0 100.9,226.1 103.2,224.2 103.2,224.2" style="animation:draw 0.33s linear 0.67s forwards;" /><polyline points="124.8,219.9 121.8,227.6 119.4,231.8 117.3,236.0 117.3,236.0" style="animation:draw 0.33s linear 1.00s forwards;" /><polyline points="133.4,221.2 134.2,227.6 134.7,230.6 135.3,233.2 135.3,233.4" style="animation:draw 0.33s linear 1.33s forwards;" /><polyline points="143.1,103.1 142.7,107.0 142.8,112.6 146.6,129.7 149.4,139.1 152.5,147.1 156.6,158.5 157.7,161.8 158.4,164.4 159.1,166.6 159.7,169.0 161.9,167.4 164.9,164.2 168.4,160.8 172.1,157.3 175.6,154.4 178.8,151.4 181.3,148.9 184.1,146.4 184.4,146.2" style="animation:draw 0.33s linear 1.67s forwards;" /><title>flamingo #6</title></svg>