<?xml version="1.0" encoding="UTF-8"?>
<svg xmlns="http://www.w3.org/2000/svg" width="256" height="256" viewBox="0 0 256 256"><style>polyline{fill:none;stroke:#000;stroke-width:2;stroke-linecap:round;stroke-linejoin:round;stroke-dasharray:1000;stroke-dashoffset:1000}@keyframes draw{to{stroke-dashoffset:0;}}</style><polyline points="157.1,165.7 157.1,165.7" style="animation:draw 0.50s linear 0.00s forwards;" /><polyline points="41.3,59.2 38.4,58.6 34.4,60.9 30.4,62.6 27.5,63.2 24.0,63.8 28.1,61.5 30.9,58.6 33.2,55.1 36.1,52.8 39.0,51.1 44.2,47.1 47.6,45.3 51.1,43.0 54.0,41.3 57.4,39.0 61.5,38.4 64.9,38.4 68.4,39.6 69.0,43.0 69.0,46.5 69.0,49.4 71.8,56.3 74.1,62.6 77.0,66.7 79.3,69.5 82.2,72.4 82.2,75.3 80.5,78.2 79.9,82.2 79.9,85.7 79.9,89.7 79.9,92.6 79.9,95.5 78.2,98.3 77.6,102.4 77.6,105.2 76.4,108.1 74.7,111.0 71.3,113.9 66.7,117.3 63.8,120.2 60.9,124.8 57.4,130.0 55.1,134.0 53.4,136.9 52.3,140.4 51.1,143.8 50.0,147.3 49.4,150.2 47.6,154.2 47.6,157.7 48.2,161.1 56.3,168.0 59.2,169.8 62.6,172.1 65.5,173.2 70.7,174.4 74.1,175.5 77.6,176.1 81.1,177.2 83.9,178.4 87.4,179.0 90.8,179.0 95.5,179.6 98.9,179.6 102.4,179.0 106.4,177.2 110.4,174.9 116.8,172.1 121.4,168.6 126.0,164.0 129.4,161.1 132.9,157.7 136.4,153.6 139.2,150.8 142.7,146.1 143.3,143.3 143.8,139.8 139.2,134.0 135.2,129.4 132.3,125.4 129.4,123.1 124.8,121.4 122.0,120.8 117.9,119.6 115.0,119.1 112.2,118.5 109.3,117.3 105.8,112.7 105.2,109.9 105.2,107.0 105.2,103.5 105.2,100.1 105.2,96.0 105.2,92.0 105.2,86.8 105.8,82.2 105.8,78.2 105.8,74.1 105.8,70.7 105.8,66.1 103.5,62.0 100.6,57.4 97.8,51.7 95.5,48.2 94.3,45.3 92.6,42.5 90.8,37.9 89.1,33.2 87.4,29.2 84.5,26.9 80.5,24.6 77.6,24.0 71.8,22.9 65.5,21.2 60.9,20.0 55.7,20.0 50.5,20.0 47.1,20.0 42.5,22.3 38.4,25.8 35.6,28.6 31.5,33.8 30.4,36.7 27.5,41.3 24.6,46.5 22.9,50.5 22.3,53.4 20.6,56.3 20.0,60.3 20.0,60.3" style="animation:draw 0.50s linear 0.50s forwards;" /><polyline points="98.3,179.6 97.8,183.0 97.2,186.5 96.6,189.9 96.6,192.8 97.8,196.3 98.9,199.1 99.5,202.0 99.5,204.9 99.5,207.8 99.5,211.8 99.5,214.7 99.5,217.6 100.1,220.4 100.6,223.3 100.6,226.2 100.1,229.1 98.9,232.0 98.3,234.8 98.3,236.0" style="animation:draw 0.50s linear 1.00s forwards;" /><polyline points="102.4,179.6 102.9,182.4 102.9,185.3 102.9,188.2 102.9,192.2 104.1,195.1 104.1,198.0 105.8,200.9" style="animation:draw 0.50s linear 1.50s forwards;" /><title>flamingo #2</title></svg>